999
dxfrw 0.6.3
  0
SECTION
  2
HEADER
  9
$ACADVER
  1
AC1021
  9
$DWGCODEPAGE
  3
ANSI_1252
  9
$INSBASE
 10
0
 20
0
 30
0
  9
$EXTMIN
 10
-33.125
 20
-22.25
 30
0
  9
$EXTMAX
 10
271.2500000000001
 20
253.125000068664
 30
0
  9
$LIMMIN
 10
0
 20
0
  9
$LIMMAX
 10
420
 20
297
  9
$ORTHOMODE
 70
    0
  9
$REGENMODE
 70
    1
  9
$FILLMODE
 70
    1
  9
$QTEXTMODE
 70
    0
  9
$MIRRTEXT
 70
    0
  9
$LTSCALE
 40
1
  9
$ATTMODE
 70
    0
  9
$TEXTSIZE
 40
2.5
  9
$TRACEWID
 40
15.68
  9
$TEXTSTYLE
  7
STANDARD
  9
$CLAYER
  8
screw
  9
$CELTYPE
  6
BYLAYER
  9
$CECOLOR
 62
  256
  9
$CELTSCALE
 40
1
  9
$DISPSILH
 70
    0
  9
$DIMSCALE
 40
1
  9
$DIMASZ
 40
2.5
  9
$DIMEXO
 40
0.625
  9
$DIMDLI
 40
3.75
  9
$DIMRND
 40
0
  9
$DIMDLE
 40
0
  9
$DIMEXE
 40
1.25
  9
$DIMTP
 40
0
  9
$DIMTM
 40
0
  9
$DIMTXT
 40
2.5
  9
$DIMCEN
 40
2.5
  9
$DIMTSZ
 40
0
  9
$DIMTOL
 70
    0
  9
$DIMLIM
 70
    0
  9
$DIMTIH
 70
    0
  9
$DIMTOH
 70
    0
  9
$DIMSE1
 70
    0
  9
$DIMSE2
 70
    0
  9
$DIMTAD
 70
    1
  9
$DIMZIN
 70
    1
  9
$DIMBLK
  1

  9
$DIMASO
 70
    1
  9
$DIMSHO
 70
    1
  9
$DIMPOST
  1

  9
$DIMAPOST
  1

  9
$DIMALT
 70
    0
  9
$DIMALTD
 70
    3
  9
$DIMALTF
 40
0.03937
  9
$DIMLFAC
 40
1
  9
$DIMTOFL
 70
    1
  9
$DIMTVP
 40
0
  9
$DIMTIX
 70
    0
  9
$DIMSOXD
 70
    0
  9
$DIMSAH
 70
    0
  9
$DIMBLK1
  1

  9
$DIMBLK2
  1

  9
$DIMSTYLE
  2
STANDARD
  9
$DIMCLRD
 70
    0
  9
$DIMCLRE
 70
    0
  9
$DIMCLRT
 70
    0
  9
$DIMTFAC
 40
1
  9
$DIMGAP
 40
0.625
  9
$DIMJUST
 70
    0
  9
$DIMSD1
 70
    0
  9
$DIMSD2
 70
    0
  9
$DIMTOLJ
 70
    0
  9
$DIMTZIN
 70
    8
  9
$DIMALTZ
 70
    0
  9
$DIMALTTZ
 70
    0
  9
$DIMUPT
 70
    0
  9
$DIMDEC
 70
    2
  9
$DIMTDEC
 70
    2
  9
$DIMALTU
 70
    2
  9
$DIMALTTD
 70
    3
  9
$DIMTXSTY
  7
standard
  9
$DIMAUNIT
 70
    0
  9
$DIMADEC
 70
    2
  9
$DIMALTRND
 40
0
  9
$DIMAZIN
 70
    0
  9
$DIMDSEP
 70
    0
  9
$DIMATFIT
 70
    3
  9
$DIMFRAC
 70
    0
  9
$DIMLDRBLK
  1
STANDARD
  9
$DIMLUNIT
 70
    2
  9
$DIMLWD
 70
   -2
  9
$DIMLWE
 70
   -2
  9
$DIMTMOVE
 70
    0
  9
$DIMFXL
 40
1
  9
$DIMFXLON
 70
    0
  9
$DIMJOGANG
 40
0.7854
  9
$DIMTFILL
 70
    0
  9
$DIMTFILLCLR
 70
    0
  9
$DIMARCSYM
 70
    0
  9
$DIMLTYPE
  6

  9
$DIMLTEX1
  6

  9
$DIMLTEX2
  6

  9
$LUNITS
 70
    2
  9
$LUPREC
 70
    2
  9
$SKETCHINC
 40
1
  9
$FILLETRAD
 40
0
  9
$AUNITS
 70
    0
  9
$AUPREC
 70
    2
  9
$MENU
  1
.
  9
$ELEVATION
 40
0
  9
$PELEVATION
 40
0
  9
$THICKNESS
 40
0
  9
$LIMCHECK
 70
    0
  9
$CHAMFERA
 40
0
  9
$CHAMFERB
 40
0
  9
$CHAMFERC
 40
0
  9
$CHAMFERD
 40
0
  9
$SKPOLY
 70
    0
  9
$USRTIMER
 70
    1
  9
$ANGBASE
 50
0
  9
$ANGDIR
 70
    0
  9
$PDMODE
 70
   96
  9
$PDSIZE
 40
-2
  9
$PLINEWID
 40
0
  9
$SPLFRAME
 70
    0
  9
$SPLINETYPE
 70
    2
  9
$SPLINESEGS
 70
    8
  9
$HANDSEED
  5
20000
  9
$SURFTAB1
 70
    6
  9
$SURFTAB2
 70
    6
  9
$SURFTYPE
 70
    6
  9
$SURFU
 70
    6
  9
$SURFV
 70
    6
  9
$UCSBASE
  2

  9
$UCSNAME
  2

  9
$UCSORG
 10
0
 20
0
 30
0
  9
$UCSXDIR
 10
1
 20
0
 30
0
  9
$UCSYDIR
 10
0
 20
1
 30
0
  9
$UCSORTHOREF
  2

  9
$UCSORTHOVIEW
 70
    0
  9
$UCSORGTOP
 10
0
 20
0
 30
0
  9
$UCSORGBOTTOM
 10
0
 20
0
 30
0
  9
$UCSORGLEFT
 10
0
 20
0
 30
0
  9
$UCSORGRIGHT
 10
0
 20
0
 30
0
  9
$UCSORGFRONT
 10
0
 20
0
 30
0
  9
$UCSORGBACK
 10
0
 20
0
 30
0
  9
$PUCSBASE
  2

  9
$PUCSNAME
  2

  9
$PUCSORG
 10
0
 20
0
 30
0
  9
$PUCSXDIR
 10
1
 20
0
 30
0
  9
$PUCSYDIR
 10
0
 20
1
 30
0
  9
$PUCSORTHOREF
  2

  9
$PUCSORTHOVIEW
 70
    0
  9
$PUCSORGTOP
 10
0
 20
0
 30
0
  9
$PUCSORGBOTTOM
 10
0
 20
0
 30
0
  9
$PUCSORGLEFT
 10
0
 20
0
 30
0
  9
$PUCSORGRIGHT
 10
0
 20
0
 30
0
  9
$PUCSORGFRONT
 10
0
 20
0
 30
0
  9
$PUCSORGBACK
 10
0
 20
0
 30
0
  9
$USERI1
 70
    0
  9
$USERI2
 70
    0
  9
$USERI3
 70
    0
  9
$USERI4
 70
    0
  9
$USERI5
 70
    0
  9
$USERR1
 40
0
  9
$USERR2
 40
0
  9
$USERR3
 40
0
  9
$USERR4
 40
0
  9
$USERR5
 40
0
  9
$WORLDVIEW
 70
    1
  9
$SHADEDGE
 70
    3
  9
$SHADEDIF
 70
   70
  9
$TILEMODE
 70
    1
  9
$MAXACTVP
 70
   64
  9
$PINSBASE
 10
46.83098050651294
 20
28.40246027751904
 30
0
  9
$PLIMCHECK
 70
    0
  9
$PEXTMIN
 10
0
 20
0
 30
0
  9
$PEXTMAX
 10
0
 20
0
 30
0
  9
$GRIDMODE
 70
    1
  9
$SNAPSTYLE
 70
    0
  9
$GRIDUNIT
 10
0
 20
0
  9
$PLIMMIN
 10
0
 20
0
  9
$PLIMMAX
 10
297
 20
210
  9
$UNITMODE
 70
    0
  9
$VISRETAIN
 70
    1
  9
$PLINEGEN
 70
    0
  9
$PSLTSCALE
 70
    1
  9
$TREEDEPTH
 70
 3020
  9
$CMLSTYLE
  2
Standard
  9
$CMLJUST
 70
    0
  9
$CMLSCALE
 40
20
  9
$PROXYGRAPHICS
 70
    1
  9
$MEASUREMENT
 70
    1
  9
$CELWEIGHT
370
   -1
  9
$ENDCAPS
280
    0
  9
$JOINSTYLE
280
    0
  9
$LWDISPLAY
290
    0
  9
$INSUNITS
 70
    4
  9
$HYPERLINKBASE
  1

  9
$STYLESHEET
  1

  9
$XEDIT
290
    1
  9
$CEPSNTYPE
380
    0
  9
$PSTYLEMODE
290
    1
  9
$EXTNAMES
290
    1
  9
$PSVPSCALE
 40
0.7057285517986086
  9
$OLESTARTUP
290
    0
  9
$SORTENTS
280
  127
  9
$INDEXCTL
280
    0
  9
$HIDETEXT
280
    1
  9
$XCLIPFRAME
290
    0
  9
$HALOGAP
280
    0
  9
$OBSCOLOR
 70
  257
  9
$OBSLTYPE
280
    0
  9
$INTERSECTIONDISPLAY
280
    0
  9
$INTERSECTIONCOLOR
 70
  257
  9
$DIMASSOC
280
    1
  9
$PROJECTNAME
  1

  9
$CAMERADISPLAY
290
    0
  9
$LENSLENGTH
 40
50
  9
$CAMERAHEIGHT
 40
0
  9
$STEPSPERSEC
 40
2
  9
$STEPSIZE
 40
50
  9
$3DDWFPREC
 40
2
  9
$PSOLWIDTH
 40
5
  9
$PSOLHEIGHT
 40
80
  9
$LOFTANG1
 40
1.570796326794897
  9
$LOFTANG2
 40
1.570796326794897
  9
$LOFTMAG1
 40
0
  9
$LOFTMAG2
 40
0
  9
$LOFTPARAM
 70
    7
  9
$LOFTNORMALS
280
    1
  9
$LATITUDE
 40
1
  9
$LONGITUDE
 40
1
  9
$NORTHDIRECTION
 40
0
  9
$TIMEZONE
 70
-8000
  9
$LIGHTGLYPHDISPLAY
280
    1
  9
$TILEMODELIGHTSYNCH
280
    1
  9
$SOLIDHIST
280
    1
  9
$SHOWHIST
280
    1
  9
$DWFFRAME
280
    2
  9
$DGNFRAME
280
    0
  9
$REALWORLDSCALE
290
    1
  9
$INTERFERECOLOR
 62
    1
  9
$CSHADOW
280
    0
  9
$SHADOWPLANELOCATION
 40
0
  0
ENDSEC
  0
SECTION
  2
CLASSES
  0
ENDSEC
  0
SECTION
  2
TABLES
  0
TABLE
  2
VPORT
  5
8
330
0
100
AcDbSymbolTable
 70
    1
  0
VPORT
  5
31
330
2
100
AcDbSymbolTableRecord
100
AcDbViewportTableRecord
  2
*ACTIVE
 70
    0
 10
0
 20
0
 11
1
 21
1
 12
467.2382275756304
 22
225.2836198532451
 13
0
 23
0
 14
10
 24
10
 15
10
 25
10
 16
0
 26
0
 36
1
 17
0
 27
0
 37
0
 40
728.1166593656883
 41
1.378712871287129
 42
50
 43
0
 44
0
 50
0
 51
0
 71
    0
 72
  100
 73
    1
 74
    3
 75
    0
 76
    1
 77
    0
 78
    0
281
    0
 65
    1
110
0
120
0
130
0
111
1
121
0
131
0
112
0
122
1
132
0
 79
    0
146
0
348
10020
 60
    7
 61
    5
292
1
282
    1
141
0
142
0
 63
  250
421
3358443
  0
ENDTAB
  0
TABLE
  2
LTYPE
  5
5
330
0
100
AcDbSymbolTable
 70
    4
  0
LTYPE
  5
14
330
5
100
AcDbSymbolTableRecord
100
AcDbLinetypeTableRecord
  2
ByBlock
 70
    0
  3

 72
   65
 73
    0
 40
0
  0
LTYPE
  5
15
330
5
100
AcDbSymbolTableRecord
100
AcDbLinetypeTableRecord
  2
ByLayer
 70
    0
  3

 72
   65
 73
    0
 40
0
  0
LTYPE
  5
16
330
5
100
AcDbSymbolTableRecord
100
AcDbLinetypeTableRecord
  2
Continuous
 70
    0
  3
Solid line
 72
   65
 73
    0
 40
0
  0
LTYPE
  5
32
330
5
100
AcDbSymbolTableRecord
100
AcDbLinetypeTableRecord
  2
DOT
 70
    0
  3
Dot . . . . . . . . . . . . . . . . . . . . . .
 72
   65
 73
    2
 40
6.35
 49
0
 74
    0
 49
-6.35
 74
    0
  0
LTYPE
  5
33
330
5
100
AcDbSymbolTableRecord
100
AcDbLinetypeTableRecord
  2
DOTTINY
 70
    0
  3
Dot (.15x) .....................................
 72
   65
 73
    2
 40
0.9525
 49
0
 74
    0
 49
-0.9525
 74
    0
  0
LTYPE
  5
34
330
5
100
AcDbSymbolTableRecord
100
AcDbLinetypeTableRecord
  2
DOT2
 70
    0
  3
Dot (.5x) .....................................
 72
   65
 73
    2
 40
3.175
 49
0
 74
    0
 49
-3.175
 74
    0
  0
LTYPE
  5
35
330
5
100
AcDbSymbolTableRecord
100
AcDbLinetypeTableRecord
  2
DOTX2
 70
    0
  3
Dot (2x) .  .  .  .  .  .  .  .  .  .  .  .  .
 72
   65
 73
    2
 40
12.7
 49
0
 74
    0
 49
-12.7
 74
    0
  0
LTYPE
  5
36
330
5
100
AcDbSymbolTableRecord
100
AcDbLinetypeTableRecord
  2
DASHED
 70
    0
  3
Dashed _ _ _ _ _ _ _ _ _ _ _ _ _ _ _ _ _
 72
   65
 73
    2
 40
19.05
 49
12.7
 74
    0
 49
-6.35
 74
    0
  0
LTYPE
  5
37
330
5
100
AcDbSymbolTableRecord
100
AcDbLinetypeTableRecord
  2
DASHEDTINY
 70
    0
  3
Dashed (.15x) _ _ _ _ _ _ _ _ _ _ _ _ _ _ _ _ _
 72
   65
 73
    2
 40
2.8575
 49
1.905
 74
    0
 49
-0.9525
 74
    0
  0
LTYPE
  5
38
330
5
100
AcDbSymbolTableRecord
100
AcDbLinetypeTableRecord
  2
DASHED2
 70
    0
  3
Dashed (.5x) _ _ _ _ _ _ _ _ _ _ _ _ _ _ _ _ _
 72
   65
 73
    2
 40
9.524999999999999
 49
6.35
 74
    0
 49
-3.175
 74
    0
  0
LTYPE
  5
39
330
5
100
AcDbSymbolTableRecord
100
AcDbLinetypeTableRecord
  2
DASHEDX2
 70
    0
  3
Dashed (2x) ____  ____  ____  ____  ____  ___
 72
   65
 73
    2
 40
38.09999999999999
 49
25.4
 74
    0
 49
-12.7
 74
    0
  0
LTYPE
  5
3A
330
5
100
AcDbSymbolTableRecord
100
AcDbLinetypeTableRecord
  2
DASHDOT
 70
    0
  3
Dash dot __ . __ . __ . __ . __ . __ . __ . __
 72
   65
 73
    4
 40
25.4
 49
12.7
 74
    0
 49
-6.35
 74
    0
 49
0
 74
    0
 49
-6.35
 74
    0
  0
LTYPE
  5
3B
330
5
100
AcDbSymbolTableRecord
100
AcDbLinetypeTableRecord
  2
DASHDOTTINY
 70
    0
  3
Dash dot (.15x) _._._._._._._._._._._._._._._.
 72
   65
 73
    4
 40
3.81
 49
1.905
 74
    0
 49
-0.9525
 74
    0
 49
0
 74
    0
 49
-0.9525
 74
    0
  0
LTYPE
  5
3C
330
5
100
AcDbSymbolTableRecord
100
AcDbLinetypeTableRecord
  2
DASHDOT2
 70
    0
  3
Dash dot (.5x) _._._._._._._._._._._._._._._.
 72
   65
 73
    4
 40
12.7
 49
6.35
 74
    0
 49
-3.175
 74
    0
 49
0
 74
    0
 49
-3.175
 74
    0
  0
LTYPE
  5
3D
330
5
100
AcDbSymbolTableRecord
100
AcDbLinetypeTableRecord
  2
DASHDOTX2
 70
    0
  3
Dash dot (2x) ____  .  ____  .  ____  .  ___
 72
   65
 73
    4
 40
50.8
 49
25.4
 74
    0
 49
-12.7
 74
    0
 49
0
 74
    0
 49
-12.7
 74
    0
  0
LTYPE
  5
3E
330
5
100
AcDbSymbolTableRecord
100
AcDbLinetypeTableRecord
  2
DIVIDE
 70
    0
  3
Divide ____ . . ____ . . ____ . . ____ . . ____
 72
   65
 73
    6
 40
31.75
 49
12.7
 74
    0
 49
-6.35
 74
    0
 49
0
 74
    0
 49
-6.35
 74
    0
 49
0
 74
    0
 49
-6.35
 74
    0
  0
LTYPE
  5
3F
330
5
100
AcDbSymbolTableRecord
100
AcDbLinetypeTableRecord
  2
DIVIDETINY
 70
    0
  3
Divide (.15x) __..__..__..__..__..__..__..__.._
 72
   65
 73
    6
 40
4.7625
 49
1.905
 74
    0
 49
-0.9525
 74
    0
 49
0
 74
    0
 49
-0.9525
 74
    0
 49
0
 74
    0
 49
-0.9525
 74
    0
  0
LTYPE
  5
40
330
5
100
AcDbSymbolTableRecord
100
AcDbLinetypeTableRecord
  2
DIVIDE2
 70
    0
  3
Divide (.5x) __..__..__..__..__..__..__..__.._
 72
   65
 73
    6
 40
15.875
 49
6.35
 74
    0
 49
-3.175
 74
    0
 49
0
 74
    0
 49
-3.175
 74
    0
 49
0
 74
    0
 49
-3.175
 74
    0
  0
LTYPE
  5
41
330
5
100
AcDbSymbolTableRecord
100
AcDbLinetypeTableRecord
  2
DIVIDEX2
 70
    0
  3
Divide (2x) ________  .  .  ________  .  .  _
 72
   65
 73
    6
 40
63.5
 49
25.4
 74
    0
 49
-12.7
 74
    0
 49
0
 74
    0
 49
-12.7
 74
    0
 49
0
 74
    0
 49
-12.7
 74
    0
  0
LTYPE
  5
42
330
5
100
AcDbSymbolTableRecord
100
AcDbLinetypeTableRecord
  2
BORDER
 70
    0
  3
Border __ __ . __ __ . __ __ . __ __ . __ __ .
 72
   65
 73
    6
 40
44.45
 49
12.7
 74
    0
 49
-6.35
 74
    0
 49
12.7
 74
    0
 49
-6.35
 74
    0
 49
0
 74
    0
 49
-6.35
 74
    0
  0
LTYPE
  5
43
330
5
100
AcDbSymbolTableRecord
100
AcDbLinetypeTableRecord
  2
BORDERTINY
 70
    0
  3
Border (.15x) __.__.__.__.__.__.__.__.__.__.__.
 72
   65
 73
    6
 40
6.6675
 49
1.905
 74
    0
 49
-0.9525
 74
    0
 49
1.905
 74
    0
 49
-0.9525
 74
    0
 49
0
 74
    0
 49
-0.9525
 74
    0
  0
LTYPE
  5
44
330
5
100
AcDbSymbolTableRecord
100
AcDbLinetypeTableRecord
  2
BORDER2
 70
    0
  3
Border (.5x) __.__.__.__.__.__.__.__.__.__.__.
 72
   65
 73
    6
 40
22.225
 49
6.35
 74
    0
 49
-3.175
 74
    0
 49
6.35
 74
    0
 49
-3.175
 74
    0
 49
0
 74
    0
 49
-3.175
 74
    0
  0
LTYPE
  5
45
330
5
100
AcDbSymbolTableRecord
100
AcDbLinetypeTableRecord
  2
BORDERX2
 70
    0
  3
Border (2x) ____  ____  .  ____  ____  .  ___
 72
   65
 73
    6
 40
88.89999999999999
 49
25.4
 74
    0
 49
-12.7
 74
    0
 49
25.4
 74
    0
 49
-12.7
 74
    0
 49
0
 74
    0
 49
-12.7
 74
    0
  0
LTYPE
  5
46
330
5
100
AcDbSymbolTableRecord
100
AcDbLinetypeTableRecord
  2
CENTER
 70
    0
  3
Center ____ _ ____ _ ____ _ ____ _ ____ _ ____
 72
   65
 73
    4
 40
50.8
 49
31.75
 74
    0
 49
-6.35
 74
    0
 49
6.35
 74
    0
 49
-6.35
 74
    0
  0
LTYPE
  5
47
330
5
100
AcDbSymbolTableRecord
100
AcDbLinetypeTableRecord
  2
CENTERTINY
 70
    0
  3
Center (.15x) ___ _ ___ _ ___ _ ___ _ ___ _ ___
 72
   65
 73
    4
 40
7.619999999999999
 49
4.7625
 74
    0
 49
-0.9525
 74
    0
 49
0.9525
 74
    0
 49
-0.9525
 74
    0
  0
LTYPE
  5
48
330
5
100
AcDbSymbolTableRecord
100
AcDbLinetypeTableRecord
  2
CENTER2
 70
    0
  3
Center (.5x) ___ _ ___ _ ___ _ ___ _ ___ _ ___
 72
   65
 73
    4
 40
28.575
 49
19.05
 74
    0
 49
-3.175
 74
    0
 49
3.175
 74
    0
 49
-3.175
 74
    0
  0
LTYPE
  5
49
330
5
100
AcDbSymbolTableRecord
100
AcDbLinetypeTableRecord
  2
CENTERX2
 70
    0
  3
Center (2x) ________  __  ________  __  _____
 72
   65
 73
    4
 40
101.6
 49
63.5
 74
    0
 49
-12.7
 74
    0
 49
12.7
 74
    0
 49
-12.7
 74
    0
  0
ENDTAB
  0
TABLE
  2
LAYER
  5
2
330
0
100
AcDbSymbolTable
 70
    1
  0
LAYER
  5
10
330
2
100
AcDbSymbolTableRecord
100
AcDbLayerTableRecord
  2
0
 70
    0
 62
    7
  6
CONTINUOUS
370
   50
390
F
  0
LAYER
  5
4A
330
2
100
AcDbSymbolTableRecord
100
AcDbLayerTableRecord
  2
fold
 70
    0
 62
    7
  6
DASHED
370
    5
390
F
  0
LAYER
  5
4B
330
2
100
AcDbSymbolTableRecord
100
AcDbLayerTableRecord
  2
measurement
 70
    0
 62
    7
  6
CONTINUOUS
370
    5
390
F
  0
LAYER
  5
4C
330
2
100
AcDbSymbolTableRecord
100
AcDbLayerTableRecord
  2
reference
 70
    0
 62
    7
  6
CENTER
370
    5
390
F
  0
LAYER
  5
4D
330
2
100
AcDbSymbolTableRecord
100
AcDbLayerTableRecord
  2
screw
 70
    0
 62
    7
  6
CONTINUOUS
370
   50
390
F
  0
ENDTAB
  0
TABLE
  2
STYLE
  5
3
330
0
100
AcDbSymbolTable
 70
    3
  0
STYLE
  5
4E
330
2
100
AcDbSymbolTableRecord
100
AcDbTextStyleTableRecord
  2
Standard
 70
    0
 40
0
 41
1
 50
0
 71
    0
 42
1
  3
txt
  4

  0
ENDTAB
  0
TABLE
  2
VIEW
  5
6
330
0
100
AcDbSymbolTable
 70
    0
  0
ENDTAB
  0
TABLE
  2
UCS
  5
7
330
0
100
AcDbSymbolTable
 70
    0
  0
ENDTAB
  0
TABLE
  2
APPID
  5
9
330
0
100
AcDbSymbolTable
 70
    1
  0
APPID
  5
12
330
9
100
AcDbSymbolTableRecord
100
AcDbRegAppTableRecord
  2
ACAD
 70
    0
  0
APPID
  5
4F
330
9
100
AcDbSymbolTableRecord
100
AcDbRegAppTableRecord
  2
LibreCad
 70
    0
  0
ENDTAB
  0
TABLE
  2
DIMSTYLE
  5
A
330
0
100
AcDbSymbolTable
 70
    1
100
AcDbDimStyleTable
 71
    1
  0
DIMSTYLE
105
50
330
A
100
AcDbSymbolTableRecord
100
AcDbDimStyleTableRecord
  2
Standard
 70
    0
 40
1
 41
2.5
 42
0.625
 43
0.38
 44
1.25
 45
0
 46
0
 47
0
 48
0
 49
1
140
2.5
141
0.09
142
0
143
25.4
144
1
145
0
146
1
147
0.625
148
0
 71
    0
 72
    0
 73
    0
 74
    1
 75
    0
 76
    0
 77
    0
 78
    1
 79
    0
170
    0
171
    2
172
    0
173
    0
174
    0
175
    0
176
    0
177
    0
178
    0
179
    2
271
    2
272
    4
273
    2
274
    2
275
    0
276
    0
277
    2
278
    0
279
    0
280
    0
281
    0
282
    0
283
    1
284
    0
285
    0
286
    0
288
    0
289
    3
340
4E
  0
ENDTAB
  0
TABLE
  2
BLOCK_RECORD
  5
1
330
0
100
AcDbSymbolTable
 70
    2
  0
BLOCK_RECORD
  5
1F
330
1
100
AcDbSymbolTableRecord
100
AcDbBlockTableRecord
  2
*Model_Space
 70
    0
280
    1
281
    0
  0
BLOCK_RECORD
  5
1E
330
1
100
AcDbSymbolTableRecord
100
AcDbBlockTableRecord
  2
*Paper_Space
 70
    0
280
    1
281
    0
  0
BLOCK_RECORD
  5
51
330
1
100
AcDbSymbolTableRecord
100
AcDbBlockTableRecord
  2
*D1
 70
    0
280
    1
281
    0
  0
BLOCK_RECORD
  5
54
330
1
100
AcDbSymbolTableRecord
100
AcDbBlockTableRecord
  2
*D7
 70
    0
280
    1
281
    0
  0
BLOCK_RECORD
  5
57
330
1
100
AcDbSymbolTableRecord
100
AcDbBlockTableRecord
  2
*D2
 70
    0
280
    1
281
    0
  0
BLOCK_RECORD
  5
5A
330
1
100
AcDbSymbolTableRecord
100
AcDbBlockTableRecord
  2
*D13
 70
    0
280
    1
281
    0
  0
BLOCK_RECORD
  5
5D
330
1
100
AcDbSymbolTableRecord
100
AcDbBlockTableRecord
  2
*D6
 70
    0
280
    1
281
    0
  0
BLOCK_RECORD
  5
60
330
1
100
AcDbSymbolTableRecord
100
AcDbBlockTableRecord
  2
*D8
 70
    0
280
    1
281
    0
  0
BLOCK_RECORD
  5
63
330
1
100
AcDbSymbolTableRecord
100
AcDbBlockTableRecord
  2
*D3
 70
    0
280
    1
281
    0
  0
BLOCK_RECORD
  5
66
330
1
100
AcDbSymbolTableRecord
100
AcDbBlockTableRecord
  2
*D5
 70
    0
280
    1
281
    0
  0
BLOCK_RECORD
  5
69
330
1
100
AcDbSymbolTableRecord
100
AcDbBlockTableRecord
  2
*D11
 70
    0
280
    1
281
    0
  0
BLOCK_RECORD
  5
6C
330
1
100
AcDbSymbolTableRecord
100
AcDbBlockTableRecord
  2
*D4
 70
    0
280
    1
281
    0
  0
BLOCK_RECORD
  5
6F
330
1
100
AcDbSymbolTableRecord
100
AcDbBlockTableRecord
  2
*D12
 70
    0
280
    1
281
    0
  0
BLOCK_RECORD
  5
72
330
1
100
AcDbSymbolTableRecord
100
AcDbBlockTableRecord
  2
*D9
 70
    0
280
    1
281
    0
  0
BLOCK_RECORD
  5
75
330
1
100
AcDbSymbolTableRecord
100
AcDbBlockTableRecord
  2
*D10
 70
    0
280
    1
281
    0
  0
BLOCK_RECORD
  5
78
330
1
100
AcDbSymbolTableRecord
100
AcDbBlockTableRecord
  2
*D14
 70
    0
280
    1
281
    0
  0
ENDTAB
  0
ENDSEC
  0
SECTION
  2
BLOCKS
  0
BLOCK
  5
20
330
1F
100
AcDbEntity
  8
0
100
AcDbBlockBegin
  2
*Model_Space
 70
    0
 10
0
 20
0
 30
0
  3
*Model_Space
  1

  0
ENDBLK
  5
21
330
1F
100
AcDbEntity
  8
0
100
AcDbBlockEnd
  0
BLOCK
  5
1C
330
1B
100
AcDbEntity
  8
0
100
AcDbBlockBegin
  2
*Paper_Space
 70
    0
 10
0
 20
0
 30
0
  3
*Paper_Space
  1

  0
ENDBLK
  5
1D
330
1F
100
AcDbEntity
  8
0
100
AcDbBlockEnd
  0
BLOCK
  5
52
330
51
100
AcDbEntity
  8
0
100
AcDbBlockBegin
  2
*D1
 70
    1
 10
0
 20
0
  3
*D1
  1

  0
LINE
  5
7B
100
AcDbEntity
  8
measurement
  6
ByBlock
 62
    0
370
   -2
100
AcDbLine
 10
14.99999999473302
 20
125.6249981460189
 11
14.99999893606767
 21
251.2499981881548
  0
LINE
  5
7C
100
AcDbEntity
  8
measurement
  6
ByBlock
 62
    0
370
   -2
100
AcDbLine
 10
234.999999994733
 20
125.625
 11
234.9999989360676
 21
251.2500000421359
  0
LINE
  5
7D
100
AcDbEntity
  8
measurement
  6
ByBlock
 62
    0
370
   -2
100
AcDbLine
 10
14.99999894660165
 20
249.9999981881548
 11
234.9999989466016
 21
250.0000000421359
  0
MTEXT
  5
7E
100
AcDbEntity
  8
measurement
  6
CONTINUOUS
 62
    0
370
   -2
100
AcDbMText
 10
124.9999989308007
 20
251.8749991151454
 30
0
 40
2.5
 41
9.722222222222221
 71
    5
 72
    1
  1
220.00
  7
standard
210
0
220
0
230
1
 50
4.828422453034722e-07
 73
    2
 44
1
  0
SOLID
  5
7F
100
AcDbEntity
  8
measurement
  6
ByBlock
 62
    0
370
   -2
100
AcDbTrace
 10
14.99999894660165
 20
249.9999981881548
 30
0
 11
17.49999894309354
 21
250.4162828669956
 31
0
 12
17.49999895010976
 22
249.5837135514499
 32
0
 13
17.49999895010976
 23
249.5837135514499
 33
0
  0
SOLID
  5
80
100
AcDbEntity
  8
measurement
  6
ByBlock
 62
    0
370
   -2
100
AcDbTrace
 10
234.9999989466016
 20
250.0000000421359
 30
0
 11
232.4999989501098
 21
249.5837153632951
 31
0
 12
232.4999989430935
 22
250.4162846788408
 32
0
 13
232.4999989430935
 23
250.4162846788408
 33
0
  0
ENDBLK
  5
53
330
51
100
AcDbEntity
  8
0
100
AcDbBlockEnd
  0
BLOCK
  5
55
330
54
100
AcDbEntity
  8
0
100
AcDbBlockBegin
  2
*D7
 70
    1
 10
0
 20
0
  3
*D7
  1

  0
LINE
  5
81
100
AcDbEntity
  8
measurement
  6
ByBlock
 62
    0
370
   -2
100
AcDbLine
 10
15
 20
14.375
 11
14.99999999999999
 21
-22.25
  0
LINE
  5
82
100
AcDbEntity
  8
measurement
  6
ByBlock
 62
    0
370
   -2
100
AcDbLine
 10
30
 20
14.375
 11
29.99999999999999
 21
-22.25
  0
LINE
  5
83
100
AcDbEntity
  8
measurement
  6
ByBlock
 62
    0
370
   -2
100
AcDbLine
 10
14.99999999999999
 20
-21
 11
29.99999999999999
 21
-21
  0
MTEXT
  5
84
100
AcDbEntity
  8
measurement
  6
CONTINUOUS
 62
    0
370
   -2
100
AcDbMText
 10
22.49999999999999
 20
-19.125
 30
0
 40
2.5
 41
7.222222222222378
 71
    5
 72
    1
  1
15.00
  7
standard
210
0
220
0
230
1
 50
0
 73
    2
 44
1
  0
SOLID
  5
85
100
AcDbEntity
  8
measurement
  6
ByBlock
 62
    0
370
   -2
100
AcDbTrace
 10
14.99999999999999
 20
-21
 30
0
 11
17.49999999999999
 21
-20.58371534222716
 31
0
 12
17.49999999999999
 22
-21.41628465777284
 32
0
 13
17.49999999999999
 23
-21.41628465777284
 33
0
  0
SOLID
  5
86
100
AcDbEntity
  8
measurement
  6
ByBlock
 62
    0
370
   -2
100
AcDbTrace
 10
29.99999999999999
 20
-21
 30
0
 11
27.49999999999999
 21
-21.41628465777284
 31
0
 12
27.49999999999999
 22
-20.58371534222716
 32
0
 13
27.49999999999999
 23
-20.58371534222716
 33
0
  0
ENDBLK
  5
56
330
54
100
AcDbEntity
  8
0
100
AcDbBlockEnd
  0
BLOCK
  5
58
330
57
100
AcDbEntity
  8
0
100
AcDbBlockBegin
  2
*D2
 70
    1
 10
0
 20
0
  3
*D2
  1

  0
LINE
  5
87
100
AcDbEntity
  8
measurement
  6
ByBlock
 62
    0
370
   -2
100
AcDbLine
 10
140
 20
129.375
 11
140
 21
111.75
  0
LINE
  5
88
100
AcDbEntity
  8
measurement
  6
ByBlock
 62
    0
370
   -2
100
AcDbLine
 10
155
 20
129.375
 11
155
 21
111.75
  0
LINE
  5
89
100
AcDbEntity
  8
measurement
  6
ByBlock
 62
    0
370
   -2
100
AcDbLine
 10
140
 20
113
 11
155
 21
113
  0
MTEXT
  5
8A
100
AcDbEntity
  8
measurement
  6
CONTINUOUS
 62
    0
370
   -2
100
AcDbMText
 10
147.5
 20
114.875
 30
0
 40
2.5
 41
7.222222222222378
 71
    5
 72
    1
  1
15.00
  7
standard
210
0
220
0
230
1
 50
0
 73
    2
 44
1
  0
SOLID
  5
8B
100
AcDbEntity
  8
measurement
  6
ByBlock
 62
    0
370
   -2
100
AcDbTrace
 10
140
 20
113
 30
0
 11
142.5
 21
113.4162846577728
 31
0
 12
142.5
 22
112.5837153422272
 32
0
 13
142.5
 23
112.5837153422272
 33
0
  0
SOLID
  5
8C
100
AcDbEntity
  8
measurement
  6
ByBlock
 62
    0
370
   -2
100
AcDbTrace
 10
155
 20
113
 30
0
 11
152.5
 21
112.5837153422272
 31
0
 12
152.5
 22
113.4162846577728
 32
0
 13
152.5
 23
113.4162846577728
 33
0
  0
ENDBLK
  5
59
330
57
100
AcDbEntity
  8
0
100
AcDbBlockEnd
  0
BLOCK
  5
5B
330
5A
100
AcDbEntity
  8
0
100
AcDbBlockBegin
  2
*D13
 70
    1
 10
0
 20
0
  3
*D13
  1

  0
LINE
  5
8D
100
AcDbEntity
  8
measurement
  6
ByBlock
 62
    0
370
   -2
100
AcDbLine
 10
122.5
 20
226.875
 11
122.5
 21
217.75
  0
LINE
  5
8E
100
AcDbEntity
  8
measurement
  6
ByBlock
 62
    0
370
   -2
100
AcDbLine
 10
127.5
 20
226.875
 11
127.5
 21
217.75
  0
LINE
  5
8F
100
AcDbEntity
  8
measurement
  6
ByBlock
 62
    0
370
   -2
100
AcDbLine
 10
117.5
 20
219
 11
132.5
 21
219
  0
MTEXT
  5
90
100
AcDbEntity
  8
measurement
  6
CONTINUOUS
 62
    0
370
   -2
100
AcDbMText
 10
131.0416666666667
 20
220.875
 30
0
 40
2.5
 41
5.833333333333488
 71
    5
 72
    1
  1
5.00
  7
standard
210
0
220
0
230
1
 50
0
 73
    2
 44
1
  0
SOLID
  5
91
100
AcDbEntity
  8
measurement
  6
ByBlock
 62
    0
370
   -2
100
AcDbTrace
 10
122.5
 20
219
 30
0
 11
120
 21
218.5837153422272
 31
0
 12
120
 22
219.4162846577728
 32
0
 13
120
 23
219.4162846577728
 33
0
  0
SOLID
  5
92
100
AcDbEntity
  8
measurement
  6
ByBlock
 62
    0
370
   -2
100
AcDbTrace
 10
127.5
 20
219
 30
0
 11
130
 21
219.4162846577728
 31
0
 12
130
 22
218.5837153422272
 32
0
 13
130
 23
218.5837153422272
 33
0
  0
ENDBLK
  5
5C
330
5A
100
AcDbEntity
  8
0
100
AcDbBlockEnd
  0
BLOCK
  5
5E
330
5D
100
AcDbEntity
  8
0
100
AcDbBlockBegin
  2
*D6
 70
    1
 10
0
 20
0
  3
*D6
  1

  0
LINE
  5
93
100
AcDbEntity
  8
measurement
  6
ByBlock
 62
    0
370
   -2
100
AcDbLine
 10
-0.625
 20
125
 11
-31.25
 21
125
  0
LINE
  5
94
100
AcDbEntity
  8
measurement
  6
ByBlock
 62
    0
370
   -2
100
AcDbLine
 10
-0.625
 20
15
 11
-31.25
 21
15
  0
LINE
  5
95
100
AcDbEntity
  8
measurement
  6
ByBlock
 62
    0
370
   -2
100
AcDbLine
 10
-30
 20
125
 11
-30
 21
15
  0
MTEXT
  5
96
100
AcDbEntity
  8
measurement
  6
CONTINUOUS
 62
    0
370
   -2
100
AcDbMText
 10
-31.875
 20
70.00000000000001
 30
0
 40
2.5
 41
8.611111111111111
 71
    5
 72
    1
  1
110.00
  7
standard
210
0
220
0
230
1
 50
90
 73
    2
 44
1
  0
SOLID
  5
97
100
AcDbEntity
  8
measurement
  6
ByBlock
 62
    0
370
   -2
100
AcDbTrace
 10
-30
 20
125
 30
0
 11
-29.58371534222716
 21
122.5
 31
0
 12
-30.41628465777284
 22
122.5
 32
0
 13
-30.41628465777284
 23
122.5
 33
0
  0
SOLID
  5
98
100
AcDbEntity
  8
measurement
  6
ByBlock
 62
    0
370
   -2
100
AcDbTrace
 10
-30
 20
15
 30
0
 11
-30.41628465777284
 21
17.5
 31
0
 12
-29.58371534222716
 22
17.5
 32
0
 13
-29.58371534222716
 23
17.5
 33
0
  0
ENDBLK
  5
5F
330
5D
100
AcDbEntity
  8
0
100
AcDbBlockEnd
  0
BLOCK
  5
61
330
60
100
AcDbEntity
  8
0
100
AcDbBlockBegin
  2
*D8
 70
    1
 10
0
 20
0
  3
*D8
  1

  0
LINE
  5
99
100
AcDbEntity
  8
measurement
  6
ByBlock
 62
    0
370
   -2
100
AcDbLine
 10
30
 20
-0.625
 11
30
 21
-22.25
  0
LINE
  5
9A
100
AcDbEntity
  8
measurement
  6
ByBlock
 62
    0
370
   -2
100
AcDbLine
 10
220
 20
-0.625
 11
220
 21
-22.25
  0
LINE
  5
9B
100
AcDbEntity
  8
measurement
  6
ByBlock
 62
    0
370
   -2
100
AcDbLine
 10
30
 20
-21
 11
220
 21
-21
  0
MTEXT
  5
9C
100
AcDbEntity
  8
measurement
  6
CONTINUOUS
 62
    0
370
   -2
100
AcDbMText
 10
125
 20
-19.125
 30
0
 40
2.5
 41
9.166666666666824
 71
    5
 72
    1
  1
190.00
  7
standard
210
0
220
0
230
1
 50
0
 73
    2
 44
1
  0
SOLID
  5
9D
100
AcDbEntity
  8
measurement
  6
ByBlock
 62
    0
370
   -2
100
AcDbTrace
 10
30
 20
-21
 30
0
 11
32.5
 21
-20.58371534222716
 31
0
 12
32.5
 22
-21.41628465777284
 32
0
 13
32.5
 23
-21.41628465777284
 33
0
  0
SOLID
  5
9E
100
AcDbEntity
  8
measurement
  6
ByBlock
 62
    0
370
   -2
100
AcDbTrace
 10
220
 20
-21
 30
0
 11
217.5
 21
-21.41628465777284
 31
0
 12
217.5
 22
-20.58371534222716
 32
0
 13
217.5
 23
-20.58371534222716
 33
0
  0
ENDBLK
  5
62
330
60
100
AcDbEntity
  8
0
100
AcDbBlockEnd
  0
BLOCK
  5
64
330
63
100
AcDbEntity
  8
0
100
AcDbBlockBegin
  2
*D3
 70
    1
 10
0
 20
0
  3
*D3
  1

  0
LINE
  5
9F
100
AcDbEntity
  8
measurement
  6
ByBlock
 62
    0
370
   -2
100
AcDbLine
 10
39.5
 20
159.475
 11
39.5
 21
146.75
  0
LINE
  5
A0
100
AcDbEntity
  8
measurement
  6
ByBlock
 62
    0
370
   -2
100
AcDbLine
 10
50.50000000000001
 20
159.475
 11
50.50000000000001
 21
146.75
  0
LINE
  5
A1
100
AcDbEntity
  8
measurement
  6
ByBlock
 62
    0
370
   -2
100
AcDbLine
 10
39.5
 20
148
 11
50.50000000000001
 21
148
  0
MTEXT
  5
A2
100
AcDbEntity
  8
measurement
  6
CONTINUOUS
 62
    0
370
   -2
100
AcDbMText
 10
45
 20
149.875
 30
0
 40
2.5
 41
6.666666666666666
 71
    5
 72
    1
  1
11.00
  7
standard
210
0
220
0
230
1
 50
0
 73
    2
 44
1
  0
SOLID
  5
A3
100
AcDbEntity
  8
measurement
  6
ByBlock
 62
    0
370
   -2
100
AcDbTrace
 10
39.5
 20
148
 30
0
 11
42
 21
148.4162846577728
 31
0
 12
42
 22
147.5837153422272
 32
0
 13
42
 23
147.5837153422272
 33
0
  0
SOLID
  5
A4
100
AcDbEntity
  8
measurement
  6
ByBlock
 62
    0
370
   -2
100
AcDbTrace
 10
50.50000000000001
 20
148
 30
0
 11
48.00000000000001
 21
147.5837153422272
 31
0
 12
48.00000000000001
 22
148.4162846577728
 32
0
 13
48.00000000000001
 23
148.4162846577728
 33
0
  0
ENDBLK
  5
65
330
63
100
AcDbEntity
  8
0
100
AcDbBlockEnd
  0
BLOCK
  5
67
330
66
100
AcDbEntity
  8
0
100
AcDbBlockBegin
  2
*D5
 70
    1
 10
0
 20
0
  3
*D5
  1

  0
LINE
  5
A5
100
AcDbEntity
  8
measurement
  6
ByBlock
 62
    0
370
   -2
100
AcDbLine
 10
6.875
 20
115
 11
-21.25
 21
115
  0
LINE
  5
A6
100
AcDbEntity
  8
measurement
  6
ByBlock
 62
    0
370
   -2
100
AcDbLine
 10
6.875
 20
85
 11
-21.25
 21
85
  0
LINE
  5
A7
100
AcDbEntity
  8
measurement
  6
ByBlock
 62
    0
370
   -2
100
AcDbLine
 10
-20
 20
115
 11
-20
 21
85
  0
MTEXT
  5
A8
100
AcDbEntity
  8
measurement
  6
CONTINUOUS
 62
    0
370
   -2
100
AcDbMText
 10
-21.875
 20
100
 30
0
 40
2.5
 41
7.777777777777933
 71
    5
 72
    1
  1
30.00
  7
standard
210
0
220
0
230
1
 50
90
 73
    2
 44
1
  0
SOLID
  5
A9
100
AcDbEntity
  8
measurement
  6
ByBlock
 62
    0
370
   -2
100
AcDbTrace
 10
-20
 20
115
 30
0
 11
-19.58371534222716
 21
112.5
 31
0
 12
-20.41628465777284
 22
112.5
 32
0
 13
-20.41628465777284
 23
112.5
 33
0
  0
SOLID
  5
AA
100
AcDbEntity
  8
measurement
  6
ByBlock
 62
    0
370
   -2
100
AcDbTrace
 10
-20
 20
85
 30
0
 11
-20.41628465777284
 21
87.5
 31
0
 12
-19.58371534222716
 22
87.5
 32
0
 13
-19.58371534222716
 23
87.5
 33
0
  0
ENDBLK
  5
68
330
66
100
AcDbEntity
  8
0
100
AcDbBlockEnd
  0
BLOCK
  5
6A
330
69
100
AcDbEntity
  8
0
100
AcDbBlockBegin
  2
*D11
 70
    1
 10
0
 20
0
  3
*D11
  1

  0
LINE
  5
AB
100
AcDbEntity
  8
measurement
  6
ByBlock
 62
    0
370
   -2
100
AcDbLine
 10
235.625
 20
13
 11
271.25
 21
13
  0
LINE
  5
AC
100
AcDbEntity
  8
measurement
  6
ByBlock
 62
    0
370
   -2
100
AcDbLine
 10
235.625
 20
15
 11
271.25
 21
15
  0
LINE
  5
AD
100
AcDbEntity
  8
measurement
  6
ByBlock
 62
    0
370
   -2
100
AcDbLine
 10
270
 20
8
 11
270
 21
20
  0
MTEXT
  5
AE
100
AcDbEntity
  8
measurement
  6
CONTINUOUS
 62
    0
370
   -2
100
AcDbMText
 10
268.125
 20
18.54166666666667
 30
0
 40
2.5
 41
5.833333333333334
 71
    5
 72
    1
  1
2.00
  7
standard
210
0
220
0
230
1
 50
90
 73
    2
 44
1
  0
SOLID
  5
AF
100
AcDbEntity
  8
measurement
  6
ByBlock
 62
    0
370
   -2
100
AcDbTrace
 10
270
 20
13
 30
0
 11
270.4162846577728
 21
10.5
 31
0
 12
269.5837153422272
 22
10.5
 32
0
 13
269.5837153422272
 23
10.5
 33
0
  0
SOLID
  5
B0
100
AcDbEntity
  8
measurement
  6
ByBlock
 62
    0
370
   -2
100
AcDbTrace
 10
270
 20
15
 30
0
 11
269.5837153422272
 21
17.5
 31
0
 12
270.4162846577728
 22
17.5
 32
0
 13
270.4162846577728
 23
17.5
 33
0
  0
ENDBLK
  5
6B
330
69
100
AcDbEntity
  8
0
100
AcDbBlockEnd
  0
BLOCK
  5
6D
330
6C
100
AcDbEntity
  8
0
100
AcDbBlockBegin
  2
*D4
 70
    1
 10
0
 20
0
  3
*D4
  1

  0
LINE
  5
B1
100
AcDbEntity
  8
measurement
  6
ByBlock
 62
    0
370
   -2
100
AcDbLine
 10
-7.724921684607487e-08
 20
125.625
 11
-1.56043416501405e-05
 21
251.2499987640106
  0
LINE
  5
B2
100
AcDbEntity
  8
measurement
  6
ByBlock
 62
    0
370
   -2
100
AcDbLine
 10
14.99999992275078
 20
125.6250018539812
 11
14.99998439565835
 21
251.2500006179918
  0
LINE
  5
B3
100
AcDbEntity
  8
measurement
  6
ByBlock
 62
    0
370
   -2
100
AcDbLine
 10
-1.544984321644835e-05
 20
249.9999987640106
 11
14.99998455015678
 21
250.0000006179918
  0
MTEXT
  5
B4
100
AcDbEntity
  8
measurement
  6
CONTINUOUS
 62
    0
370
   -2
100
AcDbMText
 10
7.499984318409499
 20
251.8749996910012
 30
0
 40
2.5
 41
7.222222222222378
 71
    5
 72
    1
  1
15.00
  7
standard
210
0
220
0
230
1
 50
7.081686595228613e-06
 73
    2
 44
1
  0
SOLID
  5
B5
100
AcDbEntity
  8
measurement
  6
ByBlock
 62
    0
370
   -2
100
AcDbTrace
 10
-1.544984321644835e-05
 20
249.9999987640106
 30
0
 11
2.499984498704503
 21
250.4162837307803
 31
0
 12
2.499984601609027
 22
249.5837144152346
 32
0
 13
2.499984601609027
 23
249.5837144152346
 33
0
  0
SOLID
  5
B6
100
AcDbEntity
  8
measurement
  6
ByBlock
 62
    0
370
   -2
100
AcDbTrace
 10
14.99998455015678
 20
250.0000006179918
 30
0
 11
12.49998460160906
 21
249.5837156512221
 31
0
 12
12.49998449870454
 22
250.4162849667678
 32
0
 13
12.49998449870454
 23
250.4162849667678
 33
0
  0
ENDBLK
  5
6E
330
6C
100
AcDbEntity
  8
0
100
AcDbBlockEnd
  0
BLOCK
  5
70
330
6F
100
AcDbEntity
  8
0
100
AcDbBlockBegin
  2
*D12
 70
    1
 10
0
 20
0
  3
*D12
  1

  0
LINE
  5
B7
100
AcDbEntity
  8
measurement
  6
ByBlock
 62
    0
370
   -2
100
AcDbLine
 10
142
 20
7.125000000000005
 11
142
 21
30.25
  0
LINE
  5
B8
100
AcDbEntity
  8
measurement
  6
ByBlock
 62
    0
370
   -2
100
AcDbLine
 10
176
 20
7.125000000000005
 11
176
 21
30.25
  0
LINE
  5
B9
100
AcDbEntity
  8
measurement
  6
ByBlock
 62
    0
370
   -2
100
AcDbLine
 10
142
 20
29
 11
176
 21
29
  0
MTEXT
  5
BA
100
AcDbEntity
  8
measurement
  6
CONTINUOUS
 62
    0
370
   -2
100
AcDbMText
 10
159
 20
30.875
 30
0
 40
2.5
 41
8.05555555555571
 71
    5
 72
    1
  1
34.00
  7
standard
210
0
220
0
230
1
 50
0
 73
    2
 44
1
  0
SOLID
  5
BB
100
AcDbEntity
  8
measurement
  6
ByBlock
 62
    0
370
   -2
100
AcDbTrace
 10
142
 20
29
 30
0
 11
144.5
 21
29.41628465777284
 31
0
 12
144.5
 22
28.58371534222716
 32
0
 13
144.5
 23
28.58371534222716
 33
0
  0
SOLID
  5
BC
100
AcDbEntity
  8
measurement
  6
ByBlock
 62
    0
370
   -2
100
AcDbTrace
 10
176
 20
29
 30
0
 11
173.5
 21
28.58371534222716
 31
0
 12
173.5
 22
29.41628465777284
 32
0
 13
173.5
 23
29.41628465777284
 33
0
  0
ENDBLK
  5
71
330
6F
100
AcDbEntity
  8
0
100
AcDbBlockEnd
  0
BLOCK
  5
73
330
72
100
AcDbEntity
  8
0
100
AcDbBlockBegin
  2
*D9
 70
    1
 10
0
 20
0
  3
*D9
  1

  0
LINE
  5
BD
100
AcDbEntity
  8
measurement
  6
ByBlock
 62
    0
370
   -2
100
AcDbLine
 10
220
 20
14.375
 11
220
 21
-22.25
  0
LINE
  5
BE
100
AcDbEntity
  8
measurement
  6
ByBlock
 62
    0
370
   -2
100
AcDbLine
 10
235
 20
14.375
 11
235
 21
-22.25
  0
LINE
  5
BF
100
AcDbEntity
  8
measurement
  6
ByBlock
 62
    0
370
   -2
100
AcDbLine
 10
220
 20
-21
 11
235
 21
-21
  0
MTEXT
  5
C0
100
AcDbEntity
  8
measurement
  6
CONTINUOUS
 62
    0
370
   -2
100
AcDbMText
 10
227.5
 20
-19.125
 30
0
 40
2.5
 41
7.222222222222378
 71
    5
 72
    1
  1
15.00
  7
standard
210
0
220
0
230
1
 50
0
 73
    2
 44
1
  0
SOLID
  5
C1
100
AcDbEntity
  8
measurement
  6
ByBlock
 62
    0
370
   -2
100
AcDbTrace
 10
220
 20
-21
 30
0
 11
222.5
 21
-20.58371534222716
 31
0
 12
222.5
 22
-21.41628465777284
 32
0
 13
222.5
 23
-21.41628465777284
 33
0
  0
SOLID
  5
C2
100
AcDbEntity
  8
measurement
  6
ByBlock
 62
    0
370
   -2
100
AcDbTrace
 10
235
 20
-21
 30
0
 11
232.5
 21
-21.41628465777284
 31
0
 12
232.5
 22
-20.58371534222716
 32
0
 13
232.5
 23
-20.58371534222716
 33
0
  0
ENDBLK
  5
74
330
72
100
AcDbEntity
  8
0
100
AcDbBlockEnd
  0
BLOCK
  5
76
330
75
100
AcDbEntity
  8
0
100
AcDbBlockBegin
  2
*D10
 70
    1
 10
0
 20
0
  3
*D10
  1

  0
LINE
  5
C3
100
AcDbEntity
  8
measurement
  6
ByBlock
 62
    0
370
   -2
100
AcDbLine
 10
220.625
 20
-2
 11
271.2500000000001
 21
-2
  0
LINE
  5
C4
100
AcDbEntity
  8
measurement
  6
ByBlock
 62
    0
370
   -2
100
AcDbLine
 10
220.625
 20
13
 11
271.2500000000001
 21
13
  0
LINE
  5
C5
100
AcDbEntity
  8
measurement
  6
ByBlock
 62
    0
370
   -2
100
AcDbLine
 10
270.0000000000001
 20
-2
 11
270.0000000000001
 21
13
  0
MTEXT
  5
C6
100
AcDbEntity
  8
measurement
  6
CONTINUOUS
 62
    0
370
   -2
100
AcDbMText
 10
268.1250000000001
 20
5.5
 30
0
 40
2.5
 41
7.222222222222378
 71
    5
 72
    1
  1
15.00
  7
standard
210
0
220
0
230
1
 50
90
 73
    2
 44
1
  0
SOLID
  5
C7
100
AcDbEntity
  8
measurement
  6
ByBlock
 62
    0
370
   -2
100
AcDbTrace
 10
270.0000000000001
 20
-2
 30
0
 11
269.5837153422273
 21
0.5
 31
0
 12
270.416284657773
 22
0.5
 32
0
 13
270.416284657773
 23
0.5
 33
0
  0
SOLID
  5
C8
100
AcDbEntity
  8
measurement
  6
ByBlock
 62
    0
370
   -2
100
AcDbTrace
 10
270.0000000000001
 20
13
 30
0
 11
270.416284657773
 21
10.5
 31
0
 12
269.5837153422273
 22
10.5
 32
0
 13
269.5837153422273
 23
10.5
 33
0
  0
ENDBLK
  5
77
330
75
100
AcDbEntity
  8
0
100
AcDbBlockEnd
  0
BLOCK
  5
79
330
78
100
AcDbEntity
  8
0
100
AcDbBlockBegin
  2
*D14
 70
    1
 10
0
 20
0
  3
*D14
  1

  0
LINE
  5
C9
100
AcDbEntity
  8
measurement
  6
ByBlock
 62
    0
370
   -2
100
AcDbLine
 10
125.625
 20
125
 11
271.25
 21
125
  0
LINE
  5
CA
100
AcDbEntity
  8
measurement
  6
ByBlock
 62
    0
370
   -2
100
AcDbLine
 10
125.625
 20
235
 11
271.25
 21
235
  0
LINE
  5
CB
100
AcDbEntity
  8
measurement
  6
ByBlock
 62
    0
370
   -2
100
AcDbLine
 10
270
 20
125
 11
270
 21
235
  0
MTEXT
  5
CC
100
AcDbEntity
  8
measurement
  6
CONTINUOUS
 62
    0
370
   -2
100
AcDbMText
 10
268.125
 20
180
 30
0
 40
2.5
 41
8.611111111111111
 71
    5
 72
    1
  1
110.00
  7
standard
210
0
220
0
230
1
 50
90
 73
    2
 44
1
  0
SOLID
  5
CD
100
AcDbEntity
  8
measurement
  6
ByBlock
 62
    0
370
   -2
100
AcDbTrace
 10
270
 20
125
 30
0
 11
269.5837153422272
 21
127.5
 31
0
 12
270.4162846577728
 22
127.5
 32
0
 13
270.4162846577728
 23
127.5
 33
0
  0
SOLID
  5
CE
100
AcDbEntity
  8
measurement
  6
ByBlock
 62
    0
370
   -2
100
AcDbTrace
 10
270
 20
235
 30
0
 11
270.4162846577728
 21
232.5
 31
0
 12
269.5837153422272
 22
232.5
 32
0
 13
269.5837153422272
 23
232.5
 33
0
  0
ENDBLK
  5
7A
330
78
100
AcDbEntity
  8
0
100
AcDbBlockEnd
  0
ENDSEC
  0
SECTION
  2
ENTITIES
  0
ARC
  5
CF
100
AcDbEntity
  8
0
  6
ByLayer
 62
  256
370
   -1
100
AcDbCircle
 10
125
 20
125
 40
110
100
AcDbArc
 50
0
 51
180
  0
LINE
  5
D0
100
AcDbEntity
  8
reference
  6
CENTER
 62
  256
370
    5
100
AcDbLine
 10
15
 20
125
 11
235
 21
125
  0
LINE
  5
D1
100
AcDbEntity
  8
reference
  6
ByLayer
 62
  256
370
   -1
100
AcDbLine
 10
125
 20
0
 11
125
 21
235
  0
CIRCLE
  5
D2
100
AcDbEntity
  8
0
  6
ByLayer
 62
  256
370
   -1
100
AcDbCircle
 10
147.5
 20
130
 40
7.5
  0
ARC
  5
D3
100
AcDbEntity
  8
reference
  6
ByLayer
 62
  256
370
   -1
100
AcDbCircle
 10
147.5
 20
130
 40
67.5
100
AcDbArc
 50
338.262
 51
338.262
  0
CIRCLE
  5
D4
100
AcDbEntity
  8
reference
  6
ByLayer
 62
  256
370
   -1
100
AcDbCircle
 10
56.65
 20
70
 40
33.35
  0
CIRCLE
  5
D5
100
AcDbEntity
  8
reference
  6
ByLayer
 62
  256
370
   -1
100
AcDbCircle
 10
56.65
 20
70
 40
11.25
  0
CIRCLE
  5
D6
100
AcDbEntity
  8
0
  6
ByLayer
 62
  256
370
   -1
100
AcDbCircle
 10
45
 20
160
 40
5.5
  0
DIMENSION
  5
D7
100
AcDbEntity
  8
measurement
  6
ByLayer
 62
  256
370
   -1
100
AcDbDimension
  2
*D1
 10
234.9999989466016
 20
250.0000000421359
 30
0
 11
124.9999989308007
 21
251.8749991151454
 31
0
 70
   33
 71
    5
 72
    0
  3
Standard
 53
0
210
0
220
0
230
1
100
AcDbAlignedDimension
 13
15.00000000000001
 23
124.9999981460189
 33
0
 14
235
 24
125
 34
0
  0
DIMENSION
  5
D8
100
AcDbEntity
  8
measurement
  6
ByLayer
 62
  256
370
   -1
100
AcDbDimension
  2
*D2
 10
155
 20
113
 30
0
 11
147.5
 21
114.875
 31
0
 70
   33
 71
    5
 72
    0
  3
Standard
 53
0
210
0
220
0
230
1
100
AcDbAlignedDimension
 13
140
 23
130
 33
0
 14
155
 24
130
 34
0
  0
DIMENSION
  5
D9
100
AcDbEntity
  8
measurement
  6
ByLayer
 62
  256
370
   -1
100
AcDbDimension
  2
*D3
 10
50.50000000000001
 20
148
 30
0
 11
45
 21
149.875
 31
0
 70
   33
 71
    5
 72
    0
  3
Standard
 53
0
210
0
220
0
230
1
100
AcDbAlignedDimension
 13
39.5
 23
160.1
 33
0
 14
50.50000000000001
 24
160.1
 34
0
  0
DIMENSION
  5
DA
100
AcDbEntity
  8
measurement
  6
ByLayer
 62
  256
370
   -1
100
AcDbDimension
  2
*D4
 10
14.99998455015679
 20
250.0000006179918
 30
0
 11
7.499984318409499
 21
251.8749996910012
 31
0
 70
   33
 71
    5
 72
    0
  3
Standard
 53
0
210
0
220
0
230
1
100
AcDbAlignedDimension
 13
0
 23
125
 33
0
 14
15
 24
125.0000018539812
 34
0
  0
DIMENSION
  5
DB
100
AcDbEntity
  8
measurement
  6
ByLayer
 62
  256
370
   -1
100
AcDbDimension
  2
*D5
 10
-20
 20
85
 30
0
 11
-21.875
 21
100
 31
0
 70
   33
 71
    5
 72
    0
  3
Standard
 53
0
210
0
220
0
230
1
100
AcDbAlignedDimension
 13
7.5
 23
115
 33
0
 14
7.5
 24
85
 34
0
  0
DIMENSION
  5
DC
100
AcDbEntity
  8
measurement
  6
ByLayer
 62
  256
370
   -1
100
AcDbDimension
  2
*D6
 10
-30
 20
15
 30
0
 11
-31.875
 21
70.00000000000001
 31
0
 70
   33
 71
    5
 72
    0
  3
Standard
 53
0
210
0
220
0
230
1
100
AcDbAlignedDimension
 13
0
 23
125
 33
0
 14
0
 24
15
 34
0
  0
DIMENSION
  5
DD
100
AcDbEntity
  8
measurement
  6
ByLayer
 62
  256
370
   -1
100
AcDbDimension
  2
*D7
 10
30
 20
-21
 30
0
 11
22.49999999999999
 21
-19.125
 31
0
 70
   33
 71
    5
 72
    0
  3
Standard
 53
0
210
0
220
0
230
1
100
AcDbAlignedDimension
 13
15
 23
15
 33
0
 14
30
 24
15
 34
0
  0
DIMENSION
  5
DE
100
AcDbEntity
  8
measurement
  6
ByLayer
 62
  256
370
   -1
100
AcDbDimension
  2
*D8
 10
220
 20
-21
 30
0
 11
125
 21
-19.125
 31
0
 70
   33
 71
    5
 72
    0
  3
Standard
 53
0
210
0
220
0
230
1
100
AcDbAlignedDimension
 13
30
 23
0
 33
0
 14
220
 24
0
 34
0
  0
DIMENSION
  5
DF
100
AcDbEntity
  8
measurement
  6
ByLayer
 62
  256
370
   -1
100
AcDbDimension
  2
*D9
 10
235
 20
-21
 30
0
 11
227.5
 21
-19.125
 31
0
 70
   33
 71
    5
 72
    0
  3
Standard
 53
0
210
0
220
0
230
1
100
AcDbAlignedDimension
 13
220
 23
15
 33
0
 14
235
 24
15
 34
0
  0
LINE
  5
E0
100
AcDbEntity
  8
0
  6
CONTINUOUS
 62
  256
370
   50
100
AcDbLine
 10
-2
 20
15
 11
-2
 21
125
  0
LINE
  5
E1
100
AcDbEntity
  8
0
  6
CONTINUOUS
 62
  256
370
   50
100
AcDbLine
 10
-2
 20
125
 11
15
 21
125
  0
LINE
  5
E2
100
AcDbEntity
  8
0
  6
CONTINUOUS
 62
  256
370
   50
100
AcDbLine
 10
15
 20
15
 11
-2
 21
15
  0
LINE
  5
E3
100
AcDbEntity
  8
fold
  6
DASHED
 62
  256
370
    5
100
AcDbLine
 10
14
 20
125
 11
14
 21
15
  0
LINE
  5
E4
100
AcDbEntity
  8
0
  6
CONTINUOUS
 62
  256
370
   50
100
AcDbLine
 10
30
 20
-2
 11
15
 21
13
  0
LINE
  5
E5
100
AcDbEntity
  8
0
  6
CONTINUOUS
 62
  256
370
   50
100
AcDbLine
 10
30
 20
-2
 11
220
 21
-2
  0
LINE
  5
E6
100
AcDbEntity
  8
0
  6
CONTINUOUS
 62
  256
370
   50
100
AcDbLine
 10
235
 20
13
 11
220
 21
-2
  0
LINE
  5
E7
100
AcDbEntity
  8
0
  6
ByLayer
 62
  256
370
   -1
100
AcDbLine
 10
235
 20
13
 11
235
 21
15
  0
LINE
  5
E8
100
AcDbEntity
  8
fold
  6
DASHED
 62
  256
370
    5
100
AcDbLine
 10
15
 20
14
 11
235
 21
14
  0
LINE
  5
E9
100
AcDbEntity
  8
0
  6
ByLayer
 62
  256
370
   -1
100
AcDbLine
 10
15
 20
13
 11
15
 21
15
  0
LINE
  5
EA
100
AcDbEntity
  8
0
  6
CONTINUOUS
 62
  256
370
   50
100
AcDbLine
 10
252
 20
15
 11
252
 21
125
  0
LINE
  5
EB
100
AcDbEntity
  8
0
  6
CONTINUOUS
 62
  256
370
   50
100
AcDbLine
 10
252
 20
125
 11
235
 21
125
  0
LINE
  5
EC
100
AcDbEntity
  8
0
  6
CONTINUOUS
 62
  256
370
   50
100
AcDbLine
 10
235
 20
15
 11
252
 21
15
  0
LINE
  5
ED
100
AcDbEntity
  8
fold
  6
DASHED
 62
  256
370
    5
100
AcDbLine
 10
236
 20
125
 11
236
 21
15
  0
DIMENSION
  5
EE
100
AcDbEntity
  8
measurement
  6
ByLayer
 62
  256
370
   -1
100
AcDbDimension
  2
*D10
 10
270.0000000000001
 20
13
 30
0
 11
268.1250000000001
 21
5.5
 31
0
 70
   33
 71
    5
 72
    0
  3
Standard
 53
0
210
0
220
0
230
1
100
AcDbAlignedDimension
 13
220
 23
-2
 33
0
 14
220
 24
13
 34
0
  0
DIMENSION
  5
EF
100
AcDbEntity
  8
measurement
  6
ByLayer
 62
  256
370
   -1
100
AcDbDimension
  2
*D11
 10
270
 20
15
 30
0
 11
268.125
 21
14
 31
0
 70
   33
 71
    5
  3
Standard
 53
0
210
0
220
0
230
1
100
AcDbAlignedDimension
 13
235
 23
13
 33
0
 14
235
 24
15
 34
0
  0
DIMENSION
  5
F0
100
AcDbEntity
  8
measurement
  6
ByLayer
 62
  256
370
   -1
100
AcDbDimension
  2
*D12
 10
176
 20
29
 30
0
 11
159
 21
30.875
 31
0
 70
   33
 71
    5
 72
    0
  3
Standard
 53
0
210
0
220
0
230
1
100
AcDbAlignedDimension
 13
142
 23
6.500000000000005
 33
0
 14
176
 24
6.500000000000005
 34
0
  0
DIMENSION
  5
F1
100
AcDbEntity
  8
measurement
  6
ByLayer
 62
  256
370
   -1
100
AcDbDimension
  2
*D13
 10
127.5
 20
219
 30
0
 11
125
 21
220.875
 31
0
 70
   33
 71
    5
 72
    0
  3
Standard
 53
0
210
0
220
0
230
1
100
AcDbAlignedDimension
 13
122.5
 23
227.5
 33
0
 14
127.5
 24
227.5
 34
0
  0
DIMENSION
  5
F2
100
AcDbEntity
  8
measurement
  6
ByLayer
 62
  256
370
   -1
100
AcDbDimension
  2
*D14
 10
270
 20
235
 30
0
 11
268.125
 21
180
 31
0
 70
   33
 71
    5
 72
    0
  3
Standard
 53
0
210
0
220
0
230
1
100
AcDbAlignedDimension
 13
125
 23
125
 33
0
 14
125
 24
235
 34
0
  0
CIRCLE
  5
F3
100
AcDbEntity
  8
screw
  6
ByLayer
 62
  256
370
   -1
100
AcDbCircle
 10
5.5
 20
115
 40
2.5
  0
CIRCLE
  5
F4
100
AcDbEntity
  8
screw
  6
ByLayer
 62
  256
370
   -1
100
AcDbCircle
 10
5.5
 20
85
 40
2.5
  0
CIRCLE
  5
F5
100
AcDbEntity
  8
screw
  6
ByLayer
 62
  256
370
   -1
100
AcDbCircle
 10
5.5
 20
55
 40
2.5
  0
CIRCLE
  5
F6
100
AcDbEntity
  8
screw
  6
ByLayer
 62
  256
370
   -1
100
AcDbCircle
 10
5.5
 20
25
 40
2.5
  0
CIRCLE
  5
F7
100
AcDbEntity
  8
screw
  6
ByLayer
 62
  256
370
   -1
100
AcDbCircle
 10
40
 20
5.5
 40
2.5
  0
CIRCLE
  5
F8
100
AcDbEntity
  8
screw
  6
ByLayer
 62
  256
370
   -1
100
AcDbCircle
 10
74
 20
5.5
 40
2.5
  0
CIRCLE
  5
F9
100
AcDbEntity
  8
screw
  6
ByLayer
 62
  256
370
   -1
100
AcDbCircle
 10
108
 20
6.5
 40
2.5
  0
CIRCLE
  5
FA
100
AcDbEntity
  8
screw
  6
ByLayer
 62
  256
370
   -1
100
AcDbCircle
 10
142
 20
5.5
 40
2.5
  0
CIRCLE
  5
FB
100
AcDbEntity
  8
screw
  6
ByLayer
 62
  256
370
   -1
100
AcDbCircle
 10
176
 20
5.5
 40
2.5
  0
CIRCLE
  5
FC
100
AcDbEntity
  8
screw
  6
ByLayer
 62
  256
370
   -1
100
AcDbCircle
 10
210
 20
5.5
 40
2.5
  0
CIRCLE
  5
FD
100
AcDbEntity
  8
screw
  6
ByLayer
 62
  256
370
   -1
100
AcDbCircle
 10
244.5
 20
115
 40
2.5
  0
CIRCLE
  5
FE
100
AcDbEntity
  8
screw
  6
ByLayer
 62
  256
370
   -1
100
AcDbCircle
 10
244.5
 20
85
 40
2.5
  0
CIRCLE
  5
FF
100
AcDbEntity
  8
screw
  6
ByLayer
 62
  256
370
   -1
100
AcDbCircle
 10
244.5
 20
55
 40
2.5
  0
CIRCLE
  5
100
100
AcDbEntity
  8
screw
  6
ByLayer
 62
  256
370
   -1
100
AcDbCircle
 10
244.5
 20
25
 40
2.5
  0
CIRCLE
  5
101
100
AcDbEntity
  8
screw
  6
ByLayer
 62
  256
370
   -1
100
AcDbCircle
 10
125
 20
227.5
 40
2.5
  0
ARC
  5
102
100
AcDbEntity
  8
reference
  6
ByLayer
 62
  256
370
   -1
100
AcDbCircle
 10
125
 20
125
 40
102.5
100
AcDbArc
 50
90
 51
138.1805
  0
CIRCLE
  5
103
100
AcDbEntity
  8
screw
  6
ByLayer
 62
  256
370
   -1
100
AcDbCircle
 10
48.61196628831902
 20
193.3455800009268
 40
2.5
  0
ARC
  5
104
100
AcDbEntity
  8
reference
  6
ByLayer
 62
  256
370
   -1
100
AcDbCircle
 10
125
 20
125
 40
102.5
100
AcDbArc
 50
41.81950000000001
 51
90
  0
CIRCLE
  5
105
100
AcDbEntity
  8
screw
  6
ByLayer
 62
  256
370
   -1
100
AcDbCircle
 10
201.388033711681
 20
193.3455800009268
 40
2.5
  0
ENDSEC
  0
SECTION
  2
OBJECTS
  0
DICTIONARY
  5
C
330
0
100
AcDbDictionary
281
    1
  3
ACAD_GROUP
350
D
  0
DICTIONARY
  5
D
330
C
100
AcDbDictionary
281
    1
  0
PLOTSETTINGS
  5
106
100
AcDbPlotSettings
  6
1x1
 40
2.96
 41
12.7
 42
2.96
 43
2.96
  0
ENDSEC
  0
EOF
