999
dxfrw 0.6.3
  0
SECTION
  2
HEADER
  9
$ACADVER
  1
AC1021
  9
$DWGCODEPAGE
  3
ANSI_1252
  9
$INSBASE
 10
0
 20
0
 30
0
  9
$EXTMIN
 10
-2
 20
-6.000000000000014
 30
0
  9
$EXTMAX
 10
421.4000000000001
 20
205
 30
0
  9
$LIMMIN
 10
0
 20
0
  9
$LIMMAX
 10
420
 20
297
  9
$ORTHOMODE
 70
    0
  9
$REGENMODE
 70
    1
  9
$FILLMODE
 70
    1
  9
$QTEXTMODE
 70
    0
  9
$MIRRTEXT
 70
    0
  9
$LTSCALE
 40
1
  9
$ATTMODE
 70
    0
  9
$TEXTSIZE
 40
2.5
  9
$TRACEWID
 40
15.68
  9
$TEXTSTYLE
  7
STANDARD
  9
$CLAYER
  8
screw
  9
$CELTYPE
  6
BYLAYER
  9
$CECOLOR
 62
  256
  9
$CELTSCALE
 40
1
  9
$DISPSILH
 70
    0
  9
$DIMSCALE
 40
1
  9
$DIMASZ
 40
2.5
  9
$DIMEXO
 40
0.625
  9
$DIMDLI
 40
3.75
  9
$DIMRND
 40
0
  9
$DIMDLE
 40
0
  9
$DIMEXE
 40
1.25
  9
$DIMTP
 40
0
  9
$DIMTM
 40
0
  9
$DIMTXT
 40
2.5
  9
$DIMCEN
 40
2.5
  9
$DIMTSZ
 40
0
  9
$DIMTOL
 70
    0
  9
$DIMLIM
 70
    0
  9
$DIMTIH
 70
    0
  9
$DIMTOH
 70
    0
  9
$DIMSE1
 70
    0
  9
$DIMSE2
 70
    0
  9
$DIMTAD
 70
    1
  9
$DIMZIN
 70
    1
  9
$DIMBLK
  1

  9
$DIMASO
 70
    1
  9
$DIMSHO
 70
    1
  9
$DIMPOST
  1

  9
$DIMAPOST
  1

  9
$DIMALT
 70
    0
  9
$DIMALTD
 70
    3
  9
$DIMALTF
 40
0.03937
  9
$DIMLFAC
 40
1
  9
$DIMTOFL
 70
    1
  9
$DIMTVP
 40
0
  9
$DIMTIX
 70
    0
  9
$DIMSOXD
 70
    0
  9
$DIMSAH
 70
    0
  9
$DIMBLK1
  1

  9
$DIMBLK2
  1

  9
$DIMSTYLE
  2
STANDARD
  9
$DIMCLRD
 70
    0
  9
$DIMCLRE
 70
    0
  9
$DIMCLRT
 70
    0
  9
$DIMTFAC
 40
1
  9
$DIMGAP
 40
0.625
  9
$DIMJUST
 70
    0
  9
$DIMSD1
 70
    0
  9
$DIMSD2
 70
    0
  9
$DIMTOLJ
 70
    0
  9
$DIMTZIN
 70
    8
  9
$DIMALTZ
 70
    0
  9
$DIMALTTZ
 70
    0
  9
$DIMUPT
 70
    0
  9
$DIMDEC
 70
    2
  9
$DIMTDEC
 70
    2
  9
$DIMALTU
 70
    2
  9
$DIMALTTD
 70
    3
  9
$DIMTXSTY
  7
standard
  9
$DIMAUNIT
 70
    0
  9
$DIMADEC
 70
    2
  9
$DIMALTRND
 40
0
  9
$DIMAZIN
 70
    0
  9
$DIMDSEP
 70
    0
  9
$DIMATFIT
 70
    3
  9
$DIMFRAC
 70
    0
  9
$DIMLDRBLK
  1
STANDARD
  9
$DIMLUNIT
 70
    2
  9
$DIMLWD
 70
   -2
  9
$DIMLWE
 70
   -2
  9
$DIMTMOVE
 70
    0
  9
$DIMFXL
 40
1
  9
$DIMFXLON
 70
    0
  9
$DIMJOGANG
 40
0.7854
  9
$DIMTFILL
 70
    0
  9
$DIMTFILLCLR
 70
    0
  9
$DIMARCSYM
 70
    0
  9
$DIMLTYPE
  6

  9
$DIMLTEX1
  6

  9
$DIMLTEX2
  6

  9
$LUNITS
 70
    2
  9
$LUPREC
 70
    2
  9
$SKETCHINC
 40
1
  9
$FILLETRAD
 40
0
  9
$AUNITS
 70
    0
  9
$AUPREC
 70
    2
  9
$MENU
  1
.
  9
$ELEVATION
 40
0
  9
$PELEVATION
 40
0
  9
$THICKNESS
 40
0
  9
$LIMCHECK
 70
    0
  9
$CHAMFERA
 40
0
  9
$CHAMFERB
 40
0
  9
$CHAMFERC
 40
0
  9
$CHAMFERD
 40
0
  9
$SKPOLY
 70
    0
  9
$USRTIMER
 70
    1
  9
$ANGBASE
 50
0
  9
$ANGDIR
 70
    0
  9
$PDMODE
 70
   96
  9
$PDSIZE
 40
-2
  9
$PLINEWID
 40
0
  9
$SPLFRAME
 70
    0
  9
$SPLINETYPE
 70
    2
  9
$SPLINESEGS
 70
    8
  9
$HANDSEED
  5
20000
  9
$SURFTAB1
 70
    6
  9
$SURFTAB2
 70
    6
  9
$SURFTYPE
 70
    6
  9
$SURFU
 70
    6
  9
$SURFV
 70
    6
  9
$UCSBASE
  2

  9
$UCSNAME
  2

  9
$UCSORG
 10
0
 20
0
 30
0
  9
$UCSXDIR
 10
1
 20
0
 30
0
  9
$UCSYDIR
 10
0
 20
1
 30
0
  9
$UCSORTHOREF
  2

  9
$UCSORTHOVIEW
 70
    0
  9
$UCSORGTOP
 10
0
 20
0
 30
0
  9
$UCSORGBOTTOM
 10
0
 20
0
 30
0
  9
$UCSORGLEFT
 10
0
 20
0
 30
0
  9
$UCSORGRIGHT
 10
0
 20
0
 30
0
  9
$UCSORGFRONT
 10
0
 20
0
 30
0
  9
$UCSORGBACK
 10
0
 20
0
 30
0
  9
$PUCSBASE
  2

  9
$PUCSNAME
  2

  9
$PUCSORG
 10
0
 20
0
 30
0
  9
$PUCSXDIR
 10
1
 20
0
 30
0
  9
$PUCSYDIR
 10
0
 20
1
 30
0
  9
$PUCSORTHOREF
  2

  9
$PUCSORTHOVIEW
 70
    0
  9
$PUCSORGTOP
 10
0
 20
0
 30
0
  9
$PUCSORGBOTTOM
 10
0
 20
0
 30
0
  9
$PUCSORGLEFT
 10
0
 20
0
 30
0
  9
$PUCSORGRIGHT
 10
0
 20
0
 30
0
  9
$PUCSORGFRONT
 10
0
 20
0
 30
0
  9
$PUCSORGBACK
 10
0
 20
0
 30
0
  9
$USERI1
 70
    0
  9
$USERI2
 70
    0
  9
$USERI3
 70
    0
  9
$USERI4
 70
    0
  9
$USERI5
 70
    0
  9
$USERR1
 40
0
  9
$USERR2
 40
0
  9
$USERR3
 40
0
  9
$USERR4
 40
0
  9
$USERR5
 40
0
  9
$WORLDVIEW
 70
    1
  9
$SHADEDGE
 70
    3
  9
$SHADEDIF
 70
   70
  9
$TILEMODE
 70
    1
  9
$MAXACTVP
 70
   64
  9
$PINSBASE
 10
20.32241867103509
 20
62.06146326588075
 30
0
  9
$PLIMCHECK
 70
    0
  9
$PEXTMIN
 10
0
 20
0
 30
0
  9
$PEXTMAX
 10
0
 20
0
 30
0
  9
$GRIDMODE
 70
    1
  9
$SNAPSTYLE
 70
    0
  9
$GRIDUNIT
 10
0
 20
0
  9
$PLIMMIN
 10
0
 20
0
  9
$PLIMMAX
 10
297
 20
210
  9
$UNITMODE
 70
    0
  9
$VISRETAIN
 70
    1
  9
$PLINEGEN
 70
    0
  9
$PSLTSCALE
 70
    1
  9
$TREEDEPTH
 70
 3020
  9
$CMLSTYLE
  2
Standard
  9
$CMLJUST
 70
    0
  9
$CMLSCALE
 40
20
  9
$PROXYGRAPHICS
 70
    1
  9
$MEASUREMENT
 70
    1
  9
$CELWEIGHT
370
   -1
  9
$ENDCAPS
280
    0
  9
$JOINSTYLE
280
    0
  9
$LWDISPLAY
290
    0
  9
$INSUNITS
 70
    4
  9
$HYPERLINKBASE
  1

  9
$STYLESHEET
  1

  9
$XEDIT
290
    1
  9
$CEPSNTYPE
380
    0
  9
$PSTYLEMODE
290
    1
  9
$EXTNAMES
290
    1
  9
$PSVPSCALE
 40
0.5771102850061958
  9
$OLESTARTUP
290
    0
  9
$SORTENTS
280
  127
  9
$INDEXCTL
280
    0
  9
$HIDETEXT
280
    1
  9
$XCLIPFRAME
290
    0
  9
$HALOGAP
280
    0
  9
$OBSCOLOR
 70
  257
  9
$OBSLTYPE
280
    0
  9
$INTERSECTIONDISPLAY
280
    0
  9
$INTERSECTIONCOLOR
 70
  257
  9
$DIMASSOC
280
    1
  9
$PROJECTNAME
  1

  9
$CAMERADISPLAY
290
    0
  9
$LENSLENGTH
 40
50
  9
$CAMERAHEIGHT
 40
0
  9
$STEPSPERSEC
 40
2
  9
$STEPSIZE
 40
50
  9
$3DDWFPREC
 40
2
  9
$PSOLWIDTH
 40
5
  9
$PSOLHEIGHT
 40
80
  9
$LOFTANG1
 40
1.570796326794897
  9
$LOFTANG2
 40
1.570796326794897
  9
$LOFTMAG1
 40
0
  9
$LOFTMAG2
 40
0
  9
$LOFTPARAM
 70
    7
  9
$LOFTNORMALS
280
    1
  9
$LATITUDE
 40
1
  9
$LONGITUDE
 40
1
  9
$NORTHDIRECTION
 40
0
  9
$TIMEZONE
 70
-8000
  9
$LIGHTGLYPHDISPLAY
280
    1
  9
$TILEMODELIGHTSYNCH
280
    1
  9
$SOLIDHIST
280
    1
  9
$SHOWHIST
280
    1
  9
$DWFFRAME
280
    2
  9
$DGNFRAME
280
    0
  9
$REALWORLDSCALE
290
    1
  9
$INTERFERECOLOR
 62
    1
  9
$CSHADOW
280
    0
  9
$SHADOWPLANELOCATION
 40
0
  0
ENDSEC
  0
SECTION
  2
CLASSES
  0
ENDSEC
  0
SECTION
  2
TABLES
  0
TABLE
  2
VPORT
  5
8
330
0
100
AcDbSymbolTable
 70
    1
  0
VPORT
  5
31
330
2
100
AcDbSymbolTableRecord
100
AcDbViewportTableRecord
  2
*ACTIVE
 70
    0
 10
0
 20
0
 11
1
 21
1
 12
167.5218933578869
 22
102.4598736133865
 13
0
 23
0
 14
10
 24
10
 15
10
 25
10
 16
0
 26
0
 36
1
 17
0
 27
0
 37
0
 40
275.9585929320543
 41
1.375
 42
50
 43
0
 44
0
 50
0
 51
0
 71
    0
 72
  100
 73
    1
 74
    3
 75
    0
 76
    1
 77
    0
 78
    0
281
    0
 65
    1
110
0
120
0
130
0
111
1
121
0
131
0
112
0
122
1
132
0
 79
    0
146
0
348
10020
 60
    7
 61
    5
292
1
282
    1
141
0
142
0
 63
  250
421
3358443
  0
ENDTAB
  0
TABLE
  2
LTYPE
  5
5
330
0
100
AcDbSymbolTable
 70
    4
  0
LTYPE
  5
14
330
5
100
AcDbSymbolTableRecord
100
AcDbLinetypeTableRecord
  2
ByBlock
 70
    0
  3

 72
   65
 73
    0
 40
0
  0
LTYPE
  5
15
330
5
100
AcDbSymbolTableRecord
100
AcDbLinetypeTableRecord
  2
ByLayer
 70
    0
  3

 72
   65
 73
    0
 40
0
  0
LTYPE
  5
16
330
5
100
AcDbSymbolTableRecord
100
AcDbLinetypeTableRecord
  2
Continuous
 70
    0
  3
Solid line
 72
   65
 73
    0
 40
0
  0
LTYPE
  5
32
330
5
100
AcDbSymbolTableRecord
100
AcDbLinetypeTableRecord
  2
DOT
 70
    0
  3
Dot . . . . . . . . . . . . . . . . . . . . . .
 72
   65
 73
    2
 40
6.35
 49
0
 74
    0
 49
-6.35
 74
    0
  0
LTYPE
  5
33
330
5
100
AcDbSymbolTableRecord
100
AcDbLinetypeTableRecord
  2
DOTTINY
 70
    0
  3
Dot (.15x) .....................................
 72
   65
 73
    2
 40
0.9525
 49
0
 74
    0
 49
-0.9525
 74
    0
  0
LTYPE
  5
34
330
5
100
AcDbSymbolTableRecord
100
AcDbLinetypeTableRecord
  2
DOT2
 70
    0
  3
Dot (.5x) .....................................
 72
   65
 73
    2
 40
3.175
 49
0
 74
    0
 49
-3.175
 74
    0
  0
LTYPE
  5
35
330
5
100
AcDbSymbolTableRecord
100
AcDbLinetypeTableRecord
  2
DOTX2
 70
    0
  3
Dot (2x) .  .  .  .  .  .  .  .  .  .  .  .  .
 72
   65
 73
    2
 40
12.7
 49
0
 74
    0
 49
-12.7
 74
    0
  0
LTYPE
  5
36
330
5
100
AcDbSymbolTableRecord
100
AcDbLinetypeTableRecord
  2
DASHED
 70
    0
  3
Dashed _ _ _ _ _ _ _ _ _ _ _ _ _ _ _ _ _
 72
   65
 73
    2
 40
19.05
 49
12.7
 74
    0
 49
-6.35
 74
    0
  0
LTYPE
  5
37
330
5
100
AcDbSymbolTableRecord
100
AcDbLinetypeTableRecord
  2
DASHEDTINY
 70
    0
  3
Dashed (.15x) _ _ _ _ _ _ _ _ _ _ _ _ _ _ _ _ _
 72
   65
 73
    2
 40
2.8575
 49
1.905
 74
    0
 49
-0.9525
 74
    0
  0
LTYPE
  5
38
330
5
100
AcDbSymbolTableRecord
100
AcDbLinetypeTableRecord
  2
DASHED2
 70
    0
  3
Dashed (.5x) _ _ _ _ _ _ _ _ _ _ _ _ _ _ _ _ _
 72
   65
 73
    2
 40
9.524999999999999
 49
6.35
 74
    0
 49
-3.175
 74
    0
  0
LTYPE
  5
39
330
5
100
AcDbSymbolTableRecord
100
AcDbLinetypeTableRecord
  2
DASHEDX2
 70
    0
  3
Dashed (2x) ____  ____  ____  ____  ____  ___
 72
   65
 73
    2
 40
38.09999999999999
 49
25.4
 74
    0
 49
-12.7
 74
    0
  0
LTYPE
  5
3A
330
5
100
AcDbSymbolTableRecord
100
AcDbLinetypeTableRecord
  2
DASHDOT
 70
    0
  3
Dash dot __ . __ . __ . __ . __ . __ . __ . __
 72
   65
 73
    4
 40
25.4
 49
12.7
 74
    0
 49
-6.35
 74
    0
 49
0
 74
    0
 49
-6.35
 74
    0
  0
LTYPE
  5
3B
330
5
100
AcDbSymbolTableRecord
100
AcDbLinetypeTableRecord
  2
DASHDOTTINY
 70
    0
  3
Dash dot (.15x) _._._._._._._._._._._._._._._.
 72
   65
 73
    4
 40
3.81
 49
1.905
 74
    0
 49
-0.9525
 74
    0
 49
0
 74
    0
 49
-0.9525
 74
    0
  0
LTYPE
  5
3C
330
5
100
AcDbSymbolTableRecord
100
AcDbLinetypeTableRecord
  2
DASHDOT2
 70
    0
  3
Dash dot (.5x) _._._._._._._._._._._._._._._.
 72
   65
 73
    4
 40
12.7
 49
6.35
 74
    0
 49
-3.175
 74
    0
 49
0
 74
    0
 49
-3.175
 74
    0
  0
LTYPE
  5
3D
330
5
100
AcDbSymbolTableRecord
100
AcDbLinetypeTableRecord
  2
DASHDOTX2
 70
    0
  3
Dash dot (2x) ____  .  ____  .  ____  .  ___
 72
   65
 73
    4
 40
50.8
 49
25.4
 74
    0
 49
-12.7
 74
    0
 49
0
 74
    0
 49
-12.7
 74
    0
  0
LTYPE
  5
3E
330
5
100
AcDbSymbolTableRecord
100
AcDbLinetypeTableRecord
  2
DIVIDE
 70
    0
  3
Divide ____ . . ____ . . ____ . . ____ . . ____
 72
   65
 73
    6
 40
31.75
 49
12.7
 74
    0
 49
-6.35
 74
    0
 49
0
 74
    0
 49
-6.35
 74
    0
 49
0
 74
    0
 49
-6.35
 74
    0
  0
LTYPE
  5
3F
330
5
100
AcDbSymbolTableRecord
100
AcDbLinetypeTableRecord
  2
DIVIDETINY
 70
    0
  3
Divide (.15x) __..__..__..__..__..__..__..__.._
 72
   65
 73
    6
 40
4.7625
 49
1.905
 74
    0
 49
-0.9525
 74
    0
 49
0
 74
    0
 49
-0.9525
 74
    0
 49
0
 74
    0
 49
-0.9525
 74
    0
  0
LTYPE
  5
40
330
5
100
AcDbSymbolTableRecord
100
AcDbLinetypeTableRecord
  2
DIVIDE2
 70
    0
  3
Divide (.5x) __..__..__..__..__..__..__..__.._
 72
   65
 73
    6
 40
15.875
 49
6.35
 74
    0
 49
-3.175
 74
    0
 49
0
 74
    0
 49
-3.175
 74
    0
 49
0
 74
    0
 49
-3.175
 74
    0
  0
LTYPE
  5
41
330
5
100
AcDbSymbolTableRecord
100
AcDbLinetypeTableRecord
  2
DIVIDEX2
 70
    0
  3
Divide (2x) ________  .  .  ________  .  .  _
 72
   65
 73
    6
 40
63.5
 49
25.4
 74
    0
 49
-12.7
 74
    0
 49
0
 74
    0
 49
-12.7
 74
    0
 49
0
 74
    0
 49
-12.7
 74
    0
  0
LTYPE
  5
42
330
5
100
AcDbSymbolTableRecord
100
AcDbLinetypeTableRecord
  2
BORDER
 70
    0
  3
Border __ __ . __ __ . __ __ . __ __ . __ __ .
 72
   65
 73
    6
 40
44.45
 49
12.7
 74
    0
 49
-6.35
 74
    0
 49
12.7
 74
    0
 49
-6.35
 74
    0
 49
0
 74
    0
 49
-6.35
 74
    0
  0
LTYPE
  5
43
330
5
100
AcDbSymbolTableRecord
100
AcDbLinetypeTableRecord
  2
BORDERTINY
 70
    0
  3
Border (.15x) __.__.__.__.__.__.__.__.__.__.__.
 72
   65
 73
    6
 40
6.6675
 49
1.905
 74
    0
 49
-0.9525
 74
    0
 49
1.905
 74
    0
 49
-0.9525
 74
    0
 49
0
 74
    0
 49
-0.9525
 74
    0
  0
LTYPE
  5
44
330
5
100
AcDbSymbolTableRecord
100
AcDbLinetypeTableRecord
  2
BORDER2
 70
    0
  3
Border (.5x) __.__.__.__.__.__.__.__.__.__.__.
 72
   65
 73
    6
 40
22.225
 49
6.35
 74
    0
 49
-3.175
 74
    0
 49
6.35
 74
    0
 49
-3.175
 74
    0
 49
0
 74
    0
 49
-3.175
 74
    0
  0
LTYPE
  5
45
330
5
100
AcDbSymbolTableRecord
100
AcDbLinetypeTableRecord
  2
BORDERX2
 70
    0
  3
Border (2x) ____  ____  .  ____  ____  .  ___
 72
   65
 73
    6
 40
88.89999999999999
 49
25.4
 74
    0
 49
-12.7
 74
    0
 49
25.4
 74
    0
 49
-12.7
 74
    0
 49
0
 74
    0
 49
-12.7
 74
    0
  0
LTYPE
  5
46
330
5
100
AcDbSymbolTableRecord
100
AcDbLinetypeTableRecord
  2
CENTER
 70
    0
  3
Center ____ _ ____ _ ____ _ ____ _ ____ _ ____
 72
   65
 73
    4
 40
50.8
 49
31.75
 74
    0
 49
-6.35
 74
    0
 49
6.35
 74
    0
 49
-6.35
 74
    0
  0
LTYPE
  5
47
330
5
100
AcDbSymbolTableRecord
100
AcDbLinetypeTableRecord
  2
CENTERTINY
 70
    0
  3
Center (.15x) ___ _ ___ _ ___ _ ___ _ ___ _ ___
 72
   65
 73
    4
 40
7.619999999999999
 49
4.7625
 74
    0
 49
-0.9525
 74
    0
 49
0.9525
 74
    0
 49
-0.9525
 74
    0
  0
LTYPE
  5
48
330
5
100
AcDbSymbolTableRecord
100
AcDbLinetypeTableRecord
  2
CENTER2
 70
    0
  3
Center (.5x) ___ _ ___ _ ___ _ ___ _ ___ _ ___
 72
   65
 73
    4
 40
28.575
 49
19.05
 74
    0
 49
-3.175
 74
    0
 49
3.175
 74
    0
 49
-3.175
 74
    0
  0
LTYPE
  5
49
330
5
100
AcDbSymbolTableRecord
100
AcDbLinetypeTableRecord
  2
CENTERX2
 70
    0
  3
Center (2x) ________  __  ________  __  _____
 72
   65
 73
    4
 40
101.6
 49
63.5
 74
    0
 49
-12.7
 74
    0
 49
12.7
 74
    0
 49
-12.7
 74
    0
  0
ENDTAB
  0
TABLE
  2
LAYER
  5
2
330
0
100
AcDbSymbolTable
 70
    1
  0
LAYER
  5
10
330
2
100
AcDbSymbolTableRecord
100
AcDbLayerTableRecord
  2
0
 70
    0
 62
    7
  6
CONTINUOUS
370
   50
390
F
  0
LAYER
  5
4A
330
2
100
AcDbSymbolTableRecord
100
AcDbLayerTableRecord
  2
fold
 70
    0
 62
    7
  6
DASHED
370
    5
390
F
  0
LAYER
  5
4B
330
2
100
AcDbSymbolTableRecord
100
AcDbLayerTableRecord
  2
measurement
 70
    1
 62
    7
  6
CONTINUOUS
370
    5
390
F
  0
LAYER
  5
4C
330
2
100
AcDbSymbolTableRecord
100
AcDbLayerTableRecord
  2
reference
 70
    1
 62
    7
  6
CENTER
370
    5
390
F
  0
LAYER
  5
4D
330
2
100
AcDbSymbolTableRecord
100
AcDbLayerTableRecord
  2
screw
 70
    0
 62
    7
  6
CONTINUOUS
370
   50
390
F
  0
ENDTAB
  0
TABLE
  2
STYLE
  5
3
330
0
100
AcDbSymbolTable
 70
    3
  0
STYLE
  5
4E
330
2
100
AcDbSymbolTableRecord
100
AcDbTextStyleTableRecord
  2
Standard
 70
    0
 40
0
 41
1
 50
0
 71
    0
 42
1
  3
txt
  4

  0
ENDTAB
  0
TABLE
  2
VIEW
  5
6
330
0
100
AcDbSymbolTable
 70
    0
  0
ENDTAB
  0
TABLE
  2
UCS
  5
7
330
0
100
AcDbSymbolTable
 70
    0
  0
ENDTAB
  0
TABLE
  2
APPID
  5
9
330
0
100
AcDbSymbolTable
 70
    1
  0
APPID
  5
12
330
9
100
AcDbSymbolTableRecord
100
AcDbRegAppTableRecord
  2
ACAD
 70
    0
  0
APPID
  5
4F
330
9
100
AcDbSymbolTableRecord
100
AcDbRegAppTableRecord
  2
LibreCad
 70
    0
  0
ENDTAB
  0
TABLE
  2
DIMSTYLE
  5
A
330
0
100
AcDbSymbolTable
 70
    1
100
AcDbDimStyleTable
 71
    1
  0
DIMSTYLE
105
50
330
A
100
AcDbSymbolTableRecord
100
AcDbDimStyleTableRecord
  2
Standard
 70
    0
 40
1
 41
2.5
 42
0.625
 43
0.38
 44
1.25
 45
0
 46
0
 47
0
 48
0
 49
1
140
2.5
141
0.09
142
0
143
25.4
144
1
145
0
146
1
147
0.625
148
0
 71
    0
 72
    0
 73
    0
 74
    1
 75
    0
 76
    0
 77
    0
 78
    1
 79
    0
170
    0
171
    2
172
    0
173
    0
174
    0
175
    0
176
    0
177
    0
178
    0
179
    2
271
    2
272
    4
273
    2
274
    2
275
    0
276
    0
277
    2
278
    0
279
    0
280
    0
281
    0
282
    0
283
    1
284
    0
285
    0
286
    0
288
    0
289
    3
340
4E
  0
ENDTAB
  0
TABLE
  2
BLOCK_RECORD
  5
1
330
0
100
AcDbSymbolTable
 70
    2
  0
BLOCK_RECORD
  5
1F
330
1
100
AcDbSymbolTableRecord
100
AcDbBlockTableRecord
  2
*Model_Space
 70
    0
280
    1
281
    0
  0
BLOCK_RECORD
  5
1E
330
1
100
AcDbSymbolTableRecord
100
AcDbBlockTableRecord
  2
*Paper_Space
 70
    0
280
    1
281
    0
  0
BLOCK_RECORD
  5
51
330
1
100
AcDbSymbolTableRecord
100
AcDbBlockTableRecord
  2
*D14
 70
    0
280
    1
281
    0
  0
BLOCK_RECORD
  5
54
330
1
100
AcDbSymbolTableRecord
100
AcDbBlockTableRecord
  2
*D33
 70
    0
280
    1
281
    0
  0
BLOCK_RECORD
  5
57
330
1
100
AcDbSymbolTableRecord
100
AcDbBlockTableRecord
  2
*D5
 70
    0
280
    1
281
    0
  0
BLOCK_RECORD
  5
5A
330
1
100
AcDbSymbolTableRecord
100
AcDbBlockTableRecord
  2
*D11
 70
    0
280
    1
281
    0
  0
BLOCK_RECORD
  5
5D
330
1
100
AcDbSymbolTableRecord
100
AcDbBlockTableRecord
  2
*D34
 70
    0
280
    1
281
    0
  0
BLOCK_RECORD
  5
60
330
1
100
AcDbSymbolTableRecord
100
AcDbBlockTableRecord
  2
*D36
 70
    0
280
    1
281
    0
  0
BLOCK_RECORD
  5
63
330
1
100
AcDbSymbolTableRecord
100
AcDbBlockTableRecord
  2
*D22
 70
    0
280
    1
281
    0
  0
BLOCK_RECORD
  5
66
330
1
100
AcDbSymbolTableRecord
100
AcDbBlockTableRecord
  2
*D28
 70
    0
280
    1
281
    0
  0
BLOCK_RECORD
  5
69
330
1
100
AcDbSymbolTableRecord
100
AcDbBlockTableRecord
  2
*D7
 70
    0
280
    1
281
    0
  0
BLOCK_RECORD
  5
6C
330
1
100
AcDbSymbolTableRecord
100
AcDbBlockTableRecord
  2
*D15
 70
    0
280
    1
281
    0
  0
BLOCK_RECORD
  5
6F
330
1
100
AcDbSymbolTableRecord
100
AcDbBlockTableRecord
  2
*D3
 70
    0
280
    1
281
    0
  0
BLOCK_RECORD
  5
72
330
1
100
AcDbSymbolTableRecord
100
AcDbBlockTableRecord
  2
*D10
 70
    0
280
    1
281
    0
  0
BLOCK_RECORD
  5
75
330
1
100
AcDbSymbolTableRecord
100
AcDbBlockTableRecord
  2
*D4
 70
    0
280
    1
281
    0
  0
BLOCK_RECORD
  5
78
330
1
100
AcDbSymbolTableRecord
100
AcDbBlockTableRecord
  2
*D20
 70
    0
280
    1
281
    0
  0
BLOCK_RECORD
  5
7B
330
1
100
AcDbSymbolTableRecord
100
AcDbBlockTableRecord
  2
*D21
 70
    0
280
    1
281
    0
  0
BLOCK_RECORD
  5
7E
330
1
100
AcDbSymbolTableRecord
100
AcDbBlockTableRecord
  2
*D8
 70
    0
280
    1
281
    0
  0
BLOCK_RECORD
  5
81
330
1
100
AcDbSymbolTableRecord
100
AcDbBlockTableRecord
  2
*D12
 70
    0
280
    1
281
    0
  0
BLOCK_RECORD
  5
84
330
1
100
AcDbSymbolTableRecord
100
AcDbBlockTableRecord
  2
*D26
 70
    0
280
    1
281
    0
  0
BLOCK_RECORD
  5
87
330
1
100
AcDbSymbolTableRecord
100
AcDbBlockTableRecord
  2
*D31
 70
    0
280
    1
281
    0
  0
BLOCK_RECORD
  5
8A
330
1
100
AcDbSymbolTableRecord
100
AcDbBlockTableRecord
  2
*D32
 70
    0
280
    1
281
    0
  0
BLOCK_RECORD
  5
8D
330
1
100
AcDbSymbolTableRecord
100
AcDbBlockTableRecord
  2
*D6
 70
    0
280
    1
281
    0
  0
BLOCK_RECORD
  5
90
330
1
100
AcDbSymbolTableRecord
100
AcDbBlockTableRecord
  2
*D18
 70
    0
280
    1
281
    0
  0
BLOCK_RECORD
  5
93
330
1
100
AcDbSymbolTableRecord
100
AcDbBlockTableRecord
  2
*D24
 70
    0
280
    1
281
    0
  0
BLOCK_RECORD
  5
96
330
1
100
AcDbSymbolTableRecord
100
AcDbBlockTableRecord
  2
*D35
 70
    0
280
    1
281
    0
  0
BLOCK_RECORD
  5
99
330
1
100
AcDbSymbolTableRecord
100
AcDbBlockTableRecord
  2
*D25
 70
    0
280
    1
281
    0
  0
BLOCK_RECORD
  5
9C
330
1
100
AcDbSymbolTableRecord
100
AcDbBlockTableRecord
  2
*D29
 70
    0
280
    1
281
    0
  0
BLOCK_RECORD
  5
9F
330
1
100
AcDbSymbolTableRecord
100
AcDbBlockTableRecord
  2
*D23
 70
    0
280
    1
281
    0
  0
BLOCK_RECORD
  5
A2
330
1
100
AcDbSymbolTableRecord
100
AcDbBlockTableRecord
  2
*D17
 70
    0
280
    1
281
    0
  0
BLOCK_RECORD
  5
A5
330
1
100
AcDbSymbolTableRecord
100
AcDbBlockTableRecord
  2
*D16
 70
    0
280
    1
281
    0
  0
BLOCK_RECORD
  5
A8
330
1
100
AcDbSymbolTableRecord
100
AcDbBlockTableRecord
  2
*D13
 70
    0
280
    1
281
    0
  0
BLOCK_RECORD
  5
AB
330
1
100
AcDbSymbolTableRecord
100
AcDbBlockTableRecord
  2
*D27
 70
    0
280
    1
281
    0
  0
BLOCK_RECORD
  5
AE
330
1
100
AcDbSymbolTableRecord
100
AcDbBlockTableRecord
  2
*D2
 70
    0
280
    1
281
    0
  0
BLOCK_RECORD
  5
B1
330
1
100
AcDbSymbolTableRecord
100
AcDbBlockTableRecord
  2
*D9
 70
    0
280
    1
281
    0
  0
BLOCK_RECORD
  5
B4
330
1
100
AcDbSymbolTableRecord
100
AcDbBlockTableRecord
  2
*D19
 70
    0
280
    1
281
    0
  0
BLOCK_RECORD
  5
B7
330
1
100
AcDbSymbolTableRecord
100
AcDbBlockTableRecord
  2
*D30
 70
    0
280
    1
281
    0
  0
BLOCK_RECORD
  5
BA
330
1
100
AcDbSymbolTableRecord
100
AcDbBlockTableRecord
  2
*D1
 70
    0
280
    1
281
    0
  0
ENDTAB
  0
ENDSEC
  0
SECTION
  2
BLOCKS
  0
BLOCK
  5
20
330
1F
100
AcDbEntity
  8
0
100
AcDbBlockBegin
  2
*Model_Space
 70
    0
 10
0
 20
0
 30
0
  3
*Model_Space
  1

  0
ENDBLK
  5
21
330
1F
100
AcDbEntity
  8
0
100
AcDbBlockEnd
  0
BLOCK
  5
1C
330
1B
100
AcDbEntity
  8
0
100
AcDbBlockBegin
  2
*Paper_Space
 70
    0
 10
0
 20
0
 30
0
  3
*Paper_Space
  1

  0
ENDBLK
  5
1D
330
1F
100
AcDbEntity
  8
0
100
AcDbBlockEnd
  0
BLOCK
  5
52
330
51
100
AcDbEntity
  8
0
100
AcDbBlockBegin
  2
*D14
 70
    1
 10
0
 20
0
  3
*D14
  1

  0
LINE
  5
BD
100
AcDbEntity
  8
measurement
  6
ByBlock
 62
    0
370
   -2
100
AcDbLine
 10
103.125
 20
45.01378253716577
 11
111.25
 21
45.01378253716577
  0
LINE
  5
BE
100
AcDbEntity
  8
measurement
  6
ByBlock
 62
    0
370
   -2
100
AcDbLine
 10
103.125
 20
66
 11
111.25
 21
66
  0
LINE
  5
BF
100
AcDbEntity
  8
measurement
  6
ByBlock
 62
    0
370
   -2
100
AcDbLine
 10
110
 20
45.01378253716577
 11
110
 21
66
  0
MTEXT
  5
C0
100
AcDbEntity
  8
measurement
  6
CONTINUOUS
 62
    0
370
   -2
100
AcDbMText
 10
108.125
 20
55.50689126858288
 30
0
 40
2.5
 41
7.777777777777933
 71
    5
 72
    1
  1
20.99
  7
standard
210
0
220
0
230
1
 50
90
 73
    2
 44
1
  0
SOLID
  5
C1
100
AcDbEntity
  8
measurement
  6
ByBlock
 62
    0
370
   -2
100
AcDbTrace
 10
110
 20
45.01378253716577
 30
0
 11
109.5837153422272
 21
47.51378253716577
 31
0
 12
110.4162846577728
 22
47.51378253716577
 32
0
 13
110.4162846577728
 23
47.51378253716577
 33
0
  0
SOLID
  5
C2
100
AcDbEntity
  8
measurement
  6
ByBlock
 62
    0
370
   -2
100
AcDbTrace
 10
110
 20
66
 30
0
 11
110.4162846577728
 21
63.5
 31
0
 12
109.5837153422272
 22
63.5
 32
0
 13
109.5837153422272
 23
63.5
 33
0
  0
ENDBLK
  5
53
330
51
100
AcDbEntity
  8
0
100
AcDbBlockEnd
  0
BLOCK
  5
55
330
54
100
AcDbEntity
  8
0
100
AcDbBlockBegin
  2
*D33
 70
    1
 10
0
 20
0
  3
*D33
  1

  0
LINE
  5
C3
100
AcDbEntity
  8
measurement
  6
ByBlock
 62
    0
370
   -2
100
AcDbLine
 10
243.125
 20
85
 11
257.25
 21
85
  0
LINE
  5
C4
100
AcDbEntity
  8
measurement
  6
ByBlock
 62
    0
370
   -2
100
AcDbLine
 10
243.125
 20
95
 11
257.25
 21
95
  0
LINE
  5
C5
100
AcDbEntity
  8
measurement
  6
ByBlock
 62
    0
370
   -2
100
AcDbLine
 10
256
 20
85
 11
256
 21
95
  0
MTEXT
  5
C6
100
AcDbEntity
  8
measurement
  6
CONTINUOUS
 62
    0
370
   -2
100
AcDbMText
 10
258
 20
90
 30
0
 40
2.5
 41
7.222222222222223
 71
    5
 72
    1
  1
10.00
  7
standard
210
0
220
0
230
1
 50
90
 73
    2
 44
1
  0
SOLID
  5
C7
100
AcDbEntity
  8
measurement
  6
ByBlock
 62
    0
370
   -2
100
AcDbTrace
 10
256
 20
85
 30
0
 11
255.5837153422272
 21
87.5
 31
0
 12
256.4162846577728
 22
87.5
 32
0
 13
256.4162846577728
 23
87.5
 33
0
  0
SOLID
  5
C8
100
AcDbEntity
  8
measurement
  6
ByBlock
 62
    0
370
   -2
100
AcDbTrace
 10
256
 20
95
 30
0
 11
256.4162846577728
 21
92.5
 31
0
 12
255.5837153422272
 22
92.5
 32
0
 13
255.5837153422272
 23
92.5
 33
0
  0
ENDBLK
  5
56
330
54
100
AcDbEntity
  8
0
100
AcDbBlockEnd
  0
BLOCK
  5
58
330
57
100
AcDbEntity
  8
0
100
AcDbBlockBegin
  2
*D5
 70
    1
 10
0
 20
0
  3
*D5
  1

  0
LINE
  5
C9
100
AcDbEntity
  8
measurement
  6
ByBlock
 62
    0
370
   -2
100
AcDbLine
 10
86.5
 20
83.375
 11
86.5
 21
76.75
  0
LINE
  5
CA
100
AcDbEntity
  8
measurement
  6
ByBlock
 62
    0
370
   -2
100
AcDbLine
 10
102.5
 20
83.375
 11
102.5
 21
76.75
  0
LINE
  5
CB
100
AcDbEntity
  8
measurement
  6
ByBlock
 62
    0
370
   -2
100
AcDbLine
 10
86.5
 20
78
 11
102.5
 21
78
  0
MTEXT
  5
CC
100
AcDbEntity
  8
measurement
  6
CONTINUOUS
 62
    0
370
   -2
100
AcDbMText
 10
94.5
 20
79.875
 30
0
 40
2.5
 41
7.222222222222378
 71
    5
 72
    1
  1
16.00
  7
standard
210
0
220
0
230
1
 50
0
 73
    2
 44
1
  0
SOLID
  5
CD
100
AcDbEntity
  8
measurement
  6
ByBlock
 62
    0
370
   -2
100
AcDbTrace
 10
86.5
 20
78
 30
0
 11
89
 21
78.41628465777283
 31
0
 12
89
 22
77.58371534222717
 32
0
 13
89
 23
77.58371534222717
 33
0
  0
SOLID
  5
CE
100
AcDbEntity
  8
measurement
  6
ByBlock
 62
    0
370
   -2
100
AcDbTrace
 10
102.5
 20
78
 30
0
 11
100
 21
77.58371534222717
 31
0
 12
100
 22
78.41628465777283
 32
0
 13
100
 23
78.41628465777283
 33
0
  0
ENDBLK
  5
59
330
57
100
AcDbEntity
  8
0
100
AcDbBlockEnd
  0
BLOCK
  5
5B
330
5A
100
AcDbEntity
  8
0
100
AcDbBlockBegin
  2
*D11
 70
    1
 10
0
 20
0
  3
*D11
  1

  0
LINE
  5
CF
100
AcDbEntity
  8
measurement
  6
ByBlock
 62
    0
370
   -2
100
AcDbLine
 10
243.125
 20
25
 11
248.25
 21
25
  0
LINE
  5
D0
100
AcDbEntity
  8
measurement
  6
ByBlock
 62
    0
370
   -2
100
AcDbLine
 10
243.125
 20
-7.081923622059974e-16
 11
248.25
 21
-6.515369732295176e-15
  0
LINE
  5
D1
100
AcDbEntity
  8
measurement
  6
ByBlock
 62
    0
370
   -2
100
AcDbLine
 10
247
 20
25
 11
247
 21
-5.098985007883181e-15
  0
MTEXT
  5
D2
100
AcDbEntity
  8
measurement
  6
CONTINUOUS
 62
    0
370
   -2
100
AcDbMText
 10
245.125
 20
12.5
 30
0
 40
2.5
 41
7.777777777777935
 71
    5
 72
    1
  1
25.00
  7
standard
210
0
220
0
230
1
 50
90
 73
    2
 44
1
  0
SOLID
  5
D3
100
AcDbEntity
  8
measurement
  6
ByBlock
 62
    0
370
   -2
100
AcDbTrace
 10
247
 20
25
 30
0
 11
247.4162846577728
 21
22.5
 31
0
 12
246.5837153422272
 22
22.5
 32
0
 13
246.5837153422272
 23
22.5
 33
0
  0
SOLID
  5
D4
100
AcDbEntity
  8
measurement
  6
ByBlock
 62
    0
370
   -2
100
AcDbTrace
 10
247
 20
-5.098985007883181e-15
 30
0
 11
246.5837153422272
 21
2.499999999999995
 31
0
 12
247.4162846577728
 22
2.499999999999995
 32
0
 13
247.4162846577728
 23
2.499999999999995
 33
0
  0
ENDBLK
  5
5C
330
5A
100
AcDbEntity
  8
0
100
AcDbBlockEnd
  0
BLOCK
  5
5E
330
5D
100
AcDbEntity
  8
0
100
AcDbBlockBegin
  2
*D34
 70
    1
 10
0
 20
0
  3
*D34
  1

  0
LINE
  5
D5
100
AcDbEntity
  8
measurement
  6
ByBlock
 62
    0
370
   -2
100
AcDbLine
 10
126
 20
116.375
 11
126
 21
100.75
  0
LINE
  5
D6
100
AcDbEntity
  8
measurement
  6
ByBlock
 62
    0
370
   -2
100
AcDbLine
 10
145
 20
116.375
 11
145
 21
100.75
  0
LINE
  5
D7
100
AcDbEntity
  8
measurement
  6
ByBlock
 62
    0
370
   -2
100
AcDbLine
 10
126
 20
102
 11
145
 21
102
  0
MTEXT
  5
D8
100
AcDbEntity
  8
measurement
  6
CONTINUOUS
 62
    0
370
   -2
100
AcDbMText
 10
135.5
 20
103.875
 30
0
 40
2.5
 41
7.222222222222378
 71
    5
 72
    1
  1
19.00
  7
standard
210
0
220
0
230
1
 50
0
 73
    2
 44
1
  0
SOLID
  5
D9
100
AcDbEntity
  8
measurement
  6
ByBlock
 62
    0
370
   -2
100
AcDbTrace
 10
126
 20
102
 30
0
 11
128.5
 21
102.4162846577728
 31
0
 12
128.5
 22
101.5837153422272
 32
0
 13
128.5
 23
101.5837153422272
 33
0
  0
SOLID
  5
DA
100
AcDbEntity
  8
measurement
  6
ByBlock
 62
    0
370
   -2
100
AcDbTrace
 10
145
 20
102
 30
0
 11
142.5
 21
101.5837153422272
 31
0
 12
142.5
 22
102.4162846577728
 32
0
 13
142.5
 23
102.4162846577728
 33
0
  0
ENDBLK
  5
5F
330
5D
100
AcDbEntity
  8
0
100
AcDbBlockEnd
  0
BLOCK
  5
61
330
60
100
AcDbEntity
  8
0
100
AcDbBlockBegin
  2
*D36
 70
    1
 10
0
 20
0
  3
*D36
  1

  0
LINE
  5
DB
100
AcDbEntity
  8
measurement
  6
ByBlock
 62
    0
370
   -2
100
AcDbLine
 10
145.7525686510206
 20
87.00972176886292
 11
145.7582955750697
 21
78.74013691258084
  0
LINE
  5
DC
100
AcDbEntity
  8
measurement
  6
ByBlock
 62
    0
370
   -2
100
AcDbLine
 10
154.2481063379518
 20
87.01560517171021
 11
154.2538332620009
 21
78.74602031542813
  0
LINE
  5
DD
100
AcDbEntity
  8
measurement
  6
ByBlock
 62
    0
370
   -2
100
AcDbLine
 10
145.7574299145234
 20
79.99013661283352
 11
154.2529676014545
 21
79.99602001568081
  0
MTEXT
  5
DE
100
AcDbEntity
  8
measurement
  6
CONTINUOUS
 62
    0
370
   -2
100
AcDbMText
 10
150.0039002671694
 20
81.86807786463621
 30
0
 40
2.5
 41
5.83333333333349
 71
    5
 72
    1
  1
8.50
  7
standard
210
0
220
0
230
1
 50
0.03967895980895943
 73
    2
 44
1
  0
SOLID
  5
DF
100
AcDbEntity
  8
measurement
  6
ByBlock
 62
    0
370
   -2
100
AcDbTrace
 10
145.7574299145234
 20
79.99013661283352
 30
0
 11
148.2571410260653
 21
80.40815249187489
 31
0
 12
148.2577176039922
 22
79.57558337597754
 32
0
 13
148.2577176039922
 23
79.57558337597754
 33
0
  0
SOLID
  5
E0
100
AcDbEntity
  8
measurement
  6
ByBlock
 62
    0
370
   -2
100
AcDbTrace
 10
154.2529676014545
 20
79.99602001568081
 30
0
 11
151.7532564899126
 21
79.57800413663945
 31
0
 12
151.7526799119857
 22
80.41057325253679
 32
0
 13
151.7526799119857
 23
80.41057325253679
 33
0
  0
ENDBLK
  5
62
330
60
100
AcDbEntity
  8
0
100
AcDbBlockEnd
  0
BLOCK
  5
64
330
63
100
AcDbEntity
  8
0
100
AcDbBlockBegin
  2
*D22
 70
    1
 10
0
 20
0
  3
*D22
  1

  0
LINE
  5
E1
100
AcDbEntity
  8
measurement
  6
ByBlock
 62
    0
370
   -2
100
AcDbLine
 10
346
 20
9.625
 11
346
 21
15.25
  0
LINE
  5
E2
100
AcDbEntity
  8
measurement
  6
ByBlock
 62
    0
370
   -2
100
AcDbLine
 10
356
 20
9.625
 11
356
 21
15.25
  0
LINE
  5
E3
100
AcDbEntity
  8
measurement
  6
ByBlock
 62
    0
370
   -2
100
AcDbLine
 10
346
 20
14
 11
356
 21
14
  0
MTEXT
  5
E4
100
AcDbEntity
  8
measurement
  6
CONTINUOUS
 62
    0
370
   -2
100
AcDbMText
 10
351
 20
15.875
 30
0
 40
2.5
 41
7.222222222222223
 71
    5
 72
    1
  1
10.00
  7
standard
210
0
220
0
230
1
 50
0
 73
    2
 44
1
  0
SOLID
  5
E5
100
AcDbEntity
  8
measurement
  6
ByBlock
 62
    0
370
   -2
100
AcDbTrace
 10
346
 20
14
 30
0
 11
348.5
 21
14.41628465777284
 31
0
 12
348.5
 22
13.58371534222716
 32
0
 13
348.5
 23
13.58371534222716
 33
0
  0
SOLID
  5
E6
100
AcDbEntity
  8
measurement
  6
ByBlock
 62
    0
370
   -2
100
AcDbTrace
 10
356
 20
14
 30
0
 11
353.5
 21
13.58371534222716
 31
0
 12
353.5
 22
14.41628465777284
 32
0
 13
353.5
 23
14.41628465777284
 33
0
  0
ENDBLK
  5
65
330
63
100
AcDbEntity
  8
0
100
AcDbBlockEnd
  0
BLOCK
  5
67
330
66
100
AcDbEntity
  8
0
100
AcDbBlockBegin
  2
*D28
 70
    1
 10
0
 20
0
  3
*D28
  1

  0
LINE
  5
E7
100
AcDbEntity
  8
measurement
  6
ByBlock
 62
    0
370
   -2
100
AcDbLine
 10
13
 20
-0.625
 11
13
 21
-10.25
  0
LINE
  5
E8
100
AcDbEntity
  8
measurement
  6
ByBlock
 62
    0
370
   -2
100
AcDbLine
 10
-2
 20
-0.6249999999999967
 11
-2.000000000000002
 21
-10.25
  0
LINE
  5
E9
100
AcDbEntity
  8
measurement
  6
ByBlock
 62
    0
370
   -2
100
AcDbLine
 10
13
 20
-9.000000000000004
 11
-2.000000000000002
 21
-9
  0
MTEXT
  5
EA
100
AcDbEntity
  8
measurement
  6
CONTINUOUS
 62
    0
370
   -2
100
AcDbMText
 10
5.499999999999999
 20
-7.125000000000002
 30
0
 40
2.5
 41
7.222222222222378
 71
    5
 72
    1
  1
15.00
  7
standard
210
0
220
0
230
1
 50
0
 73
    2
 44
1
  0
SOLID
  5
EB
100
AcDbEntity
  8
measurement
  6
ByBlock
 62
    0
370
   -2
100
AcDbTrace
 10
13
 20
-9.000000000000004
 30
0
 11
10.5
 21
-9.416284657772843
 31
0
 12
10.5
 22
-8.583715342227164
 32
0
 13
10.5
 23
-8.583715342227164
 33
0
  0
SOLID
  5
EC
100
AcDbEntity
  8
measurement
  6
ByBlock
 62
    0
370
   -2
100
AcDbTrace
 10
-2.000000000000002
 20
-9
 30
0
 11
0.4999999999999987
 21
-8.58371534222716
 31
0
 12
0.4999999999999982
 22
-9.416284657772842
 32
0
 13
0.4999999999999982
 23
-9.416284657772842
 33
0
  0
ENDBLK
  5
68
330
66
100
AcDbEntity
  8
0
100
AcDbBlockEnd
  0
BLOCK
  5
6A
330
69
100
AcDbEntity
  8
0
100
AcDbBlockBegin
  2
*D7
 70
    1
 10
0
 20
0
  3
*D7
  1

  0
LINE
  5
ED
100
AcDbEntity
  8
measurement
  6
ByBlock
 62
    0
370
   -2
100
AcDbLine
 10
92.4991385922453
 20
45.62499940638106
 11
92.49002762348658
 21
52.23551577874994
  0
LINE
  5
EE
100
AcDbEntity
  8
measurement
  6
ByBlock
 62
    0
370
   -2
100
AcDbLine
 10
102.4991385922453
 20
45.63878194354683
 11
102.4900276234866
 21
52.24929831591571
  0
LINE
  5
EF
100
AcDbEntity
  8
measurement
  6
ByBlock
 62
    0
370
   -2
100
AcDbLine
 10
92.49175043899599
 20
50.98551696598782
 11
102.491750438996
 21
50.99929950315359
  0
MTEXT
  5
F0
100
AcDbEntity
  8
measurement
  6
CONTINUOUS
 62
    0
370
   -2
100
AcDbMText
 10
97.48916621573188
 20
52.8674064537139
 30
0
 40
2.5
 41
7.222222222222223
 71
    5
 72
    1
  1
10.00
  7
standard
210
0
220
0
230
1
 50
0.07896807105594351
 73
    2
 44
1
  0
SOLID
  5
F1
100
AcDbEntity
  8
measurement
  6
ByBlock
 62
    0
370
   -2
100
AcDbTrace
 10
92.49175043899599
 20
50.98551696598782
 30
0
 11
94.99117431918845
 21
51.40524685939634
 31
0
 12
94.99232180985203
 22
50.57267833461692
 32
0
 13
94.99232180985203
 23
50.57267833461692
 33
0
  0
SOLID
  5
F2
100
AcDbEntity
  8
measurement
  6
ByBlock
 62
    0
370
   -2
100
AcDbTrace
 10
102.491750438996
 20
50.99929950315359
 30
0
 11
99.99232655880354
 21
50.57956960974506
 31
0
 12
99.99117906813996
 22
51.41213813452448
 32
0
 13
99.99117906813996
 23
51.41213813452448
 33
0
  0
ENDBLK
  5
6B
330
69
100
AcDbEntity
  8
0
100
AcDbBlockEnd
  0
BLOCK
  5
6D
330
6C
100
AcDbEntity
  8
0
100
AcDbBlockBegin
  2
*D15
 70
    1
 10
0
 20
0
  3
*D15
  1

  0
LINE
  5
F3
100
AcDbEntity
  8
measurement
  6
ByBlock
 62
    0
370
   -2
100
AcDbLine
 10
103.125
 20
100
 11
115.25
 21
100
  0
LINE
  5
F4
100
AcDbEntity
  8
measurement
  6
ByBlock
 62
    0
370
   -2
100
AcDbLine
 10
103.125
 20
84
 11
115.25
 21
84
  0
LINE
  5
F5
100
AcDbEntity
  8
measurement
  6
ByBlock
 62
    0
370
   -2
100
AcDbLine
 10
114
 20
100
 11
114
 21
84
  0
MTEXT
  5
F6
100
AcDbEntity
  8
measurement
  6
CONTINUOUS
 62
    0
370
   -2
100
AcDbMText
 10
112.125
 20
92
 30
0
 40
2.5
 41
7.222222222222378
 71
    5
 72
    1
  1
16.00
  7
standard
210
0
220
0
230
1
 50
90
 73
    2
 44
1
  0
SOLID
  5
F7
100
AcDbEntity
  8
measurement
  6
ByBlock
 62
    0
370
   -2
100
AcDbTrace
 10
114
 20
100
 30
0
 11
114.4162846577728
 21
97.5
 31
0
 12
113.5837153422272
 22
97.5
 32
0
 13
113.5837153422272
 23
97.5
 33
0
  0
SOLID
  5
F8
100
AcDbEntity
  8
measurement
  6
ByBlock
 62
    0
370
   -2
100
AcDbTrace
 10
114
 20
84
 30
0
 11
113.5837153422272
 21
86.5
 31
0
 12
114.4162846577728
 22
86.5
 32
0
 13
114.4162846577728
 23
86.5
 33
0
  0
ENDBLK
  5
6E
330
6C
100
AcDbEntity
  8
0
100
AcDbBlockEnd
  0
BLOCK
  5
70
330
6F
100
AcDbEntity
  8
0
100
AcDbBlockBegin
  2
*D3
 70
    1
 10
0
 20
0
  3
*D3
  1

  0
LINE
  5
F9
100
AcDbEntity
  8
measurement
  6
ByBlock
 62
    0
370
   -2
100
AcDbLine
 10
95
 20
100.625
 11
95
 21
114.25
  0
LINE
  5
FA
100
AcDbEntity
  8
measurement
  6
ByBlock
 62
    0
370
   -2
100
AcDbLine
 10
110
 20
100.625
 11
110
 21
114.25
  0
LINE
  5
FB
100
AcDbEntity
  8
measurement
  6
ByBlock
 62
    0
370
   -2
100
AcDbLine
 10
95
 20
113
 11
110
 21
113
  0
MTEXT
  5
FC
100
AcDbEntity
  8
measurement
  6
CONTINUOUS
 62
    0
370
   -2
100
AcDbMText
 10
102.5
 20
114.875
 30
0
 40
2.5
 41
7.222222222222378
 71
    5
 72
    1
  1
15.00
  7
standard
210
0
220
0
230
1
 50
0
 73
    2
 44
1
  0
SOLID
  5
FD
100
AcDbEntity
  8
measurement
  6
ByBlock
 62
    0
370
   -2
100
AcDbTrace
 10
95
 20
113
 30
0
 11
97.5
 21
113.4162846577728
 31
0
 12
97.5
 22
112.5837153422272
 32
0
 13
97.5
 23
112.5837153422272
 33
0
  0
SOLID
  5
FE
100
AcDbEntity
  8
measurement
  6
ByBlock
 62
    0
370
   -2
100
AcDbTrace
 10
110
 20
113
 30
0
 11
107.5
 21
112.5837153422272
 31
0
 12
107.5
 22
113.4162846577728
 32
0
 13
107.5
 23
113.4162846577728
 33
0
  0
ENDBLK
  5
71
330
6F
100
AcDbEntity
  8
0
100
AcDbBlockEnd
  0
BLOCK
  5
73
330
72
100
AcDbEntity
  8
0
100
AcDbBlockBegin
  2
*D10
 70
    1
 10
0
 20
0
  3
*D10
  1

  0
LINE
  5
FF
100
AcDbEntity
  8
measurement
  6
ByBlock
 62
    0
370
   -2
100
AcDbLine
 10
195
 20
29.375
 11
195
 21
15.75
  0
LINE
  5
100
100
AcDbEntity
  8
measurement
  6
ByBlock
 62
    0
370
   -2
100
AcDbLine
 10
235
 20
29.375
 11
235
 21
15.75
  0
LINE
  5
101
100
AcDbEntity
  8
measurement
  6
ByBlock
 62
    0
370
   -2
100
AcDbLine
 10
195
 20
17
 11
235
 21
17
  0
MTEXT
  5
102
100
AcDbEntity
  8
measurement
  6
CONTINUOUS
 62
    0
370
   -2
100
AcDbMText
 10
215
 20
18.875
 30
0
 40
2.5
 41
8.055555555555557
 71
    5
 72
    1
  1
40.00
  7
standard
210
0
220
0
230
1
 50
0
 73
    2
 44
1
  0
SOLID
  5
103
100
AcDbEntity
  8
measurement
  6
ByBlock
 62
    0
370
   -2
100
AcDbTrace
 10
195
 20
17
 30
0
 11
197.5
 21
17.41628465777284
 31
0
 12
197.5
 22
16.58371534222716
 32
0
 13
197.5
 23
16.58371534222716
 33
0
  0
SOLID
  5
104
100
AcDbEntity
  8
measurement
  6
ByBlock
 62
    0
370
   -2
100
AcDbTrace
 10
235
 20
17
 30
0
 11
232.5
 21
16.58371534222716
 31
0
 12
232.5
 22
17.41628465777284
 32
0
 13
232.5
 23
17.41628465777284
 33
0
  0
ENDBLK
  5
74
330
72
100
AcDbEntity
  8
0
100
AcDbBlockEnd
  0
BLOCK
  5
76
330
75
100
AcDbEntity
  8
0
100
AcDbBlockBegin
  2
*D4
 70
    1
 10
0
 20
0
  3
*D4
  1

  0
LINE
  5
105
100
AcDbEntity
  8
measurement
  6
ByBlock
 62
    0
370
   -2
100
AcDbLine
 10
85
 20
84.625
 11
85
 21
91.25
  0
LINE
  5
106
100
AcDbEntity
  8
measurement
  6
ByBlock
 62
    0
370
   -2
100
AcDbLine
 10
88
 20
84.625
 11
88
 21
91.25
  0
LINE
  5
107
100
AcDbEntity
  8
measurement
  6
ByBlock
 62
    0
370
   -2
100
AcDbLine
 10
80
 20
90
 11
93
 21
90
  0
MTEXT
  5
108
100
AcDbEntity
  8
measurement
  6
CONTINUOUS
 62
    0
370
   -2
100
AcDbMText
 10
91.54166666666674
 20
91.875
 30
0
 40
2.5
 41
5.833333333333488
 71
    5
 72
    1
  1
3.00
  7
standard
210
0
220
0
230
1
 50
0
 73
    2
 44
1
  0
SOLID
  5
109
100
AcDbEntity
  8
measurement
  6
ByBlock
 62
    0
370
   -2
100
AcDbTrace
 10
85
 20
90
 30
0
 11
82.5
 21
89.58371534222717
 31
0
 12
82.5
 22
90.41628465777283
 32
0
 13
82.5
 23
90.41628465777283
 33
0
  0
SOLID
  5
10A
100
AcDbEntity
  8
measurement
  6
ByBlock
 62
    0
370
   -2
100
AcDbTrace
 10
88
 20
90
 30
0
 11
90.5
 21
90.41628465777283
 31
0
 12
90.5
 22
89.58371534222717
 32
0
 13
90.5
 23
89.58371534222717
 33
0
  0
ENDBLK
  5
77
330
75
100
AcDbEntity
  8
0
100
AcDbBlockEnd
  0
BLOCK
  5
79
330
78
100
AcDbEntity
  8
0
100
AcDbBlockBegin
  2
*D20
 70
    1
 10
0
 20
0
  3
*D20
  1

  0
LINE
  5
10B
100
AcDbEntity
  8
measurement
  6
ByBlock
 62
    0
370
   -2
100
AcDbLine
 10
340
 20
30.625
 11
340
 21
45.25
  0
LINE
  5
10C
100
AcDbEntity
  8
measurement
  6
ByBlock
 62
    0
370
   -2
100
AcDbLine
 10
356
 20
30.625
 11
356
 21
45.25
  0
LINE
  5
10D
100
AcDbEntity
  8
measurement
  6
ByBlock
 62
    0
370
   -2
100
AcDbLine
 10
340
 20
44
 11
356
 21
44
  0
MTEXT
  5
10E
100
AcDbEntity
  8
measurement
  6
CONTINUOUS
 62
    0
370
   -2
100
AcDbMText
 10
348
 20
45.875
 30
0
 40
2.5
 41
7.222222222222378
 71
    5
 72
    1
  1
16.00
  7
standard
210
0
220
0
230
1
 50
0
 73
    2
 44
1
  0
SOLID
  5
10F
100
AcDbEntity
  8
measurement
  6
ByBlock
 62
    0
370
   -2
100
AcDbTrace
 10
340
 20
44
 30
0
 11
342.5
 21
44.41628465777284
 31
0
 12
342.5
 22
43.58371534222716
 32
0
 13
342.5
 23
43.58371534222716
 33
0
  0
SOLID
  5
110
100
AcDbEntity
  8
measurement
  6
ByBlock
 62
    0
370
   -2
100
AcDbTrace
 10
356
 20
44
 30
0
 11
353.5
 21
43.58371534222716
 31
0
 12
353.5
 22
44.41628465777284
 32
0
 13
353.5
 23
44.41628465777284
 33
0
  0
ENDBLK
  5
7A
330
78
100
AcDbEntity
  8
0
100
AcDbBlockEnd
  0
BLOCK
  5
7C
330
7B
100
AcDbEntity
  8
0
100
AcDbBlockBegin
  2
*D21
 70
    1
 10
0
 20
0
  3
*D21
  1

  0
LINE
  5
111
100
AcDbEntity
  8
measurement
  6
ByBlock
 62
    0
370
   -2
100
AcDbLine
 10
302.8750028815516
 20
31.49810212457291
 11
274.757850805763
 21
31.41272116771862
  0
LINE
  5
112
100
AcDbEntity
  8
measurement
  6
ByBlock
 62
    0
370
   -2
100
AcDbLine
 10
302.8522282714246
 20
38.99810212457291
 11
274.735076195636
 21
38.91272116771862
  0
LINE
  5
113
100
AcDbEntity
  8
measurement
  6
ByBlock
 62
    0
370
   -2
100
AcDbLine
 10
276.0078450426599
 20
31.41651691857279
 11
275.9850704325329
 21
38.9165169185728
  0
MTEXT
  5
114
100
AcDbEntity
  8
measurement
  6
CONTINUOUS
 62
    0
370
   -2
100
AcDbMText
 10
277.8714490929418
 20
35.17221054485406
 30
0
 40
2.5
 41
5.83333333333349
 71
    5
 72
    1
  1
7.50
  7
standard
210
0
220
0
230
1
 50
270.1739846706064
 73
    2
 44
1
  0
SOLID
  5
115
100
AcDbEntity
  8
measurement
  6
ByBlock
 62
    0
370
   -2
100
AcDbTrace
 10
276.0078450426599
 20
31.41651691857279
 30
0
 11
275.5839708024518
 21
33.91524130209033
 31
0
 12
276.4165362794512
 22
33.91776948264284
 32
0
 13
276.4165362794512
 23
33.91776948264284
 33
0
  0
SOLID
  5
116
100
AcDbEntity
  8
measurement
  6
ByBlock
 62
    0
370
   -2
100
AcDbTrace
 10
275.9850704325329
 20
38.9165169185728
 30
0
 11
276.408944672741
 21
36.41779253505526
 31
0
 12
275.5763791957415
 22
36.41526435450275
 32
0
 13
275.5763791957415
 23
36.41526435450275
 33
0
  0
ENDBLK
  5
7D
330
7B
100
AcDbEntity
  8
0
100
AcDbBlockEnd
  0
BLOCK
  5
7F
330
7E
100
AcDbEntity
  8
0
100
AcDbBlockBegin
  2
*D8
 70
    1
 10
0
 20
0
  3
*D8
  1

  0
LINE
  5
117
100
AcDbEntity
  8
measurement
  6
ByBlock
 62
    0
370
   -2
100
AcDbLine
 10
155.625
 20
67.5
 11
171.25
 21
67.5
  0
LINE
  5
118
100
AcDbEntity
  8
measurement
  6
ByBlock
 62
    0
370
   -2
100
AcDbLine
 10
155.625
 20
72.5
 11
171.25
 21
72.5
  0
LINE
  5
119
100
AcDbEntity
  8
measurement
  6
ByBlock
 62
    0
370
   -2
100
AcDbLine
 10
170
 20
62.5
 11
170
 21
77.5
  0
MTEXT
  5
11A
100
AcDbEntity
  8
measurement
  6
CONTINUOUS
 62
    0
370
   -2
100
AcDbMText
 10
168.125
 20
76.04166666666667
 30
0
 40
2.5
 41
5.833333333333488
 71
    5
 72
    1
  1
5.00
  7
standard
210
0
220
0
230
1
 50
90
 73
    2
 44
1
  0
SOLID
  5
11B
100
AcDbEntity
  8
measurement
  6
ByBlock
 62
    0
370
   -2
100
AcDbTrace
 10
170
 20
67.5
 30
0
 11
170.4162846577728
 21
65
 31
0
 12
169.5837153422272
 22
65
 32
0
 13
169.5837153422272
 23
65
 33
0
  0
SOLID
  5
11C
100
AcDbEntity
  8
measurement
  6
ByBlock
 62
    0
370
   -2
100
AcDbTrace
 10
170
 20
72.5
 30
0
 11
169.5837153422272
 21
75
 31
0
 12
170.4162846577728
 22
75
 32
0
 13
170.4162846577728
 23
75
 33
0
  0
ENDBLK
  5
80
330
7E
100
AcDbEntity
  8
0
100
AcDbBlockEnd
  0
BLOCK
  5
82
330
81
100
AcDbEntity
  8
0
100
AcDbBlockBegin
  2
*D12
 70
    1
 10
0
 20
0
  3
*D12
  1

  0
LINE
  5
11D
100
AcDbEntity
  8
measurement
  6
ByBlock
 62
    0
370
   -2
100
AcDbLine
 10
118.375
 20
84
 11
108.75
 21
84
  0
LINE
  5
11E
100
AcDbEntity
  8
measurement
  6
ByBlock
 62
    0
370
   -2
100
AcDbLine
 10
118.375
 20
72.5
 11
108.75
 21
72.5
  0
LINE
  5
11F
100
AcDbEntity
  8
measurement
  6
ByBlock
 62
    0
370
   -2
100
AcDbLine
 10
110
 20
84
 11
110
 21
72.5
  0
MTEXT
  5
120
100
AcDbEntity
  8
measurement
  6
CONTINUOUS
 62
    0
370
   -2
100
AcDbMText
 10
108.125
 20
78.24999999999999
 30
0
 40
2.5
 41
6.666666666666822
 71
    5
 72
    1
  1
11.50
  7
standard
210
0
220
0
230
1
 50
90
 73
    2
 44
1
  0
SOLID
  5
121
100
AcDbEntity
  8
measurement
  6
ByBlock
 62
    0
370
   -2
100
AcDbTrace
 10
110
 20
84
 30
0
 11
110.4162846577728
 21
81.5
 31
0
 12
109.5837153422272
 22
81.5
 32
0
 13
109.5837153422272
 23
81.5
 33
0
  0
SOLID
  5
122
100
AcDbEntity
  8
measurement
  6
ByBlock
 62
    0
370
   -2
100
AcDbTrace
 10
110
 20
72.5
 30
0
 11
109.5837153422272
 21
75
 31
0
 12
110.4162846577728
 22
75
 32
0
 13
110.4162846577728
 23
75
 33
0
  0
ENDBLK
  5
83
330
81
100
AcDbEntity
  8
0
100
AcDbBlockEnd
  0
BLOCK
  5
85
330
84
100
AcDbEntity
  8
0
100
AcDbBlockBegin
  2
*D26
 70
    1
 10
0
 20
0
  3
*D26
  1

  0
LINE
  5
123
100
AcDbEntity
  8
measurement
  6
ByBlock
 62
    0
370
   -2
100
AcDbLine
 10
356.625
 20
-6
 11
428.25
 21
-6
  0
LINE
  5
124
100
AcDbEntity
  8
measurement
  6
ByBlock
 62
    0
370
   -2
100
AcDbLine
 10
356.625
 20
39
 11
428.25
 21
39
  0
LINE
  5
125
100
AcDbEntity
  8
measurement
  6
ByBlock
 62
    0
370
   -2
100
AcDbLine
 10
427
 20
-6
 11
427
 21
39
  0
MTEXT
  5
126
100
AcDbEntity
  8
measurement
  6
CONTINUOUS
 62
    0
370
   -2
100
AcDbMText
 10
425.125
 20
16.5
 30
0
 40
2.5
 41
8.055555555555713
 71
    5
 72
    1
  1
45.00
  7
standard
210
0
220
0
230
1
 50
90
 73
    2
 44
1
  0
SOLID
  5
127
100
AcDbEntity
  8
measurement
  6
ByBlock
 62
    0
370
   -2
100
AcDbTrace
 10
427
 20
-6
 30
0
 11
426.5837153422272
 21
-3.5
 31
0
 12
427.4162846577728
 22
-3.5
 32
0
 13
427.4162846577728
 23
-3.5
 33
0
  0
SOLID
  5
128
100
AcDbEntity
  8
measurement
  6
ByBlock
 62
    0
370
   -2
100
AcDbTrace
 10
427
 20
39
 30
0
 11
427.4162846577728
 21
36.5
 31
0
 12
426.5837153422272
 22
36.5
 32
0
 13
426.5837153422272
 23
36.5
 33
0
  0
ENDBLK
  5
86
330
84
100
AcDbEntity
  8
0
100
AcDbBlockEnd
  0
BLOCK
  5
88
330
87
100
AcDbEntity
  8
0
100
AcDbBlockBegin
  2
*D31
 70
    1
 10
0
 20
0
  3
*D31
  1

  0
LINE
  5
129
100
AcDbEntity
  8
measurement
  6
ByBlock
 62
    0
370
   -2
100
AcDbLine
 10
6.875
 20
55
 11
-16.25
 21
55
  0
LINE
  5
12A
100
AcDbEntity
  8
measurement
  6
ByBlock
 62
    0
370
   -2
100
AcDbLine
 10
6.875
 20
85
 11
-16.25
 21
85
  0
LINE
  5
12B
100
AcDbEntity
  8
measurement
  6
ByBlock
 62
    0
370
   -2
100
AcDbLine
 10
-15
 20
55
 11
-15
 21
85
  0
MTEXT
  5
12C
100
AcDbEntity
  8
measurement
  6
CONTINUOUS
 62
    0
370
   -2
100
AcDbMText
 10
-16.875
 20
70
 30
0
 40
2.5
 41
7.777777777777933
 71
    5
 72
    1
  1
30.00
  7
standard
210
0
220
0
230
1
 50
90
 73
    2
 44
1
  0
SOLID
  5
12D
100
AcDbEntity
  8
measurement
  6
ByBlock
 62
    0
370
   -2
100
AcDbTrace
 10
-15
 20
55
 30
0
 11
-15.41628465777284
 21
57.5
 31
0
 12
-14.58371534222716
 22
57.5
 32
0
 13
-14.58371534222716
 23
57.5
 33
0
  0
SOLID
  5
12E
100
AcDbEntity
  8
measurement
  6
ByBlock
 62
    0
370
   -2
100
AcDbTrace
 10
-15
 20
85
 30
0
 11
-14.58371534222716
 21
82.5
 31
0
 12
-15.41628465777284
 22
82.5
 32
0
 13
-15.41628465777284
 23
82.5
 33
0
  0
ENDBLK
  5
89
330
87
100
AcDbEntity
  8
0
100
AcDbBlockEnd
  0
BLOCK
  5
8B
330
8A
100
AcDbEntity
  8
0
100
AcDbBlockBegin
  2
*D32
 70
    1
 10
0
 20
0
  3
*D32
  1

  0
LINE
  5
12F
100
AcDbEntity
  8
measurement
  6
ByBlock
 62
    0
370
   -2
100
AcDbLine
 10
44.55376989281564
 20
159.1439267977816
 11
44.55376989281564
 21
221.25
  0
LINE
  5
130
100
AcDbEntity
  8
measurement
  6
ByBlock
 62
    0
370
   -2
100
AcDbLine
 10
205.4462301071844
 20
159.1439267977816
 11
205.4462301071844
 21
221.25
  0
LINE
  5
131
100
AcDbEntity
  8
measurement
  6
ByBlock
 62
    0
370
   -2
100
AcDbLine
 10
44.55376989281564
 20
220
 11
205.4462301071844
 21
220
  0
MTEXT
  5
132
100
AcDbEntity
  8
measurement
  6
CONTINUOUS
 62
    0
370
   -2
100
AcDbMText
 10
124.9999999999999
 20
221.875
 30
0
 40
2.5
 41
9.166666666666822
 71
    5
 72
    1
  1
160.89
  7
standard
210
0
220
0
230
1
 50
0
 73
    2
 44
1
  0
SOLID
  5
133
100
AcDbEntity
  8
measurement
  6
ByBlock
 62
    0
370
   -2
100
AcDbTrace
 10
44.55376989281564
 20
220
 30
0
 11
47.05376989281564
 21
220.4162846577728
 31
0
 12
47.05376989281564
 22
219.5837153422272
 32
0
 13
47.05376989281564
 23
219.5837153422272
 33
0
  0
SOLID
  5
134
100
AcDbEntity
  8
measurement
  6
ByBlock
 62
    0
370
   -2
100
AcDbTrace
 10
205.4462301071844
 20
220
 30
0
 11
202.9462301071844
 21
219.5837153422272
 31
0
 12
202.9462301071844
 22
220.4162846577728
 32
0
 13
202.9462301071844
 23
220.4162846577728
 33
0
  0
ENDBLK
  5
8C
330
8A
100
AcDbEntity
  8
0
100
AcDbBlockEnd
  0
BLOCK
  5
8E
330
8D
100
AcDbEntity
  8
0
100
AcDbBlockBegin
  2
*D6
 70
    1
 10
0
 20
0
  3
*D6
  1

  0
LINE
  5
135
100
AcDbEntity
  8
measurement
  6
ByBlock
 62
    0
370
   -2
100
AcDbLine
 10
119.125
 20
84
 11
131.25
 21
84
  0
LINE
  5
136
100
AcDbEntity
  8
measurement
  6
ByBlock
 62
    0
370
   -2
100
AcDbLine
 10
119.125
 20
66
 11
131.25
 21
66
  0
LINE
  5
137
100
AcDbEntity
  8
measurement
  6
ByBlock
 62
    0
370
   -2
100
AcDbLine
 10
130
 20
84
 11
130
 21
66
  0
MTEXT
  5
138
100
AcDbEntity
  8
measurement
  6
CONTINUOUS
 62
    0
370
   -2
100
AcDbMText
 10
128.125
 20
75
 30
0
 40
2.5
 41
7.222222222222223
 71
    5
 72
    1
  1
18.00
  7
standard
210
0
220
0
230
1
 50
90
 73
    2
 44
1
  0
SOLID
  5
139
100
AcDbEntity
  8
measurement
  6
ByBlock
 62
    0
370
   -2
100
AcDbTrace
 10
130
 20
84
 30
0
 11
130.4162846577728
 21
81.5
 31
0
 12
129.5837153422272
 22
81.5
 32
0
 13
129.5837153422272
 23
81.5
 33
0
  0
SOLID
  5
13A
100
AcDbEntity
  8
measurement
  6
ByBlock
 62
    0
370
   -2
100
AcDbTrace
 10
130
 20
66
 30
0
 11
129.5837153422272
 21
68.5
 31
0
 12
130.4162846577728
 22
68.5
 32
0
 13
130.4162846577728
 23
68.5
 33
0
  0
ENDBLK
  5
8F
330
8D
100
AcDbEntity
  8
0
100
AcDbBlockEnd
  0
BLOCK
  5
91
330
90
100
AcDbEntity
  8
0
100
AcDbBlockBegin
  2
*D18
 70
    1
 10
0
 20
0
  3
*D18
  1

  0
LINE
  5
13B
100
AcDbEntity
  8
measurement
  6
ByBlock
 62
    0
370
   -2
100
AcDbLine
 10
13
 20
10.625
 11
13
 21
20.25
  0
LINE
  5
13C
100
AcDbEntity
  8
measurement
  6
ByBlock
 62
    0
370
   -2
100
AcDbLine
 10
15
 20
10.625
 11
15
 21
20.25
  0
LINE
  5
13D
100
AcDbEntity
  8
measurement
  6
ByBlock
 62
    0
370
   -2
100
AcDbLine
 10
8
 20
19
 11
20
 21
19
  0
MTEXT
  5
13E
100
AcDbEntity
  8
measurement
  6
CONTINUOUS
 62
    0
370
   -2
100
AcDbMText
 10
18.54166666666667
 20
20.875
 30
0
 40
2.5
 41
5.833333333333334
 71
    5
 72
    1
  1
2.00
  7
standard
210
0
220
0
230
1
 50
0
 73
    2
 44
1
  0
SOLID
  5
13F
100
AcDbEntity
  8
measurement
  6
ByBlock
 62
    0
370
   -2
100
AcDbTrace
 10
13
 20
19
 30
0
 11
10.5
 21
18.58371534222716
 31
0
 12
10.5
 22
19.41628465777284
 32
0
 13
10.5
 23
19.41628465777284
 33
0
  0
SOLID
  5
140
100
AcDbEntity
  8
measurement
  6
ByBlock
 62
    0
370
   -2
100
AcDbTrace
 10
15
 20
19
 30
0
 11
17.5
 21
19.41628465777284
 31
0
 12
17.5
 22
18.58371534222716
 32
0
 13
17.5
 23
18.58371534222716
 33
0
  0
ENDBLK
  5
92
330
90
100
AcDbEntity
  8
0
100
AcDbBlockEnd
  0
BLOCK
  5
94
330
93
100
AcDbEntity
  8
0
100
AcDbBlockBegin
  2
*D24
 70
    1
 10
0
 20
0
  3
*D24
  1

  0
LINE
  5
141
100
AcDbEntity
  8
measurement
  6
ByBlock
 62
    0
370
   -2
100
AcDbLine
 10
356.625
 20
64
 11
433.25
 21
64
  0
LINE
  5
142
100
AcDbEntity
  8
measurement
  6
ByBlock
 62
    0
370
   -2
100
AcDbLine
 10
356.625
 20
-6
 11
433.25
 21
-6
  0
LINE
  5
143
100
AcDbEntity
  8
measurement
  6
ByBlock
 62
    0
370
   -2
100
AcDbLine
 10
432
 20
64
 11
432
 21
-6
  0
MTEXT
  5
144
100
AcDbEntity
  8
measurement
  6
CONTINUOUS
 62
    0
370
   -2
100
AcDbMText
 10
430.125
 20
29
 30
0
 40
2.5
 41
7.777777777777779
 71
    5
 72
    1
  1
70.00
  7
standard
210
0
220
0
230
1
 50
90
 73
    2
 44
1
  0
SOLID
  5
145
100
AcDbEntity
  8
measurement
  6
ByBlock
 62
    0
370
   -2
100
AcDbTrace
 10
432
 20
64
 30
0
 11
432.4162846577728
 21
61.5
 31
0
 12
431.5837153422272
 22
61.5
 32
0
 13
431.5837153422272
 23
61.5
 33
0
  0
SOLID
  5
146
100
AcDbEntity
  8
measurement
  6
ByBlock
 62
    0
370
   -2
100
AcDbTrace
 10
432
 20
-6
 30
0
 11
431.5837153422272
 21
-3.5
 31
0
 12
432.4162846577728
 22
-3.5
 32
0
 13
432.4162846577728
 23
-3.5
 33
0
  0
ENDBLK
  5
95
330
93
100
AcDbEntity
  8
0
100
AcDbBlockEnd
  0
BLOCK
  5
97
330
96
100
AcDbEntity
  8
0
100
AcDbBlockBegin
  2
*D35
 70
    1
 10
0
 20
0
  3
*D35
  1

  0
LINE
  5
147
100
AcDbEntity
  8
measurement
  6
ByBlock
 62
    0
370
   -2
100
AcDbLine
 10
110.5056879683638
 20
117.8524945499968
 11
110.719354259018
 21
146.5535351675331
  0
LINE
  5
148
100
AcDbEntity
  8
measurement
  6
ByBlock
 62
    0
370
   -2
100
AcDbLine
 10
160.5042339212092
 20
117.4802779466267
 11
160.7179002118634
 21
146.181318564163
  0
LINE
  5
149
100
AcDbEntity
  8
measurement
  6
ByBlock
 62
    0
370
   -2
100
AcDbLine
 10
110.7100488311715
 20
145.303569804408
 11
160.708594784017
 21
144.9313532010379
  0
MTEXT
  5
14A
100
AcDbEntity
  8
measurement
  6
CONTINUOUS
 62
    0
370
   -2
100
AcDbMText
 10
135.7232799493639
 20
146.9924095474107
 30
0
 40
2.5
 41
7.777777777777933
 71
    5
 72
    1
  1
50.00
  7
standard
210
0
220
0
230
1
 50
359.5734666665845
 73
    2
 44
1
  0
SOLID
  5
14B
100
AcDbEntity
  8
measurement
  6
ByBlock
 62
    0
370
   -2
100
AcDbTrace
 10
110.7100488311715
 20
145.303569804408
 30
0
 11
113.213078522899
 21
145.7012320714482
 31
0
 12
113.2068805919446
 22
144.8686858259819
 32
0
 13
113.2068805919446
 23
144.8686858259819
 33
0
  0
SOLID
  5
14C
100
AcDbEntity
  8
measurement
  6
ByBlock
 62
    0
370
   -2
100
AcDbTrace
 10
160.708594784017
 20
144.9313532010379
 30
0
 11
158.2055650922894
 21
144.5336909339977
 31
0
 12
158.2117630232438
 22
145.366237179464
 32
0
 13
158.2117630232438
 23
145.366237179464
 33
0
  0
ENDBLK
  5
98
330
96
100
AcDbEntity
  8
0
100
AcDbBlockEnd
  0
BLOCK
  5
9A
330
99
100
AcDbEntity
  8
0
100
AcDbBlockBegin
  2
*D25
 70
    1
 10
0
 20
0
  3
*D25
  1

  0
LINE
  5
14D
100
AcDbEntity
  8
measurement
  6
ByBlock
 62
    0
370
   -2
100
AcDbLine
 10
25
 20
-0.625
 11
25
 21
-10.25
  0
LINE
  5
14E
100
AcDbEntity
  8
measurement
  6
ByBlock
 62
    0
370
   -2
100
AcDbLine
 10
225
 20
-0.625
 11
225
 21
-10.25
  0
LINE
  5
14F
100
AcDbEntity
  8
measurement
  6
ByBlock
 62
    0
370
   -2
100
AcDbLine
 10
25
 20
-9
 11
225
 21
-9
  0
MTEXT
  5
150
100
AcDbEntity
  8
measurement
  6
CONTINUOUS
 62
    0
370
   -2
100
AcDbMText
 10
125
 20
-7.125
 30
0
 40
2.5
 41
9.722222222222221
 71
    5
 72
    1
  1
200.00
  7
standard
210
0
220
0
230
1
 50
0
 73
    2
 44
1
  0
SOLID
  5
151
100
AcDbEntity
  8
measurement
  6
ByBlock
 62
    0
370
   -2
100
AcDbTrace
 10
25
 20
-9
 30
0
 11
27.5
 21
-8.58371534222716
 31
0
 12
27.5
 22
-9.416284657772842
 32
0
 13
27.5
 23
-9.416284657772842
 33
0
  0
SOLID
  5
152
100
AcDbEntity
  8
measurement
  6
ByBlock
 62
    0
370
   -2
100
AcDbTrace
 10
225
 20
-9
 30
0
 11
222.5
 21
-9.41628465777284
 31
0
 12
222.5
 22
-8.58371534222716
 32
0
 13
222.5
 23
-8.58371534222716
 33
0
  0
ENDBLK
  5
9B
330
99
100
AcDbEntity
  8
0
100
AcDbBlockEnd
  0
BLOCK
  5
9D
330
9C
100
AcDbEntity
  8
0
100
AcDbBlockBegin
  2
*D29
 70
    1
 10
0
 20
0
  3
*D29
  1

  0
LINE
  5
153
100
AcDbEntity
  8
measurement
  6
ByBlock
 62
    0
370
   -2
100
AcDbLine
 10
125.625
 20
205
 11
257.25
 21
205
  0
LINE
  5
154
100
AcDbEntity
  8
measurement
  6
ByBlock
 62
    0
370
   -2
100
AcDbLine
 10
125.625
 20
95
 11
257.25
 21
95
  0
LINE
  5
155
100
AcDbEntity
  8
measurement
  6
ByBlock
 62
    0
370
   -2
100
AcDbLine
 10
256
 20
205
 11
256
 21
95
  0
MTEXT
  5
156
100
AcDbEntity
  8
measurement
  6
CONTINUOUS
 62
    0
370
   -2
100
AcDbMText
 10
254.125
 20
150
 30
0
 40
2.5
 41
8.611111111111111
 71
    5
 72
    1
  1
110.00
  7
standard
210
0
220
0
230
1
 50
90
 73
    2
 44
1
  0
SOLID
  5
157
100
AcDbEntity
  8
measurement
  6
ByBlock
 62
    0
370
   -2
100
AcDbTrace
 10
256
 20
205
 30
0
 11
256.4162846577728
 21
202.5
 31
0
 12
255.5837153422272
 22
202.5
 32
0
 13
255.5837153422272
 23
202.5
 33
0
  0
SOLID
  5
158
100
AcDbEntity
  8
measurement
  6
ByBlock
 62
    0
370
   -2
100
AcDbTrace
 10
256
 20
95
 30
0
 11
255.5837153422272
 21
97.5
 31
0
 12
256.4162846577728
 22
97.5
 32
0
 13
256.4162846577728
 23
97.5
 33
0
  0
ENDBLK
  5
9E
330
9C
100
AcDbEntity
  8
0
100
AcDbBlockEnd
  0
BLOCK
  5
A0
330
9F
100
AcDbEntity
  8
0
100
AcDbBlockBegin
  2
*D23
 70
    1
 10
0
 20
0
  3
*D23
  1

  0
LINE
  5
159
100
AcDbEntity
  8
measurement
  6
ByBlock
 62
    0
370
   -2
100
AcDbLine
 10
290.614771388634
 20
39.58594222222764
 11
290.6056739298409
 21
70.04882175296839
  0
LINE
  5
15A
100
AcDbEntity
  8
measurement
  6
ByBlock
 62
    0
370
   -2
100
AcDbLine
 10
421.3998133495068
 20
39.62499997212927
 11
421.3907158907137
 21
70.08787950287002
  0
LINE
  5
15B
100
AcDbEntity
  8
measurement
  6
ByBlock
 62
    0
370
   -2
100
AcDbLine
 10
290.6060472308275
 20
68.79882180870985
 11
421.3910891917003
 21
68.83787955861148
  0
MTEXT
  5
15C
100
AcDbEntity
  8
measurement
  6
CONTINUOUS
 62
    0
370
   -2
100
AcDbMText
 10
355.9980082597839
 20
70.69335060004849
 30
0
 40
2.5
 41
9.166666666666822
 71
    5
 72
    1
  1
130.79
  7
standard
210
0
220
0
230
1
 50
0.01711085707172503
 73
    2
 44
1
  0
SOLID
  5
15D
100
AcDbEntity
  8
measurement
  6
ByBlock
 62
    0
370
   -2
100
AcDbTrace
 10
290.6060472308275
 20
68.79882180870985
 30
0
 11
293.1059227997658
 21
69.21585304989249
 31
0
 12
293.1061714389234
 22
68.3832837714737
 32
0
 13
293.1061714389234
 23
68.3832837714737
 33
0
  0
SOLID
  5
15E
100
AcDbEntity
  8
measurement
  6
ByBlock
 62
    0
370
   -2
100
AcDbTrace
 10
421.3910891917003
 20
68.83787955861148
 30
0
 11
418.891213622762
 21
68.42084831742883
 31
0
 12
418.8909649836044
 22
69.25341759584762
 32
0
 13
418.8909649836044
 23
69.25341759584762
 33
0
  0
ENDBLK
  5
A1
330
9F
100
AcDbEntity
  8
0
100
AcDbBlockEnd
  0
BLOCK
  5
A3
330
A2
100
AcDbEntity
  8
0
100
AcDbBlockBegin
  2
*D17
 70
    1
 10
0
 20
0
  3
*D17
  1

  0
LINE
  5
15F
100
AcDbEntity
  8
measurement
  6
ByBlock
 62
    0
370
   -2
100
AcDbLine
 10
-2.000000068749298
 20
95.625
 11
-2.000003659631768
 21
128.2697194849168
  0
LINE
  5
160
100
AcDbEntity
  8
measurement
  6
ByBlock
 62
    0
370
   -2
100
AcDbLine
 10
14.99999993125069
 20
95.62500186998091
 11
14.99999634036822
 21
128.2697213548977
  0
LINE
  5
161
100
AcDbEntity
  8
measurement
  6
ByBlock
 62
    0
370
   -2
100
AcDbLine
 10
-2.000003522133173
 20
127.0197194849168
 11
14.99999647786682
 21
127.0197213548977
  0
MTEXT
  5
162
100
AcDbEntity
  8
measurement
  6
CONTINUOUS
 62
    0
370
   -2
100
AcDbMText
 10
6.499996271618921
 20
128.8947204199073
 30
0
 40
2.5
 41
7.222222222222223
 71
    5
 72
    1
  1
17.00
  7
standard
210
0
220
0
230
1
 50
6.302471384597699e-06
 73
    2
 44
1
  0
SOLID
  5
163
100
AcDbEntity
  8
measurement
  6
ByBlock
 62
    0
370
   -2
100
AcDbTrace
 10
-2.000003522133173
 20
127.0197194849168
 30
0
 11
0.4999964320759673
 21
127.4360044176868
 31
0
 12
0.4999965236576567
 22
126.6034351021412
 32
0
 13
0.4999965236576567
 23
126.6034351021412
 33
0
  0
SOLID
  5
164
100
AcDbEntity
  8
measurement
  6
ByBlock
 62
    0
370
   -2
100
AcDbTrace
 10
14.99999647786682
 20
127.0197213548977
 30
0
 11
12.49999652365767
 21
126.6034364221277
 31
0
 12
12.49999643207599
 22
127.4360057376734
 32
0
 13
12.49999643207599
 23
127.4360057376734
 33
0
  0
ENDBLK
  5
A4
330
A2
100
AcDbEntity
  8
0
100
AcDbBlockEnd
  0
BLOCK
  5
A6
330
A5
100
AcDbEntity
  8
0
100
AcDbBlockBegin
  2
*D16
 70
    1
 10
0
 20
0
  3
*D16
  1

  0
LINE
  5
165
100
AcDbEntity
  8
measurement
  6
ByBlock
 62
    0
370
   -2
100
AcDbLine
 10
194.375
 20
30
 11
183.75
 21
30
  0
LINE
  5
166
100
AcDbEntity
  8
measurement
  6
ByBlock
 62
    0
370
   -2
100
AcDbLine
 10
194.375
 20
7.654042494670958e-17
 11
183.75
 21
1.377727649040772e-15
  0
LINE
  5
167
100
AcDbEntity
  8
measurement
  6
ByBlock
 62
    0
370
   -2
100
AcDbLine
 10
185
 20
30
 11
185
 21
1.224646799147353e-15
  0
MTEXT
  5
168
100
AcDbEntity
  8
measurement
  6
CONTINUOUS
 62
    0
370
   -2
100
AcDbMText
 10
183.125
 20
15.00000000000001
 30
0
 40
2.5
 41
7.777777777777933
 71
    5
 72
    1
  1
30.00
  7
standard
210
0
220
0
230
1
 50
90
 73
    2
 44
1
  0
SOLID
  5
169
100
AcDbEntity
  8
measurement
  6
ByBlock
 62
    0
370
   -2
100
AcDbTrace
 10
185
 20
30
 30
0
 11
185.4162846577728
 21
27.5
 31
0
 12
184.5837153422272
 22
27.5
 32
0
 13
184.5837153422272
 23
27.5
 33
0
  0
SOLID
  5
16A
100
AcDbEntity
  8
measurement
  6
ByBlock
 62
    0
370
   -2
100
AcDbTrace
 10
185
 20
1.224646799147353e-15
 30
0
 11
184.5837153422272
 21
2.500000000000001
 31
0
 12
185.4162846577728
 22
2.500000000000001
 32
0
 13
185.4162846577728
 23
2.500000000000001
 33
0
  0
ENDBLK
  5
A7
330
A5
100
AcDbEntity
  8
0
100
AcDbBlockEnd
  0
BLOCK
  5
A9
330
A8
100
AcDbEntity
  8
0
100
AcDbBlockBegin
  2
*D13
 70
    1
 10
0
 20
0
  3
*D13
  1

  0
LINE
  5
16B
100
AcDbEntity
  8
measurement
  6
ByBlock
 62
    0
370
   -2
100
AcDbLine
 10
117.875
 20
66
 11
108.75
 21
66
  0
LINE
  5
16C
100
AcDbEntity
  8
measurement
  6
ByBlock
 62
    0
370
   -2
100
AcDbLine
 10
117.875
 20
72.5
 11
108.75
 21
72.5
  0
LINE
  5
16D
100
AcDbEntity
  8
measurement
  6
ByBlock
 62
    0
370
   -2
100
AcDbLine
 10
110
 20
66
 11
110
 21
72.5
  0
MTEXT
  5
16E
100
AcDbEntity
  8
measurement
  6
CONTINUOUS
 62
    0
370
   -2
100
AcDbMText
 10
108.125
 20
69.25000000000001
 30
0
 40
2.5
 41
5.833333333333643
 71
    5
 72
    1
  1
6.50
  7
standard
210
0
220
0
230
1
 50
90
 73
    2
 44
1
  0
SOLID
  5
16F
100
AcDbEntity
  8
measurement
  6
ByBlock
 62
    0
370
   -2
100
AcDbTrace
 10
110
 20
66
 30
0
 11
109.5837153422272
 21
68.5
 31
0
 12
110.4162846577728
 22
68.5
 32
0
 13
110.4162846577728
 23
68.5
 33
0
  0
SOLID
  5
170
100
AcDbEntity
  8
measurement
  6
ByBlock
 62
    0
370
   -2
100
AcDbTrace
 10
110
 20
72.5
 30
0
 11
110.4162846577728
 21
70
 31
0
 12
109.5837153422272
 22
70
 32
0
 13
109.5837153422272
 23
70
 33
0
  0
ENDBLK
  5
AA
330
A8
100
AcDbEntity
  8
0
100
AcDbBlockEnd
  0
BLOCK
  5
AC
330
AB
100
AcDbEntity
  8
0
100
AcDbBlockBegin
  2
*D27
 70
    1
 10
0
 20
0
  3
*D27
  1

  0
LINE
  5
171
100
AcDbEntity
  8
measurement
  6
ByBlock
 62
    0
370
   -2
100
AcDbLine
 10
15
 20
9.375
 11
15
 21
-10.25
  0
LINE
  5
172
100
AcDbEntity
  8
measurement
  6
ByBlock
 62
    0
370
   -2
100
AcDbLine
 10
25
 20
9.375
 11
25
 21
-10.25
  0
LINE
  5
173
100
AcDbEntity
  8
measurement
  6
ByBlock
 62
    0
370
   -2
100
AcDbLine
 10
15
 20
-9
 11
25
 21
-9
  0
MTEXT
  5
174
100
AcDbEntity
  8
measurement
  6
CONTINUOUS
 62
    0
370
   -2
100
AcDbMText
 10
20
 20
-7.125
 30
0
 40
2.5
 41
7.222222222222223
 71
    5
 72
    1
  1
10.00
  7
standard
210
0
220
0
230
1
 50
0
 73
    2
 44
1
  0
SOLID
  5
175
100
AcDbEntity
  8
measurement
  6
ByBlock
 62
    0
370
   -2
100
AcDbTrace
 10
15
 20
-9
 30
0
 11
17.5
 21
-8.58371534222716
 31
0
 12
17.5
 22
-9.416284657772842
 32
0
 13
17.5
 23
-9.416284657772842
 33
0
  0
SOLID
  5
176
100
AcDbEntity
  8
measurement
  6
ByBlock
 62
    0
370
   -2
100
AcDbTrace
 10
25
 20
-9
 30
0
 11
22.5
 21
-9.41628465777284
 31
0
 12
22.5
 22
-8.58371534222716
 32
0
 13
22.5
 23
-8.58371534222716
 33
0
  0
ENDBLK
  5
AD
330
AB
100
AcDbEntity
  8
0
100
AcDbBlockEnd
  0
BLOCK
  5
AF
330
AE
100
AcDbEntity
  8
0
100
AcDbBlockBegin
  2
*D2
 70
    1
 10
0
 20
0
  3
*D2
  1

  0
LINE
  5
177
100
AcDbEntity
  8
measurement
  6
ByBlock
 62
    0
370
   -2
100
AcDbLine
 10
122.5
 20
196.875
 11
122.5
 21
191.75
  0
LINE
  5
178
100
AcDbEntity
  8
measurement
  6
ByBlock
 62
    0
370
   -2
100
AcDbLine
 10
127.5
 20
196.875
 11
127.5
 21
191.75
  0
LINE
  5
179
100
AcDbEntity
  8
measurement
  6
ByBlock
 62
    0
370
   -2
100
AcDbLine
 10
117.5
 20
193
 11
132.5
 21
193
  0
MTEXT
  5
17A
100
AcDbEntity
  8
measurement
  6
CONTINUOUS
 62
    0
370
   -2
100
AcDbMText
 10
131.0416666666667
 20
194.875
 30
0
 40
2.5
 41
5.833333333333488
 71
    5
 72
    1
  1
5.00
  7
standard
210
0
220
0
230
1
 50
0
 73
    2
 44
1
  0
SOLID
  5
17B
100
AcDbEntity
  8
measurement
  6
ByBlock
 62
    0
370
   -2
100
AcDbTrace
 10
122.5
 20
193
 30
0
 11
120
 21
192.5837153422272
 31
0
 12
120
 22
193.4162846577728
 32
0
 13
120
 23
193.4162846577728
 33
0
  0
SOLID
  5
17C
100
AcDbEntity
  8
measurement
  6
ByBlock
 62
    0
370
   -2
100
AcDbTrace
 10
127.5
 20
193
 30
0
 11
130
 21
193.4162846577728
 31
0
 12
130
 22
192.5837153422272
 32
0
 13
130
 23
192.5837153422272
 33
0
  0
ENDBLK
  5
B0
330
AE
100
AcDbEntity
  8
0
100
AcDbBlockEnd
  0
BLOCK
  5
B2
330
B1
100
AcDbEntity
  8
0
100
AcDbBlockBegin
  2
*D9
 70
    1
 10
0
 20
0
  3
*D9
  1

  0
LINE
  5
17D
100
AcDbEntity
  8
measurement
  6
ByBlock
 62
    0
370
   -2
100
AcDbLine
 10
190.75
 20
30.625
 11
190.75
 21
41.25
  0
LINE
  5
17E
100
AcDbEntity
  8
measurement
  6
ByBlock
 62
    0
370
   -2
100
AcDbLine
 10
199.25
 20
30.625
 11
199.25
 21
41.25
  0
LINE
  5
17F
100
AcDbEntity
  8
measurement
  6
ByBlock
 62
    0
370
   -2
100
AcDbLine
 10
190.75
 20
40
 11
199.25
 21
40
  0
MTEXT
  5
180
100
AcDbEntity
  8
measurement
  6
CONTINUOUS
 62
    0
370
   -2
100
AcDbMText
 10
195
 20
41.875
 30
0
 40
2.5
 41
5.83333333333349
 71
    5
 72
    1
  1
8.50
  7
standard
210
0
220
0
230
1
 50
0
 73
    2
 44
1
  0
SOLID
  5
181
100
AcDbEntity
  8
measurement
  6
ByBlock
 62
    0
370
   -2
100
AcDbTrace
 10
190.75
 20
40
 30
0
 11
193.25
 21
40.41628465777284
 31
0
 12
193.25
 22
39.58371534222716
 32
0
 13
193.25
 23
39.58371534222716
 33
0
  0
SOLID
  5
182
100
AcDbEntity
  8
measurement
  6
ByBlock
 62
    0
370
   -2
100
AcDbTrace
 10
199.25
 20
40
 30
0
 11
196.75
 21
39.58371534222716
 31
0
 12
196.75
 22
40.41628465777284
 32
0
 13
196.75
 23
40.41628465777284
 33
0
  0
ENDBLK
  5
B3
330
B1
100
AcDbEntity
  8
0
100
AcDbBlockEnd
  0
BLOCK
  5
B5
330
B4
100
AcDbEntity
  8
0
100
AcDbBlockBegin
  2
*D19
 70
    1
 10
0
 20
0
  3
*D19
  1

  0
LINE
  5
183
100
AcDbEntity
  8
measurement
  6
ByBlock
 62
    0
370
   -2
100
AcDbLine
 10
3.000000000000179
 20
54.375
 11
3.000000000000178
 21
47.75
  0
LINE
  5
184
100
AcDbEntity
  8
measurement
  6
ByBlock
 62
    0
370
   -2
100
AcDbLine
 10
7.999999999999999
 20
54.375
 11
7.999999999999998
 21
47.75
  0
LINE
  5
185
100
AcDbEntity
  8
measurement
  6
ByBlock
 62
    0
370
   -2
100
AcDbLine
 10
-1.999999999999822
 20
49
 11
13
 21
49
  0
MTEXT
  5
186
100
AcDbEntity
  8
measurement
  6
CONTINUOUS
 62
    0
370
   -2
100
AcDbMText
 10
11.54166666666674
 20
50.875
 30
0
 40
2.5
 41
5.833333333333488
 71
    5
 72
    1
  1
5.00
  7
standard
210
0
220
0
230
1
 50
0
 73
    2
 44
1
  0
SOLID
  5
187
100
AcDbEntity
  8
measurement
  6
ByBlock
 62
    0
370
   -2
100
AcDbTrace
 10
3.000000000000178
 20
49
 30
0
 11
0.5000000000001781
 21
48.58371534222716
 31
0
 12
0.5000000000001781
 22
49.41628465777284
 32
0
 13
0.5000000000001781
 23
49.41628465777284
 33
0
  0
SOLID
  5
188
100
AcDbEntity
  8
measurement
  6
ByBlock
 62
    0
370
   -2
100
AcDbTrace
 10
7.999999999999998
 20
49
 30
0
 11
10.5
 21
49.41628465777284
 31
0
 12
10.5
 22
48.58371534222716
 32
0
 13
10.5
 23
48.58371534222716
 33
0
  0
ENDBLK
  5
B6
330
B4
100
AcDbEntity
  8
0
100
AcDbBlockEnd
  0
BLOCK
  5
B8
330
B7
100
AcDbEntity
  8
0
100
AcDbBlockBegin
  2
*D30
 70
    1
 10
0
 20
0
  3
*D30
  1

  0
LINE
  5
189
100
AcDbEntity
  8
measurement
  6
ByBlock
 62
    0
370
   -2
100
AcDbLine
 10
24.375
 20
7.654042494670958e-17
 11
-16.25
 21
5.051668046482832e-15
  0
LINE
  5
18A
100
AcDbEntity
  8
measurement
  6
ByBlock
 62
    0
370
   -2
100
AcDbLine
 10
24.375
 20
10
 11
-16.25
 21
10.00000000000001
  0
LINE
  5
18B
100
AcDbEntity
  8
measurement
  6
ByBlock
 62
    0
370
   -2
100
AcDbLine
 10
-15
 20
4.898587196589413e-15
 11
-15
 21
10.00000000000001
  0
MTEXT
  5
18C
100
AcDbEntity
  8
measurement
  6
CONTINUOUS
 62
    0
370
   -2
100
AcDbMText
 10
-16.875
 20
5.000000000000005
 30
0
 40
2.5
 41
7.222222222222223
 71
    5
 72
    1
  1
10.00
  7
standard
210
0
220
0
230
1
 50
90
 73
    2
 44
1
  0
SOLID
  5
18D
100
AcDbEntity
  8
measurement
  6
ByBlock
 62
    0
370
   -2
100
AcDbTrace
 10
-15
 20
4.898587196589413e-15
 30
0
 11
-15.41628465777284
 21
2.500000000000005
 31
0
 12
-14.58371534222716
 22
2.500000000000005
 32
0
 13
-14.58371534222716
 23
2.500000000000005
 33
0
  0
SOLID
  5
18E
100
AcDbEntity
  8
measurement
  6
ByBlock
 62
    0
370
   -2
100
AcDbTrace
 10
-15
 20
10.00000000000001
 30
0
 11
-14.58371534222716
 21
7.500000000000005
 31
0
 12
-15.41628465777284
 22
7.500000000000005
 32
0
 13
-15.41628465777284
 23
7.500000000000005
 33
0
  0
ENDBLK
  5
B9
330
B7
100
AcDbEntity
  8
0
100
AcDbBlockEnd
  0
BLOCK
  5
BB
330
BA
100
AcDbEntity
  8
0
100
AcDbBlockBegin
  2
*D1
 70
    1
 10
0
 20
0
  3
*D1
  1

  0
LINE
  5
18F
100
AcDbEntity
  8
measurement
  6
ByBlock
 62
    0
370
   -2
100
AcDbLine
 10
-0.625
 20
7.654042494670958e-17
 11
-11.25
 21
1.377727649040772e-15
  0
LINE
  5
190
100
AcDbEntity
  8
measurement
  6
ByBlock
 62
    0
370
   -2
100
AcDbLine
 10
-0.625
 20
95
 11
-11.25
 21
95
  0
LINE
  5
191
100
AcDbEntity
  8
measurement
  6
ByBlock
 62
    0
370
   -2
100
AcDbLine
 10
-9.999999999999998
 20
1.224646799147353e-15
 11
-9.999999999999998
 21
95
  0
MTEXT
  5
192
100
AcDbEntity
  8
measurement
  6
CONTINUOUS
 62
    0
370
   -2
100
AcDbMText
 10
-11.875
 20
47.5
 30
0
 40
2.5
 41
7.777777777778242
 71
    5
 72
    1
  1
95.00
  7
standard
210
0
220
0
230
1
 50
90
 73
    2
 44
1
  0
SOLID
  5
193
100
AcDbEntity
  8
measurement
  6
ByBlock
 62
    0
370
   -2
100
AcDbTrace
 10
-9.999999999999998
 20
1.224646799147353e-15
 30
0
 11
-10.41628465777284
 21
2.500000000000001
 31
0
 12
-9.583715342227157
 22
2.500000000000001
 32
0
 13
-9.583715342227157
 23
2.500000000000001
 33
0
  0
SOLID
  5
194
100
AcDbEntity
  8
measurement
  6
ByBlock
 62
    0
370
   -2
100
AcDbTrace
 10
-9.999999999999998
 20
95
 30
0
 11
-9.583715342227158
 21
92.5
 31
0
 12
-10.41628465777284
 22
92.5
 32
0
 13
-10.41628465777284
 23
92.5
 33
0
  0
ENDBLK
  5
BC
330
BA
100
AcDbEntity
  8
0
100
AcDbBlockEnd
  0
ENDSEC
  0
SECTION
  2
ENTITIES
  0
LINE
  5
195
100
AcDbEntity
  8
0
  6
CONTINUOUS
 62
  256
370
   50
100
AcDbLine
 10
25
 20
0
 11
15
 21
10
  0
LINE
  5
196
100
AcDbEntity
  8
0
  6
CONTINUOUS
 62
  256
370
   50
100
AcDbLine
 10
25
 20
0
 11
225
 21
0
  0
LINE
  5
197
100
AcDbEntity
  8
0
  6
CONTINUOUS
 62
  256
370
   50
100
AcDbLine
 10
225
 20
0
 11
235
 21
10
  0
ARC
  5
198
100
AcDbEntity
  8
0
  6
ByLayer
 62
  256
370
   -1
100
AcDbCircle
 10
125
 20
95
 40
110
100
AcDbArc
 50
0
 51
180
  0
LINE
  5
199
100
AcDbEntity
  8
reference
  6
CENTER
 62
  256
370
    5
100
AcDbLine
 10
0
 20
95
 11
250
 21
95
  0
ARC
  5
19A
100
AcDbEntity
  8
reference
  6
ByLayer
 62
  256
370
   -1
100
AcDbCircle
 10
102.5
 20
100
 40
67.5
100
AcDbArc
 50
338.262
 51
338.262
  0
CIRCLE
  5
19B
100
AcDbEntity
  8
reference
  6
ByLayer
 62
  256
370
   -1
100
AcDbCircle
 10
102.5
 20
100
 40
2.5
  0
LINE
  5
19C
100
AcDbEntity
  8
reference
  6
CENTER
 62
  256
370
    5
100
AcDbLine
 10
102.5
 20
20
 11
102.5
 21
220
  0
CIRCLE
  5
19D
100
AcDbEntity
  8
0
  6
ByLayer
 62
  256
370
   -1
100
AcDbCircle
 10
102.5
 20
100
 40
7.5
  0
CIRCLE
  5
19E
100
AcDbEntity
  8
0
  6
ByLayer
 62
  256
370
   -1
100
AcDbCircle
 10
195
 20
30
 40
4.25
  0
LINE
  5
19F
100
AcDbEntity
  8
reference
  6
ByLayer
 62
  256
370
   -1
100
AcDbLine
 10
80.5
 20
91.00000000000001
 11
80.5
 21
59
  0
LINE
  5
1A0
100
AcDbEntity
  8
reference
  6
ByLayer
 62
  256
370
   -1
100
AcDbLine
 10
80.5
 20
59
 11
124.5
 21
59.00000000000001
  0
LINE
  5
1A1
100
AcDbEntity
  8
reference
  6
ByLayer
 62
  256
370
   -1
100
AcDbLine
 10
124.5
 20
59.00000000000001
 11
124.5
 21
91.00000000000001
  0
LINE
  5
1A2
100
AcDbEntity
  8
reference
  6
ByLayer
 62
  256
370
   -1
100
AcDbLine
 10
124.5
 20
91.00000000000001
 11
80.50000000000001
 21
91.00000000000001
  0
LINE
  5
1A3
100
AcDbEntity
  8
0
  6
CONTINUOUS
 62
  256
370
   50
100
AcDbLine
 10
40.90000000000001
 20
72.5
 11
164.1
 21
72.50000000000001
  0
ARC
  5
1A4
100
AcDbEntity
  8
0
  6
ByLayer
 62
  256
370
   -1
100
AcDbCircle
 10
102.5
 20
100
 40
67.5
100
AcDbArc
 50
204.0420759057562
 51
335.9579240942437
  0
DIMENSION
  5
1A5
100
AcDbEntity
  8
measurement
  6
ByLayer
 62
  256
370
   -1
100
AcDbDimension
  2
*D1
 10
-9.999999999999998
 20
95
 30
0
 11
-11.875
 21
47.5
 31
0
 70
   33
 71
    5
 72
    0
  3
Standard
 53
0
210
0
220
0
230
1
100
AcDbAlignedDimension
 13
0
 23
0
 33
0
 14
0
 24
95
 34
0
  0
DIMENSION
  5
1A6
100
AcDbEntity
  8
measurement
  6
ByLayer
 62
  256
370
   -1
100
AcDbDimension
  2
*D2
 10
127.5
 20
193
 30
0
 11
125
 21
194.875
 31
0
 70
   33
 71
    5
 72
    0
  3
Standard
 53
0
210
0
220
0
230
1
100
AcDbAlignedDimension
 13
122.5
 23
197.5
 33
0
 14
127.5
 24
197.5
 34
0
  0
DIMENSION
  5
1A7
100
AcDbEntity
  8
measurement
  6
ByLayer
 62
  256
370
   -1
100
AcDbDimension
  2
*D3
 10
110
 20
113
 30
0
 11
102.5
 21
114.875
 31
0
 70
   33
 71
    5
 72
    0
  3
Standard
 53
0
210
0
220
0
230
1
100
AcDbAlignedDimension
 13
95
 23
100
 33
0
 14
110
 24
100
 34
0
  0
DIMENSION
  5
1A8
100
AcDbEntity
  8
measurement
  6
ByLayer
 62
  256
370
   -1
100
AcDbDimension
  2
*D4
 10
88
 20
90
 30
0
 11
86.5
 21
91.875
 31
0
 70
   33
 71
    5
 72
    0
  3
Standard
 53
0
210
0
220
0
230
1
100
AcDbAlignedDimension
 13
85
 23
84
 33
0
 14
88
 24
84
 34
0
  0
DIMENSION
  5
1A9
100
AcDbEntity
  8
measurement
  6
ByLayer
 62
  256
370
   -1
100
AcDbDimension
  2
*D5
 10
102.5
 20
78
 30
0
 11
94.5
 21
79.875
 31
0
 70
   33
 71
    5
 72
    0
  3
Standard
 53
0
210
0
220
0
230
1
100
AcDbAlignedDimension
 13
86.5
 23
84
 33
0
 14
102.5
 24
84
 34
0
  0
DIMENSION
  5
1AA
100
AcDbEntity
  8
measurement
  6
ByLayer
 62
  256
370
   -1
100
AcDbDimension
  2
*D6
 10
130
 20
66
 30
0
 11
128.125
 21
75
 31
0
 70
   33
 71
    5
 72
    0
  3
Standard
 53
0
210
0
220
0
230
1
100
AcDbAlignedDimension
 13
118.5
 23
84
 33
0
 14
118.5
 24
66
 34
0
  0
DIMENSION
  5
1AB
100
AcDbEntity
  8
measurement
  6
ByLayer
 62
  256
370
   -1
100
AcDbDimension
  2
*D7
 10
102.491750438996
 20
50.99929950315359
 30
0
 11
97.48916621573188
 21
52.8674064537139
 31
0
 70
   33
 71
    5
 72
    0
  3
Standard
 53
0
210
0
220
0
230
1
100
AcDbAlignedDimension
 13
92.5
 23
45
 33
0
 14
102.5
 24
45.01378253716577
 34
0
  0
DIMENSION
  5
1AC
100
AcDbEntity
  8
measurement
  6
ByLayer
 62
  256
370
   -1
100
AcDbDimension
  2
*D8
 10
170
 20
72.5
 30
0
 11
168.125
 21
69.99999999999993
 31
0
 70
   33
 71
    5
 72
    0
  3
Standard
 53
0
210
0
220
0
230
1
100
AcDbAlignedDimension
 13
155
 23
67.5
 33
0
 14
155
 24
72.5
 34
0
  0
DIMENSION
  5
1AD
100
AcDbEntity
  8
measurement
  6
ByLayer
 62
  256
370
   -1
100
AcDbDimension
  2
*D9
 10
199.25
 20
40
 30
0
 11
195
 21
41.875
 31
0
 70
   33
 71
    5
 72
    0
  3
Standard
 53
0
210
0
220
0
230
1
100
AcDbAlignedDimension
 13
190.75
 23
30
 33
0
 14
199.25
 24
30
 34
0
  0
DIMENSION
  5
1AE
100
AcDbEntity
  8
measurement
  6
ByLayer
 62
  256
370
   -1
100
AcDbDimension
  2
*D10
 10
235
 20
17
 30
0
 11
215
 21
18.875
 31
0
 70
   33
 71
    5
 72
    0
  3
Standard
 53
0
210
0
220
0
230
1
100
AcDbAlignedDimension
 13
195
 23
30
 33
0
 14
235
 24
30
 34
0
  0
DIMENSION
  5
1AF
100
AcDbEntity
  8
measurement
  6
ByLayer
 62
  256
370
   -1
100
AcDbDimension
  2
*D11
 10
247
 20
-4.210806588183069e-15
 30
0
 11
245.125
 21
12.5
 31
0
 70
   33
 71
    5
 72
    0
  3
Standard
 53
0
210
0
220
0
230
1
100
AcDbAlignedDimension
 13
242.5
 23
25
 33
0
 14
242.5
 24
0
 34
0
  0
DIMENSION
  5
1B0
100
AcDbEntity
  8
measurement
  6
ByLayer
 62
  256
370
   -1
100
AcDbDimension
  2
*D12
 10
110
 20
72.5
 30
0
 11
108.125
 21
78.24999999999999
 31
0
 70
   33
 71
    5
 72
    0
  3
Standard
 53
0
210
0
220
0
230
1
100
AcDbAlignedDimension
 13
119
 23
84
 33
0
 14
119
 24
72.5
 34
0
  0
DIMENSION
  5
1B1
100
AcDbEntity
  8
measurement
  6
ByLayer
 62
  256
370
   -1
100
AcDbDimension
  2
*D13
 10
110
 20
72.5
 30
0
 11
108.125
 21
69.25000000000001
 31
0
 70
   33
 71
    5
 72
    0
  3
Standard
 53
0
210
0
220
0
230
1
100
AcDbAlignedDimension
 13
118.5
 23
66
 33
0
 14
118.5
 24
72.5
 34
0
  0
DIMENSION
  5
1B2
100
AcDbEntity
  8
measurement
  6
ByLayer
 62
  256
370
   -1
100
AcDbDimension
  2
*D14
 10
110
 20
66
 30
0
 11
108.125
 21
55.50689126858288
 31
0
 70
   33
 71
    5
 72
    0
  3
Standard
 53
0
210
0
220
0
230
1
100
AcDbAlignedDimension
 13
102.5
 23
45.01378253716577
 33
0
 14
102.5
 24
66
 34
0
  0
DIMENSION
  5
1B3
100
AcDbEntity
  8
measurement
  6
ByLayer
 62
  256
370
   -1
100
AcDbDimension
  2
*D15
 10
114
 20
84
 30
0
 11
112.125
 21
92
 31
0
 70
   33
 71
    5
 72
    0
  3
Standard
 53
0
210
0
220
0
230
1
100
AcDbAlignedDimension
 13
102.5
 23
100
 33
0
 14
102.5
 24
84
 34
0
  0
DIMENSION
  5
1B4
100
AcDbEntity
  8
measurement
  6
ByLayer
 62
  256
370
   -1
100
AcDbDimension
  2
*D16
 10
185
 20
-1.103420080505794e-15
 30
0
 11
183.125
 21
15.00000000000001
 31
0
 70
   33
 71
    5
 72
    0
  3
Standard
 53
0
210
0
220
0
230
1
100
AcDbAlignedDimension
 13
195
 23
30
 33
0
 14
195
 24
0
 34
0
  0
LINE
  5
1B5
100
AcDbEntity
  8
0
  6
CONTINUOUS
 62
  256
370
   50
100
AcDbLine
 10
-2
 20
95
 11
15
 21
95
  0
LINE
  5
1B6
100
AcDbEntity
  8
0
  6
CONTINUOUS
 62
  256
370
   50
100
AcDbLine
 10
-2
 20
0
 11
-2
 21
95
  0
LINE
  5
1B7
100
AcDbEntity
  8
0
  6
CONTINUOUS
 62
  256
370
   50
100
AcDbLine
 10
-2
 20
0
 11
13
 21
0
  0
LINE
  5
1B8
100
AcDbEntity
  8
0
  6
CONTINUOUS
 62
  256
370
   50
100
AcDbLine
 10
13
 20
0
 11
13
 21
10
  0
LINE
  5
1B9
100
AcDbEntity
  8
0
  6
ByLayer
 62
  256
370
   -1
100
AcDbLine
 10
13
 20
10
 11
15
 21
10
  0
LINE
  5
1BA
100
AcDbEntity
  8
0
  6
CONTINUOUS
 62
  256
370
   50
100
AcDbLine
 10
252
 20
95
 11
235
 21
95
  0
LINE
  5
1BB
100
AcDbEntity
  8
0
  6
CONTINUOUS
 62
  256
370
   50
100
AcDbLine
 10
252
 20
0
 11
252
 21
95
  0
LINE
  5
1BC
100
AcDbEntity
  8
0
  6
CONTINUOUS
 62
  256
370
   50
100
AcDbLine
 10
237
 20
0
 11
252
 21
0
  0
LINE
  5
1BD
100
AcDbEntity
  8
0
  6
CONTINUOUS
 62
  256
370
   50
100
AcDbLine
 10
237
 20
10
 11
237
 21
0
  0
LINE
  5
1BE
100
AcDbEntity
  8
0
  6
ByLayer
 62
  256
370
   -1
100
AcDbLine
 10
235
 20
10
 11
237
 21
10
  0
LINE
  5
1BF
100
AcDbEntity
  8
fold
  6
DASHED
 62
  256
370
    5
100
AcDbLine
 10
236
 20
95
 11
236
 21
10
  0
LINE
  5
1C0
100
AcDbEntity
  8
fold
  6
DASHED
 62
  256
370
    5
100
AcDbLine
 10
14
 20
10
 11
14
 21
95
  0
DIMENSION
  5
1C1
100
AcDbEntity
  8
measurement
  6
ByLayer
 62
  256
370
   -1
100
AcDbDimension
  2
*D17
 10
14.99999647786681
 20
127.0197213548977
 30
0
 11
6.499996271618921
 21
128.8947204199073
 31
0
 70
   33
 71
    5
 72
    0
  3
Standard
 53
0
210
0
220
0
230
1
100
AcDbAlignedDimension
 13
-2
 23
95
 33
0
 14
14.99999999999999
 24
95.00000186998091
 34
0
  0
DIMENSION
  5
1C2
100
AcDbEntity
  8
measurement
  6
ByLayer
 62
  256
370
   -1
100
AcDbDimension
  2
*D18
 10
15
 20
19
 30
0
 11
14
 21
20.875
 31
0
 70
   33
 71
    5
  3
Standard
 53
0
210
0
220
0
230
1
100
AcDbAlignedDimension
 13
13
 23
10
 33
0
 14
15
 24
10
 34
0
  0
DIMENSION
  5
1C3
100
AcDbEntity
  8
measurement
  6
ByLayer
 62
  256
370
   -1
100
AcDbDimension
  2
*D19
 10
7.999999999999998
 20
49
 30
0
 11
5.500000000000088
 21
50.875
 31
0
 70
   33
 71
    5
 72
    0
  3
Standard
 53
0
210
0
220
0
230
1
100
AcDbAlignedDimension
 13
3.000000000000179
 23
55
 33
0
 14
7.999999999999999
 24
55
 34
0
  0
LINE
  5
1C4
100
AcDbEntity
  8
0
  6
ByLayer
 62
  256
370
   -1
100
AcDbLine
 10
290.6
 20
39
 11
421.4
 21
39
  0
ARC
  5
1C5
100
AcDbEntity
  8
0
  6
ByLayer
 62
  256
370
   -1
100
AcDbCircle
 10
356.0000000000001
 20
64.02400000000003
 40
70.02400000000004
100
AcDbArc
 50
200.9383485154228
 51
339.0616514845771
  0
DIMENSION
  5
1C6
100
AcDbEntity
  8
measurement
  6
ByLayer
 62
  256
370
   -1
100
AcDbDimension
  2
*D20
 10
356
 20
44
 30
0
 11
348
 21
45.875
 31
0
 70
   33
 71
    5
 72
    0
  3
Standard
 53
0
210
0
220
0
230
1
100
AcDbAlignedDimension
 13
340
 23
30
 33
0
 14
356
 24
30
 34
0
  0
DIMENSION
  5
1C7
100
AcDbEntity
  8
measurement
  6
ByLayer
 62
  256
370
   -1
100
AcDbDimension
  2
*D21
 10
275.9850704325329
 20
38.91651691857278
 30
0
 11
277.8714490929418
 21
35.17221054485406
 31
0
 70
   33
 71
    5
 72
    0
  3
Standard
 53
0
210
0
220
0
230
1
100
AcDbAlignedDimension
 13
303.5
 23
31.5
 33
0
 14
303.477225389873
 24
39
 34
0
  0
DIMENSION
  5
1C8
100
AcDbEntity
  8
measurement
  6
ByLayer
 62
  256
370
   -1
100
AcDbDimension
  2
*D22
 10
356
 20
14
 30
0
 11
351
 21
15.875
 31
0
 70
   33
 71
    5
 72
    0
  3
Standard
 53
0
210
0
220
0
230
1
100
AcDbAlignedDimension
 13
346
 23
9
 33
0
 14
356
 24
9
 34
0
  0
DIMENSION
  5
1C9
100
AcDbEntity
  8
measurement
  6
ByLayer
 62
  256
370
   -1
100
AcDbDimension
  2
*D23
 10
421.3910891917003
 20
68.83787955861148
 30
0
 11
355.9980082597839
 21
70.69335060004849
 31
0
 70
   33
 71
    5
 72
    0
  3
Standard
 53
0
210
0
220
0
230
1
100
AcDbAlignedDimension
 13
290.6149580391273
 23
38.96094225009836
 33
0
 14
421.4000000000001
 24
39
 34
0
  0
DIMENSION
  5
1CA
100
AcDbEntity
  8
measurement
  6
ByLayer
 62
  256
370
   -1
100
AcDbDimension
  2
*D24
 10
432
 20
-6
 30
0
 11
430.125
 21
29
 31
0
 70
   33
 71
    5
 72
    0
  3
Standard
 53
0
210
0
220
0
230
1
100
AcDbAlignedDimension
 13
356
 23
64
 33
0
 14
356
 24
-6
 34
0
  0
DIMENSION
  5
1CB
100
AcDbEntity
  8
measurement
  6
ByLayer
 62
  256
370
   -1
100
AcDbDimension
  2
*D25
 10
225
 20
-9
 30
0
 11
125
 21
-7.125
 31
0
 70
   33
 71
    5
 72
    0
  3
Standard
 53
0
210
0
220
0
230
1
100
AcDbAlignedDimension
 13
25
 23
0
 33
0
 14
225
 24
0
 34
0
  0
DIMENSION
  5
1CC
100
AcDbEntity
  8
measurement
  6
ByLayer
 62
  256
370
   -1
100
AcDbDimension
  2
*D26
 10
427
 20
39
 30
0
 11
425.125
 21
16.5
 31
0
 70
   33
 71
    5
 72
    0
  3
Standard
 53
0
210
0
220
0
230
1
100
AcDbAlignedDimension
 13
356
 23
-6
 33
0
 14
356
 24
39
 34
0
  0
DIMENSION
  5
1CD
100
AcDbEntity
  8
measurement
  6
ByLayer
 62
  256
370
   -1
100
AcDbDimension
  2
*D27
 10
25
 20
-9
 30
0
 11
20
 21
-7.125
 31
0
 70
   33
 71
    5
 72
    0
  3
Standard
 53
0
210
0
220
0
230
1
100
AcDbAlignedDimension
 13
15
 23
10
 33
0
 14
25
 24
10
 34
0
  0
DIMENSION
  5
1CE
100
AcDbEntity
  8
measurement
  6
ByLayer
 62
  256
370
   -1
100
AcDbDimension
  2
*D28
 10
-2.000000000000002
 20
-9
 30
0
 11
5.499999999999999
 21
-7.125000000000002
 31
0
 70
   33
 71
    5
  3
Standard
 53
0
210
0
220
0
230
1
100
AcDbAlignedDimension
 13
13
 23
0
 33
0
 14
-2
 24
3.306546357697853e-15
 34
0
  0
DIMENSION
  5
1CF
100
AcDbEntity
  8
measurement
  6
ByLayer
 62
  256
370
   -1
100
AcDbDimension
  2
*D29
 10
256
 20
95
 30
0
 11
254.125
 21
150
 31
0
 70
   33
 71
    5
 72
    0
  3
Standard
 53
0
210
0
220
0
230
1
100
AcDbAlignedDimension
 13
125
 23
205
 33
0
 14
125
 24
95
 34
0
  0
DIMENSION
  5
1D0
100
AcDbEntity
  8
measurement
  6
ByLayer
 62
  256
370
   -1
100
AcDbDimension
  2
*D30
 10
-15
 20
10
 30
0
 11
-16.875
 21
5.000000000000005
 31
0
 70
   33
 71
    5
 72
    0
  3
Standard
 53
0
210
0
220
0
230
1
100
AcDbAlignedDimension
 13
25
 23
0
 33
0
 14
25
 24
10
 34
0
  0
DIMENSION
  5
1D1
100
AcDbEntity
  8
measurement
  6
ByLayer
 62
  256
370
   -1
100
AcDbDimension
  2
*D31
 10
-15
 20
85
 30
0
 11
-16.875
 21
70
 31
0
 70
   33
 71
    5
 72
    0
  3
Standard
 53
0
210
0
220
0
230
1
100
AcDbAlignedDimension
 13
7.5
 23
55
 33
0
 14
7.5
 24
85
 34
0
  0
DIMENSION
  5
1D2
100
AcDbEntity
  8
measurement
  6
ByLayer
 62
  256
370
   -1
100
AcDbDimension
  2
*D32
 10
205.4462301071844
 20
220
 30
0
 11
124.9999999999999
 21
221.875
 31
0
 70
   33
 71
    5
 72
    0
  3
Standard
 53
0
210
0
220
0
230
1
100
AcDbAlignedDimension
 13
44.55376989281564
 23
158.5189267977816
 33
0
 14
205.4462301071844
 24
158.5189267977816
 34
0
  0
DIMENSION
  5
1D3
100
AcDbEntity
  8
measurement
  6
ByLayer
 62
  256
370
   -1
100
AcDbDimension
  2
*D33
 10
256
 20
95
 30
0
 11
258
 21
90
 31
0
 70
   33
 71
    5
 72
    0
  3
Standard
 53
0
210
0
220
0
230
1
100
AcDbAlignedDimension
 13
242.5
 23
85
 33
0
 14
242.5
 24
95
 34
0
  0
CIRCLE
  5
1D4
100
AcDbEntity
  8
reference
  6
ByLayer
 62
  256
370
   -1
100
AcDbCircle
 10
356
 20
64
 40
70
  0
CIRCLE
  5
1D5
100
AcDbEntity
  8
reference
  6
ByLayer
 62
  256
370
   -1
100
AcDbCircle
 10
366
 20
9
 40
1.5
  0
CIRCLE
  5
1D6
100
AcDbEntity
  8
reference
  6
ByLayer
 62
  256
370
   -1
100
AcDbCircle
 10
92.5
 20
45
 40
1.5
  0
CIRCLE
  5
1D7
100
AcDbEntity
  8
reference
  6
ByLayer
 62
  256
370
   -1
100
AcDbCircle
 10
112.5
 20
45
 40
1.5
  0
CIRCLE
  5
1D8
100
AcDbEntity
  8
screw
  6
ByLayer
 62
  256
370
   -1
100
AcDbCircle
 10
244.5
 20
25
 40
2.5
  0
CIRCLE
  5
1D9
100
AcDbEntity
  8
screw
  6
ByLayer
 62
  256
370
   -1
100
AcDbCircle
 10
244.5
 20
55
 40
2.5
  0
CIRCLE
  5
1DA
100
AcDbEntity
  8
screw
  6
ByLayer
 62
  256
370
   -1
100
AcDbCircle
 10
244.5
 20
85
 40
2.5
  0
CIRCLE
  5
1DB
100
AcDbEntity
  8
screw
  6
ByLayer
 62
  256
370
   -1
100
AcDbCircle
 10
86.5
 20
84
 40
1.5
  0
CIRCLE
  5
1DC
100
AcDbEntity
  8
screw
  6
ByLayer
 62
  256
370
   -1
100
AcDbCircle
 10
102.5
 20
85
 40
1.5
  0
CIRCLE
  5
1DD
100
AcDbEntity
  8
screw
  6
ByLayer
 62
  256
370
   -1
100
AcDbCircle
 10
86.5
 20
66
 40
1.5
  0
CIRCLE
  5
1DE
100
AcDbEntity
  8
screw
  6
ByLayer
 62
  256
370
   -1
100
AcDbCircle
 10
118.5
 20
84
 40
1.5
  0
CIRCLE
  5
1DF
100
AcDbEntity
  8
screw
  6
ByLayer
 62
  256
370
   -1
100
AcDbCircle
 10
102.5
 20
65
 40
1.5
  0
CIRCLE
  5
1E0
100
AcDbEntity
  8
screw
  6
ByLayer
 62
  256
370
   -1
100
AcDbCircle
 10
118.5
 20
66
 40
1.5
  0
CIRCLE
  5
1E1
100
AcDbEntity
  8
screw
  6
ByLayer
 62
  256
370
   -1
100
AcDbCircle
 10
155
 20
67.5
 40
1.5
  0
CIRCLE
  5
1E2
100
AcDbEntity
  8
screw
  6
ByLayer
 62
  256
370
   -1
100
AcDbCircle
 10
102.5
 20
45.0138
 40
1.5
  0
CIRCLE
  5
1E3
100
AcDbEntity
  8
screw
  6
ByLayer
 62
  256
370
   -1
100
AcDbCircle
 10
125
 20
197.5
 40
2.5
  0
CIRCLE
  5
1E4
100
AcDbEntity
  8
screw
  6
ByLayer
 62
  256
370
   -1
100
AcDbCircle
 10
50
 20
67.5
 40
1.5
  0
CIRCLE
  5
1E5
100
AcDbEntity
  8
screw
  6
ByLayer
 62
  256
370
   -1
100
AcDbCircle
 10
5.5
 20
85
 40
2.5
  0
CIRCLE
  5
1E6
100
AcDbEntity
  8
screw
  6
ByLayer
 62
  256
370
   -1
100
AcDbCircle
 10
5.5
 20
55
 40
2.5
  0
CIRCLE
  5
1E7
100
AcDbEntity
  8
screw
  6
ByLayer
 62
  256
370
   -1
100
AcDbCircle
 10
5.5
 20
25
 40
2.5
  0
CIRCLE
  5
1E8
100
AcDbEntity
  8
screw
  6
ByLayer
 62
  256
370
   -1
100
AcDbCircle
 10
303.5
 20
31.5
 40
1.5
  0
CIRCLE
  5
1E9
100
AcDbEntity
  8
screw
  6
ByLayer
 62
  256
370
   -1
100
AcDbCircle
 10
408.5
 20
31.5
 40
1.5
  0
CIRCLE
  5
1EA
100
AcDbEntity
  8
screw
  6
ByLayer
 62
  256
370
   -1
100
AcDbCircle
 10
372
 20
30
 40
1.5
  0
CIRCLE
  5
1EB
100
AcDbEntity
  8
screw
  6
ByLayer
 62
  256
370
   -1
100
AcDbCircle
 10
356
 20
29
 40
1.5
  0
CIRCLE
  5
1EC
100
AcDbEntity
  8
screw
  6
ByLayer
 62
  256
370
   -1
100
AcDbCircle
 10
356
 20
9
 40
1.5
  0
CIRCLE
  5
1ED
100
AcDbEntity
  8
screw
  6
ByLayer
 62
  256
370
   -1
100
AcDbCircle
 10
340
 20
30
 40
1.5
  0
CIRCLE
  5
1EE
100
AcDbEntity
  8
0
  6
ByLayer
 62
  256
370
   -1
100
AcDbCircle
 10
150
 20
87.5
 40
4.25
  0
CIRCLE
  5
1EF
100
AcDbEntity
  8
reference
  6
ByLayer
 62
  256
370
   -1
100
AcDbCircle
 10
346
 20
9
 40
1.5
  0
ARC
  5
1F0
100
AcDbEntity
  8
reference
  6
ByLayer
 62
  256
370
   -1
100
AcDbCircle
 10
125
 20
95
 40
102.5
100
AcDbArc
 50
41.81950000000001
 51
90
  0
CIRCLE
  5
1F1
100
AcDbEntity
  8
screw
  6
ByLayer
 62
  256
370
   -1
100
AcDbCircle
 10
201.39
 20
163.34
 40
2.5
  0
ARC
  5
1F2
100
AcDbEntity
  8
reference
  6
ByLayer
 62
  256
370
   -1
100
AcDbCircle
 10
125
 20
95
 40
102.5
100
AcDbArc
 50
90
 51
138.1805
  0
CIRCLE
  5
1F3
100
AcDbEntity
  8
screw
  6
ByLayer
 62
  256
370
   -1
100
AcDbCircle
 10
48.61196628831902
 20
163.3455800009268
 40
2.5
  0
LINE
  5
1F4
100
AcDbEntity
  8
reference
  6
ByLayer
 62
  256
370
   -1
100
AcDbLine
 10
81
 20
-3.339213686178113
 11
81
 21
201.6607863138219
  0
CIRCLE
  5
1F5
100
AcDbEntity
  8
reference
  6
ByLayer
 62
  256
370
   -1
100
AcDbCircle
 10
81
 20
141.35
 40
33.35
  0
LINE
  5
1F6
100
AcDbEntity
  8
reference
  6
ByLayer
 62
  256
370
   -1
100
AcDbLine
 10
47.65
 20
141.35
 11
114.35
 21
141.35
  0
CIRCLE
  5
1F7
100
AcDbEntity
  8
screw
  6
ByLayer
 62
  256
370
   -1
100
AcDbCircle
 10
56.15
 20
141.35
 40
2.5
  0
CIRCLE
  5
1F8
100
AcDbEntity
  8
screw
  6
ByLayer
 62
  256
370
   -1
100
AcDbCircle
 10
105.85
 20
141.35
 40
2.5
  0
CIRCLE
  5
1F9
100
AcDbEntity
  8
screw
  6
ByLayer
 62
  256
370
   -1
100
AcDbCircle
 10
81
 20
116.5
 40
2.5
  0
CIRCLE
  5
1FA
100
AcDbEntity
  8
reference
  6
ByLayer
 62
  256
370
   -1
100
AcDbCircle
 10
81
 20
141.661
 40
11.25
  0
ELLIPSE
  5
1FB
100
AcDbEntity
  8
0
  6
ByLayer
 62
  256
370
   -1
100
AcDbEllipse
 10
81
 20
145
 30
0
 11
-2.939152317953648e-15
 21
-16
 31
0
 40
0.71875
 41
0
 42
6.283185307179586
  0
CIRCLE
  5
1FC
100
AcDbEntity
  8
0
  6
ByLayer
 62
  256
370
   -1
100
AcDbCircle
 10
135.5
 20
117
 40
9.5
  0
CIRCLE
  5
1FD
100
AcDbEntity
  8
reference
  6
ByLayer
 62
  256
370
   -1
100
AcDbCircle
 10
135.5
 20
117
 40
25
  0
DIMENSION
  5
1FE
100
AcDbEntity
  8
measurement
  6
ByLayer
 62
  256
370
   -1
100
AcDbDimension
  2
*D34
 10
145
 20
102
 30
0
 11
135.5
 21
103.875
 31
0
 70
   33
 71
    5
 72
    0
  3
Standard
 53
0
210
0
220
0
230
1
100
AcDbAlignedDimension
 13
126
 23
117
 33
0
 14
145
 24
117
 34
0
  0
DIMENSION
  5
1FF
100
AcDbEntity
  8
measurement
  6
ByLayer
 62
  256
370
   -1
100
AcDbDimension
  2
*D35
 10
160.708594784017
 20
144.9313532010379
 30
0
 11
135.7232799493639
 21
146.9924095474107
 31
0
 70
   33
 71
    5
 72
    0
  3
Standard
 53
0
210
0
220
0
230
1
100
AcDbAlignedDimension
 13
110.5010352544406
 23
117.2275118684342
 33
0
 14
160.499581207286
 24
116.8552952650641
 34
0
  0
DIMENSION
  5
200
100
AcDbEntity
  8
measurement
  6
ByLayer
 62
  256
370
   -1
100
AcDbDimension
  2
*D36
 10
154.2529676014545
 20
79.99602001568081
 30
0
 11
150.0039002671694
 21
81.86807786463621
 31
0
 70
   33
 71
    5
 72
    0
  3
Standard
 53
0
210
0
220
0
230
1
100
AcDbAlignedDimension
 13
145.7521358207474
 23
87.63472161898926
 33
0
 14
154.2476735076786
 24
87.64060502183655
 34
0
  0
LINE
  5
201
100
AcDbEntity
  8
reference
  6
ByLayer
 62
  256
370
   -1
100
AcDbLine
 10
110.5
 20
117
 11
160.5
 21
117
  0
LINE
  5
202
100
AcDbEntity
  8
reference
  6
ByLayer
 62
  256
370
   -1
100
AcDbLine
 10
135.5
 20
142
 11
135.5
 21
92.00000000000001
  0
ARC
  5
203
100
AcDbEntity
  8
reference
  6
ByLayer
 62
  256
370
   -1
100
AcDbCircle
 10
135.5
 20
117
 40
18.7
100
AcDbArc
 50
270
 51
30
  0
ARC
  5
204
100
AcDbEntity
  8
reference
  6
ByLayer
 62
  256
370
   -1
100
AcDbCircle
 10
135.5000000000001
 20
117
 40
18.7
100
AcDbArc
 50
150
 51
270
  0
CIRCLE
  5
205
100
AcDbEntity
  8
screw
  6
ByLayer
 62
  256
370
   -1
100
AcDbCircle
 10
151.694675050769
 20
126.35
 40
2.5
  0
CIRCLE
  5
206
100
AcDbEntity
  8
screw
  6
ByLayer
 62
  256
370
   -1
100
AcDbCircle
 10
119.305
 20
126.35
 40
2.35
  0
CIRCLE
  5
207
100
AcDbEntity
  8
screw
  6
ByLayer
 62
  256
370
   -1
100
AcDbCircle
 10
135.5
 20
98.3
 40
2.35
  0
ENDSEC
  0
SECTION
  2
OBJECTS
  0
DICTIONARY
  5
C
330
0
100
AcDbDictionary
281
    1
  3
ACAD_GROUP
350
D
  0
DICTIONARY
  5
D
330
C
100
AcDbDictionary
281
    1
  0
PLOTSETTINGS
  5
208
100
AcDbPlotSettings
  6
1x1
 40
2.96
 41
12.7
 42
2.96
 43
2.96
  0
ENDSEC
  0
EOF
