999
dxfrw 0.6.3
  0
SECTION
  2
HEADER
  9
$ACADVER
  1
AC1021
  9
$DWGCODEPAGE
  3
ANSI_1252
  9
$INSBASE
 10
0
 20
0
 30
0
  9
$EXTMIN
 10
-5
 20
-6.25
 30
0
  9
$EXTMAX
 10
361.25
 20
188.125
 30
0
  9
$LIMMIN
 10
0
 20
0
  9
$LIMMAX
 10
420
 20
297
  9
$ORTHOMODE
 70
    0
  9
$REGENMODE
 70
    1
  9
$FILLMODE
 70
    1
  9
$QTEXTMODE
 70
    0
  9
$MIRRTEXT
 70
    0
  9
$LTSCALE
 40
1
  9
$ATTMODE
 70
    0
  9
$TEXTSIZE
 40
2.5
  9
$TRACEWID
 40
15.68
  9
$TEXTSTYLE
  7
STANDARD
  9
$CLAYER
  8
screw
  9
$CELTYPE
  6
BYLAYER
  9
$CECOLOR
 62
  256
  9
$CELTSCALE
 40
1
  9
$DISPSILH
 70
    0
  9
$DIMSCALE
 40
1
  9
$DIMASZ
 40
2.5
  9
$DIMEXO
 40
0.625
  9
$DIMDLI
 40
3.75
  9
$DIMRND
 40
0
  9
$DIMDLE
 40
0
  9
$DIMEXE
 40
1.25
  9
$DIMTP
 40
0
  9
$DIMTM
 40
0
  9
$DIMTXT
 40
2.5
  9
$DIMCEN
 40
2.5
  9
$DIMTSZ
 40
0
  9
$DIMTOL
 70
    0
  9
$DIMLIM
 70
    0
  9
$DIMTIH
 70
    0
  9
$DIMTOH
 70
    0
  9
$DIMSE1
 70
    0
  9
$DIMSE2
 70
    0
  9
$DIMTAD
 70
    1
  9
$DIMZIN
 70
    1
  9
$DIMBLK
  1

  9
$DIMASO
 70
    1
  9
$DIMSHO
 70
    1
  9
$DIMPOST
  1

  9
$DIMAPOST
  1

  9
$DIMALT
 70
    0
  9
$DIMALTD
 70
    3
  9
$DIMALTF
 40
0.03937
  9
$DIMLFAC
 40
1
  9
$DIMTOFL
 70
    1
  9
$DIMTVP
 40
0
  9
$DIMTIX
 70
    0
  9
$DIMSOXD
 70
    0
  9
$DIMSAH
 70
    0
  9
$DIMBLK1
  1

  9
$DIMBLK2
  1

  9
$DIMSTYLE
  2
STANDARD
  9
$DIMCLRD
 70
    0
  9
$DIMCLRE
 70
    0
  9
$DIMCLRT
 70
    0
  9
$DIMTFAC
 40
1
  9
$DIMGAP
 40
0.625
  9
$DIMJUST
 70
    0
  9
$DIMSD1
 70
    0
  9
$DIMSD2
 70
    0
  9
$DIMTOLJ
 70
    0
  9
$DIMTZIN
 70
    8
  9
$DIMALTZ
 70
    0
  9
$DIMALTTZ
 70
    0
  9
$DIMUPT
 70
    0
  9
$DIMDEC
 70
    2
  9
$DIMTDEC
 70
    2
  9
$DIMALTU
 70
    2
  9
$DIMALTTD
 70
    3
  9
$DIMTXSTY
  7
standard
  9
$DIMAUNIT
 70
    0
  9
$DIMADEC
 70
    2
  9
$DIMALTRND
 40
0
  9
$DIMAZIN
 70
    0
  9
$DIMDSEP
 70
    0
  9
$DIMATFIT
 70
    3
  9
$DIMFRAC
 70
    0
  9
$DIMLDRBLK
  1
STANDARD
  9
$DIMLUNIT
 70
    2
  9
$DIMLWD
 70
   -2
  9
$DIMLWE
 70
   -2
  9
$DIMTMOVE
 70
    0
  9
$DIMFXL
 40
1
  9
$DIMFXLON
 70
    0
  9
$DIMJOGANG
 40
0.7854
  9
$DIMTFILL
 70
    0
  9
$DIMTFILLCLR
 70
    0
  9
$DIMARCSYM
 70
    0
  9
$DIMLTYPE
  6

  9
$DIMLTEX1
  6

  9
$DIMLTEX2
  6

  9
$LUNITS
 70
    2
  9
$LUPREC
 70
    2
  9
$SKETCHINC
 40
1
  9
$FILLETRAD
 40
0
  9
$AUNITS
 70
    0
  9
$AUPREC
 70
    2
  9
$MENU
  1
.
  9
$ELEVATION
 40
0
  9
$PELEVATION
 40
0
  9
$THICKNESS
 40
0
  9
$LIMCHECK
 70
    0
  9
$CHAMFERA
 40
0
  9
$CHAMFERB
 40
0
  9
$CHAMFERC
 40
0
  9
$CHAMFERD
 40
0
  9
$SKPOLY
 70
    0
  9
$USRTIMER
 70
    1
  9
$ANGBASE
 50
0
  9
$ANGDIR
 70
    0
  9
$PDMODE
 70
   96
  9
$PDSIZE
 40
-2
  9
$PLINEWID
 40
0
  9
$SPLFRAME
 70
    0
  9
$SPLINETYPE
 70
    2
  9
$SPLINESEGS
 70
    8
  9
$HANDSEED
  5
20000
  9
$SURFTAB1
 70
    6
  9
$SURFTAB2
 70
    6
  9
$SURFTYPE
 70
    6
  9
$SURFU
 70
    6
  9
$SURFV
 70
    6
  9
$UCSBASE
  2

  9
$UCSNAME
  2

  9
$UCSORG
 10
0
 20
0
 30
0
  9
$UCSXDIR
 10
1
 20
0
 30
0
  9
$UCSYDIR
 10
0
 20
1
 30
0
  9
$UCSORTHOREF
  2

  9
$UCSORTHOVIEW
 70
    0
  9
$UCSORGTOP
 10
0
 20
0
 30
0
  9
$UCSORGBOTTOM
 10
0
 20
0
 30
0
  9
$UCSORGLEFT
 10
0
 20
0
 30
0
  9
$UCSORGRIGHT
 10
0
 20
0
 30
0
  9
$UCSORGFRONT
 10
0
 20
0
 30
0
  9
$UCSORGBACK
 10
0
 20
0
 30
0
  9
$PUCSBASE
  2

  9
$PUCSNAME
  2

  9
$PUCSORG
 10
0
 20
0
 30
0
  9
$PUCSXDIR
 10
1
 20
0
 30
0
  9
$PUCSYDIR
 10
0
 20
1
 30
0
  9
$PUCSORTHOREF
  2

  9
$PUCSORTHOVIEW
 70
    0
  9
$PUCSORGTOP
 10
0
 20
0
 30
0
  9
$PUCSORGBOTTOM
 10
0
 20
0
 30
0
  9
$PUCSORGLEFT
 10
0
 20
0
 30
0
  9
$PUCSORGRIGHT
 10
0
 20
0
 30
0
  9
$PUCSORGFRONT
 10
0
 20
0
 30
0
  9
$PUCSORGBACK
 10
0
 20
0
 30
0
  9
$USERI1
 70
    0
  9
$USERI2
 70
    0
  9
$USERI3
 70
    0
  9
$USERI4
 70
    0
  9
$USERI5
 70
    0
  9
$USERR1
 40
0
  9
$USERR2
 40
0
  9
$USERR3
 40
0
  9
$USERR4
 40
0
  9
$USERR5
 40
0
  9
$WORLDVIEW
 70
    1
  9
$SHADEDGE
 70
    3
  9
$SHADEDIF
 70
   70
  9
$TILEMODE
 70
    1
  9
$MAXACTVP
 70
   64
  9
$PINSBASE
 10
23.39186164801628
 20
64.41651068158698
 30
0
  9
$PLIMCHECK
 70
    0
  9
$PEXTMIN
 10
0
 20
0
 30
0
  9
$PEXTMAX
 10
0
 20
0
 30
0
  9
$GRIDMODE
 70
    1
  9
$SNAPSTYLE
 70
    0
  9
$GRIDUNIT
 10
0
 20
0
  9
$PLIMMIN
 10
0
 20
0
  9
$PLIMMAX
 10
297
 20
210
  9
$UNITMODE
 70
    0
  9
$VISRETAIN
 70
    1
  9
$PLINEGEN
 70
    0
  9
$PSLTSCALE
 70
    1
  9
$TREEDEPTH
 70
 3020
  9
$CMLSTYLE
  2
Standard
  9
$CMLJUST
 70
    0
  9
$CMLSCALE
 40
20
  9
$PROXYGRAPHICS
 70
    1
  9
$MEASUREMENT
 70
    1
  9
$CELWEIGHT
370
   -1
  9
$ENDCAPS
280
    0
  9
$JOINSTYLE
280
    0
  9
$LWDISPLAY
290
    0
  9
$INSUNITS
 70
    4
  9
$HYPERLINKBASE
  1

  9
$STYLESHEET
  1

  9
$XEDIT
290
    1
  9
$CEPSNTYPE
380
    0
  9
$PSTYLEMODE
290
    1
  9
$EXTNAMES
290
    1
  9
$PSVPSCALE
 40
0.4737822990844354
  9
$OLESTARTUP
290
    0
  9
$SORTENTS
280
  127
  9
$INDEXCTL
280
    0
  9
$HIDETEXT
280
    1
  9
$XCLIPFRAME
290
    0
  9
$HALOGAP
280
    0
  9
$OBSCOLOR
 70
  257
  9
$OBSLTYPE
280
    0
  9
$INTERSECTIONDISPLAY
280
    0
  9
$INTERSECTIONCOLOR
 70
  257
  9
$DIMASSOC
280
    1
  9
$PROJECTNAME
  1

  9
$CAMERADISPLAY
290
    0
  9
$LENSLENGTH
 40
50
  9
$CAMERAHEIGHT
 40
0
  9
$STEPSPERSEC
 40
2
  9
$STEPSIZE
 40
50
  9
$3DDWFPREC
 40
2
  9
$PSOLWIDTH
 40
5
  9
$PSOLHEIGHT
 40
80
  9
$LOFTANG1
 40
1.570796326794897
  9
$LOFTANG2
 40
1.570796326794897
  9
$LOFTMAG1
 40
0
  9
$LOFTMAG2
 40
0
  9
$LOFTPARAM
 70
    7
  9
$LOFTNORMALS
280
    1
  9
$LATITUDE
 40
1
  9
$LONGITUDE
 40
1
  9
$NORTHDIRECTION
 40
0
  9
$TIMEZONE
 70
-8000
  9
$LIGHTGLYPHDISPLAY
280
    1
  9
$TILEMODELIGHTSYNCH
280
    1
  9
$SOLIDHIST
280
    1
  9
$SHOWHIST
280
    1
  9
$DWFFRAME
280
    2
  9
$DGNFRAME
280
    0
  9
$REALWORLDSCALE
290
    1
  9
$INTERFERECOLOR
 62
    1
  9
$CSHADOW
280
    0
  9
$SHADOWPLANELOCATION
 40
0
  0
ENDSEC
  0
SECTION
  2
CLASSES
  0
ENDSEC
  0
SECTION
  2
TABLES
  0
TABLE
  2
VPORT
  5
8
330
0
100
AcDbSymbolTable
 70
    1
  0
VPORT
  5
31
330
2
100
AcDbSymbolTableRecord
100
AcDbViewportTableRecord
  2
*ACTIVE
 70
    0
 10
0
 20
0
 11
1
 21
1
 12
256.1209529997687
 22
143.2707246665373
 13
0
 23
0
 14
10
 24
10
 15
10
 25
10
 16
0
 26
0
 36
1
 17
0
 27
0
 37
0
 40
396.4477586663087
 41
1.378712871287129
 42
50
 43
0
 44
0
 50
0
 51
0
 71
    0
 72
  100
 73
    1
 74
    3
 75
    0
 76
    1
 77
    0
 78
    0
281
    0
 65
    1
110
0
120
0
130
0
111
1
121
0
131
0
112
0
122
1
132
0
 79
    0
146
0
348
10020
 60
    7
 61
    5
292
1
282
    1
141
0
142
0
 63
  250
421
3358443
  0
ENDTAB
  0
TABLE
  2
LTYPE
  5
5
330
0
100
AcDbSymbolTable
 70
    4
  0
LTYPE
  5
14
330
5
100
AcDbSymbolTableRecord
100
AcDbLinetypeTableRecord
  2
ByBlock
 70
    0
  3

 72
   65
 73
    0
 40
0
  0
LTYPE
  5
15
330
5
100
AcDbSymbolTableRecord
100
AcDbLinetypeTableRecord
  2
ByLayer
 70
    0
  3

 72
   65
 73
    0
 40
0
  0
LTYPE
  5
16
330
5
100
AcDbSymbolTableRecord
100
AcDbLinetypeTableRecord
  2
Continuous
 70
    0
  3
Solid line
 72
   65
 73
    0
 40
0
  0
LTYPE
  5
32
330
5
100
AcDbSymbolTableRecord
100
AcDbLinetypeTableRecord
  2
DOT
 70
    0
  3
Dot . . . . . . . . . . . . . . . . . . . . . .
 72
   65
 73
    2
 40
6.35
 49
0
 74
    0
 49
-6.35
 74
    0
  0
LTYPE
  5
33
330
5
100
AcDbSymbolTableRecord
100
AcDbLinetypeTableRecord
  2
DOTTINY
 70
    0
  3
Dot (.15x) .....................................
 72
   65
 73
    2
 40
0.9525
 49
0
 74
    0
 49
-0.9525
 74
    0
  0
LTYPE
  5
34
330
5
100
AcDbSymbolTableRecord
100
AcDbLinetypeTableRecord
  2
DOT2
 70
    0
  3
Dot (.5x) .....................................
 72
   65
 73
    2
 40
3.175
 49
0
 74
    0
 49
-3.175
 74
    0
  0
LTYPE
  5
35
330
5
100
AcDbSymbolTableRecord
100
AcDbLinetypeTableRecord
  2
DOTX2
 70
    0
  3
Dot (2x) .  .  .  .  .  .  .  .  .  .  .  .  .
 72
   65
 73
    2
 40
12.7
 49
0
 74
    0
 49
-12.7
 74
    0
  0
LTYPE
  5
36
330
5
100
AcDbSymbolTableRecord
100
AcDbLinetypeTableRecord
  2
DASHED
 70
    0
  3
Dashed _ _ _ _ _ _ _ _ _ _ _ _ _ _ _ _ _
 72
   65
 73
    2
 40
19.05
 49
12.7
 74
    0
 49
-6.35
 74
    0
  0
LTYPE
  5
37
330
5
100
AcDbSymbolTableRecord
100
AcDbLinetypeTableRecord
  2
DASHEDTINY
 70
    0
  3
Dashed (.15x) _ _ _ _ _ _ _ _ _ _ _ _ _ _ _ _ _
 72
   65
 73
    2
 40
2.8575
 49
1.905
 74
    0
 49
-0.9525
 74
    0
  0
LTYPE
  5
38
330
5
100
AcDbSymbolTableRecord
100
AcDbLinetypeTableRecord
  2
DASHED2
 70
    0
  3
Dashed (.5x) _ _ _ _ _ _ _ _ _ _ _ _ _ _ _ _ _
 72
   65
 73
    2
 40
9.524999999999999
 49
6.35
 74
    0
 49
-3.175
 74
    0
  0
LTYPE
  5
39
330
5
100
AcDbSymbolTableRecord
100
AcDbLinetypeTableRecord
  2
DASHEDX2
 70
    0
  3
Dashed (2x) ____  ____  ____  ____  ____  ___
 72
   65
 73
    2
 40
38.09999999999999
 49
25.4
 74
    0
 49
-12.7
 74
    0
  0
LTYPE
  5
3A
330
5
100
AcDbSymbolTableRecord
100
AcDbLinetypeTableRecord
  2
DASHDOT
 70
    0
  3
Dash dot __ . __ . __ . __ . __ . __ . __ . __
 72
   65
 73
    4
 40
25.4
 49
12.7
 74
    0
 49
-6.35
 74
    0
 49
0
 74
    0
 49
-6.35
 74
    0
  0
LTYPE
  5
3B
330
5
100
AcDbSymbolTableRecord
100
AcDbLinetypeTableRecord
  2
DASHDOTTINY
 70
    0
  3
Dash dot (.15x) _._._._._._._._._._._._._._._.
 72
   65
 73
    4
 40
3.81
 49
1.905
 74
    0
 49
-0.9525
 74
    0
 49
0
 74
    0
 49
-0.9525
 74
    0
  0
LTYPE
  5
3C
330
5
100
AcDbSymbolTableRecord
100
AcDbLinetypeTableRecord
  2
DASHDOT2
 70
    0
  3
Dash dot (.5x) _._._._._._._._._._._._._._._.
 72
   65
 73
    4
 40
12.7
 49
6.35
 74
    0
 49
-3.175
 74
    0
 49
0
 74
    0
 49
-3.175
 74
    0
  0
LTYPE
  5
3D
330
5
100
AcDbSymbolTableRecord
100
AcDbLinetypeTableRecord
  2
DASHDOTX2
 70
    0
  3
Dash dot (2x) ____  .  ____  .  ____  .  ___
 72
   65
 73
    4
 40
50.8
 49
25.4
 74
    0
 49
-12.7
 74
    0
 49
0
 74
    0
 49
-12.7
 74
    0
  0
LTYPE
  5
3E
330
5
100
AcDbSymbolTableRecord
100
AcDbLinetypeTableRecord
  2
DIVIDE
 70
    0
  3
Divide ____ . . ____ . . ____ . . ____ . . ____
 72
   65
 73
    6
 40
31.75
 49
12.7
 74
    0
 49
-6.35
 74
    0
 49
0
 74
    0
 49
-6.35
 74
    0
 49
0
 74
    0
 49
-6.35
 74
    0
  0
LTYPE
  5
3F
330
5
100
AcDbSymbolTableRecord
100
AcDbLinetypeTableRecord
  2
DIVIDETINY
 70
    0
  3
Divide (.15x) __..__..__..__..__..__..__..__.._
 72
   65
 73
    6
 40
4.7625
 49
1.905
 74
    0
 49
-0.9525
 74
    0
 49
0
 74
    0
 49
-0.9525
 74
    0
 49
0
 74
    0
 49
-0.9525
 74
    0
  0
LTYPE
  5
40
330
5
100
AcDbSymbolTableRecord
100
AcDbLinetypeTableRecord
  2
DIVIDE2
 70
    0
  3
Divide (.5x) __..__..__..__..__..__..__..__.._
 72
   65
 73
    6
 40
15.875
 49
6.35
 74
    0
 49
-3.175
 74
    0
 49
0
 74
    0
 49
-3.175
 74
    0
 49
0
 74
    0
 49
-3.175
 74
    0
  0
LTYPE
  5
41
330
5
100
AcDbSymbolTableRecord
100
AcDbLinetypeTableRecord
  2
DIVIDEX2
 70
    0
  3
Divide (2x) ________  .  .  ________  .  .  _
 72
   65
 73
    6
 40
63.5
 49
25.4
 74
    0
 49
-12.7
 74
    0
 49
0
 74
    0
 49
-12.7
 74
    0
 49
0
 74
    0
 49
-12.7
 74
    0
  0
LTYPE
  5
42
330
5
100
AcDbSymbolTableRecord
100
AcDbLinetypeTableRecord
  2
BORDER
 70
    0
  3
Border __ __ . __ __ . __ __ . __ __ . __ __ .
 72
   65
 73
    6
 40
44.45
 49
12.7
 74
    0
 49
-6.35
 74
    0
 49
12.7
 74
    0
 49
-6.35
 74
    0
 49
0
 74
    0
 49
-6.35
 74
    0
  0
LTYPE
  5
43
330
5
100
AcDbSymbolTableRecord
100
AcDbLinetypeTableRecord
  2
BORDERTINY
 70
    0
  3
Border (.15x) __.__.__.__.__.__.__.__.__.__.__.
 72
   65
 73
    6
 40
6.6675
 49
1.905
 74
    0
 49
-0.9525
 74
    0
 49
1.905
 74
    0
 49
-0.9525
 74
    0
 49
0
 74
    0
 49
-0.9525
 74
    0
  0
LTYPE
  5
44
330
5
100
AcDbSymbolTableRecord
100
AcDbLinetypeTableRecord
  2
BORDER2
 70
    0
  3
Border (.5x) __.__.__.__.__.__.__.__.__.__.__.
 72
   65
 73
    6
 40
22.225
 49
6.35
 74
    0
 49
-3.175
 74
    0
 49
6.35
 74
    0
 49
-3.175
 74
    0
 49
0
 74
    0
 49
-3.175
 74
    0
  0
LTYPE
  5
45
330
5
100
AcDbSymbolTableRecord
100
AcDbLinetypeTableRecord
  2
BORDERX2
 70
    0
  3
Border (2x) ____  ____  .  ____  ____  .  ___
 72
   65
 73
    6
 40
88.89999999999999
 49
25.4
 74
    0
 49
-12.7
 74
    0
 49
25.4
 74
    0
 49
-12.7
 74
    0
 49
0
 74
    0
 49
-12.7
 74
    0
  0
LTYPE
  5
46
330
5
100
AcDbSymbolTableRecord
100
AcDbLinetypeTableRecord
  2
CENTER
 70
    0
  3
Center ____ _ ____ _ ____ _ ____ _ ____ _ ____
 72
   65
 73
    4
 40
50.8
 49
31.75
 74
    0
 49
-6.35
 74
    0
 49
6.35
 74
    0
 49
-6.35
 74
    0
  0
LTYPE
  5
47
330
5
100
AcDbSymbolTableRecord
100
AcDbLinetypeTableRecord
  2
CENTERTINY
 70
    0
  3
Center (.15x) ___ _ ___ _ ___ _ ___ _ ___ _ ___
 72
   65
 73
    4
 40
7.619999999999999
 49
4.7625
 74
    0
 49
-0.9525
 74
    0
 49
0.9525
 74
    0
 49
-0.9525
 74
    0
  0
LTYPE
  5
48
330
5
100
AcDbSymbolTableRecord
100
AcDbLinetypeTableRecord
  2
CENTER2
 70
    0
  3
Center (.5x) ___ _ ___ _ ___ _ ___ _ ___ _ ___
 72
   65
 73
    4
 40
28.575
 49
19.05
 74
    0
 49
-3.175
 74
    0
 49
3.175
 74
    0
 49
-3.175
 74
    0
  0
LTYPE
  5
49
330
5
100
AcDbSymbolTableRecord
100
AcDbLinetypeTableRecord
  2
CENTERX2
 70
    0
  3
Center (2x) ________  __  ________  __  _____
 72
   65
 73
    4
 40
101.6
 49
63.5
 74
    0
 49
-12.7
 74
    0
 49
12.7
 74
    0
 49
-12.7
 74
    0
  0
ENDTAB
  0
TABLE
  2
LAYER
  5
2
330
0
100
AcDbSymbolTable
 70
    1
  0
LAYER
  5
10
330
2
100
AcDbSymbolTableRecord
100
AcDbLayerTableRecord
  2
0
 70
    0
 62
    7
  6
CONTINUOUS
370
   50
390
F
  0
LAYER
  5
4A
330
2
100
AcDbSymbolTableRecord
100
AcDbLayerTableRecord
  2
centerline
 70
    0
 62
    7
  6
CENTER
370
    5
390
F
  0
LAYER
  5
4B
330
2
100
AcDbSymbolTableRecord
100
AcDbLayerTableRecord
  2
fold
 70
    0
 62
    7
  6
DASHED
370
    5
390
F
  0
LAYER
  5
4C
330
2
100
AcDbSymbolTableRecord
100
AcDbLayerTableRecord
  2
measurement
 70
    0
 62
    7
  6
CONTINUOUS
370
    5
390
F
  0
LAYER
  5
4D
330
2
100
AcDbSymbolTableRecord
100
AcDbLayerTableRecord
  2
screw
 70
    0
 62
    7
  6
CONTINUOUS
370
   50
390
F
  0
ENDTAB
  0
TABLE
  2
STYLE
  5
3
330
0
100
AcDbSymbolTable
 70
    3
  0
STYLE
  5
4E
330
2
100
AcDbSymbolTableRecord
100
AcDbTextStyleTableRecord
  2
Standard
 70
    0
 40
0
 41
1
 50
0
 71
    0
 42
1
  3
txt
  4

  0
ENDTAB
  0
TABLE
  2
VIEW
  5
6
330
0
100
AcDbSymbolTable
 70
    0
  0
ENDTAB
  0
TABLE
  2
UCS
  5
7
330
0
100
AcDbSymbolTable
 70
    0
  0
ENDTAB
  0
TABLE
  2
APPID
  5
9
330
0
100
AcDbSymbolTable
 70
    1
  0
APPID
  5
12
330
9
100
AcDbSymbolTableRecord
100
AcDbRegAppTableRecord
  2
ACAD
 70
    0
  0
APPID
  5
4F
330
9
100
AcDbSymbolTableRecord
100
AcDbRegAppTableRecord
  2
LibreCad
 70
    0
  0
ENDTAB
  0
TABLE
  2
DIMSTYLE
  5
A
330
0
100
AcDbSymbolTable
 70
    1
100
AcDbDimStyleTable
 71
    1
  0
DIMSTYLE
105
50
330
A
100
AcDbSymbolTableRecord
100
AcDbDimStyleTableRecord
  2
Standard
 70
    0
 40
1
 41
2.5
 42
0.625
 43
0.38
 44
1.25
 45
0
 46
0
 47
0
 48
0
 49
1
140
2.5
141
0.09
142
0
143
25.4
144
1
145
0
146
1
147
0.625
148
0
 71
    0
 72
    0
 73
    0
 74
    1
 75
    0
 76
    0
 77
    0
 78
    1
 79
    0
170
    0
171
    2
172
    0
173
    0
174
    0
175
    0
176
    0
177
    0
178
    0
179
    2
271
    2
272
    4
273
    2
274
    2
275
    0
276
    0
277
    2
278
    0
279
    0
280
    0
281
    0
282
    0
283
    1
284
    0
285
    0
286
    0
288
    0
289
    3
340
4E
  0
ENDTAB
  0
TABLE
  2
BLOCK_RECORD
  5
1
330
0
100
AcDbSymbolTable
 70
    2
  0
BLOCK_RECORD
  5
1F
330
1
100
AcDbSymbolTableRecord
100
AcDbBlockTableRecord
  2
*Model_Space
 70
    0
280
    1
281
    0
  0
BLOCK_RECORD
  5
1E
330
1
100
AcDbSymbolTableRecord
100
AcDbBlockTableRecord
  2
*Paper_Space
 70
    0
280
    1
281
    0
  0
BLOCK_RECORD
  5
51
330
1
100
AcDbSymbolTableRecord
100
AcDbBlockTableRecord
  2
*D29
 70
    0
280
    1
281
    0
  0
BLOCK_RECORD
  5
54
330
1
100
AcDbSymbolTableRecord
100
AcDbBlockTableRecord
  2
*D15
 70
    0
280
    1
281
    0
  0
BLOCK_RECORD
  5
57
330
1
100
AcDbSymbolTableRecord
100
AcDbBlockTableRecord
  2
*D30
 70
    0
280
    1
281
    0
  0
BLOCK_RECORD
  5
5A
330
1
100
AcDbSymbolTableRecord
100
AcDbBlockTableRecord
  2
*D31
 70
    0
280
    1
281
    0
  0
BLOCK_RECORD
  5
5D
330
1
100
AcDbSymbolTableRecord
100
AcDbBlockTableRecord
  2
*D25
 70
    0
280
    1
281
    0
  0
BLOCK_RECORD
  5
60
330
1
100
AcDbSymbolTableRecord
100
AcDbBlockTableRecord
  2
*D26
 70
    0
280
    1
281
    0
  0
BLOCK_RECORD
  5
63
330
1
100
AcDbSymbolTableRecord
100
AcDbBlockTableRecord
  2
*D5
 70
    0
280
    1
281
    0
  0
BLOCK_RECORD
  5
66
330
1
100
AcDbSymbolTableRecord
100
AcDbBlockTableRecord
  2
*D1
 70
    0
280
    1
281
    0
  0
BLOCK_RECORD
  5
69
330
1
100
AcDbSymbolTableRecord
100
AcDbBlockTableRecord
  2
*D17
 70
    0
280
    1
281
    0
  0
BLOCK_RECORD
  5
6C
330
1
100
AcDbSymbolTableRecord
100
AcDbBlockTableRecord
  2
*D13
 70
    0
280
    1
281
    0
  0
BLOCK_RECORD
  5
6F
330
1
100
AcDbSymbolTableRecord
100
AcDbBlockTableRecord
  2
*D14
 70
    0
280
    1
281
    0
  0
BLOCK_RECORD
  5
72
330
1
100
AcDbSymbolTableRecord
100
AcDbBlockTableRecord
  2
*D3
 70
    0
280
    1
281
    0
  0
BLOCK_RECORD
  5
75
330
1
100
AcDbSymbolTableRecord
100
AcDbBlockTableRecord
  2
*D8
 70
    0
280
    1
281
    0
  0
BLOCK_RECORD
  5
78
330
1
100
AcDbSymbolTableRecord
100
AcDbBlockTableRecord
  2
*D11
 70
    0
280
    1
281
    0
  0
BLOCK_RECORD
  5
7B
330
1
100
AcDbSymbolTableRecord
100
AcDbBlockTableRecord
  2
*D19
 70
    0
280
    1
281
    0
  0
BLOCK_RECORD
  5
7E
330
1
100
AcDbSymbolTableRecord
100
AcDbBlockTableRecord
  2
*D4
 70
    0
280
    1
281
    0
  0
BLOCK_RECORD
  5
81
330
1
100
AcDbSymbolTableRecord
100
AcDbBlockTableRecord
  2
*D22
 70
    0
280
    1
281
    0
  0
BLOCK_RECORD
  5
84
330
1
100
AcDbSymbolTableRecord
100
AcDbBlockTableRecord
  2
*D12
 70
    0
280
    1
281
    0
  0
BLOCK_RECORD
  5
87
330
1
100
AcDbSymbolTableRecord
100
AcDbBlockTableRecord
  2
*D20
 70
    0
280
    1
281
    0
  0
BLOCK_RECORD
  5
8A
330
1
100
AcDbSymbolTableRecord
100
AcDbBlockTableRecord
  2
*D21
 70
    0
280
    1
281
    0
  0
BLOCK_RECORD
  5
8D
330
1
100
AcDbSymbolTableRecord
100
AcDbBlockTableRecord
  2
*D23
 70
    0
280
    1
281
    0
  0
BLOCK_RECORD
  5
90
330
1
100
AcDbSymbolTableRecord
100
AcDbBlockTableRecord
  2
*D16
 70
    0
280
    1
281
    0
  0
BLOCK_RECORD
  5
93
330
1
100
AcDbSymbolTableRecord
100
AcDbBlockTableRecord
  2
*D24
 70
    0
280
    1
281
    0
  0
BLOCK_RECORD
  5
96
330
1
100
AcDbSymbolTableRecord
100
AcDbBlockTableRecord
  2
*D7
 70
    0
280
    1
281
    0
  0
BLOCK_RECORD
  5
99
330
1
100
AcDbSymbolTableRecord
100
AcDbBlockTableRecord
  2
*D33
 70
    0
280
    1
281
    0
  0
BLOCK_RECORD
  5
9C
330
1
100
AcDbSymbolTableRecord
100
AcDbBlockTableRecord
  2
*D28
 70
    0
280
    1
281
    0
  0
BLOCK_RECORD
  5
9F
330
1
100
AcDbSymbolTableRecord
100
AcDbBlockTableRecord
  2
*D27
 70
    0
280
    1
281
    0
  0
BLOCK_RECORD
  5
A2
330
1
100
AcDbSymbolTableRecord
100
AcDbBlockTableRecord
  2
*D9
 70
    0
280
    1
281
    0
  0
BLOCK_RECORD
  5
A5
330
1
100
AcDbSymbolTableRecord
100
AcDbBlockTableRecord
  2
*D2
 70
    0
280
    1
281
    0
  0
BLOCK_RECORD
  5
A8
330
1
100
AcDbSymbolTableRecord
100
AcDbBlockTableRecord
  2
*D10
 70
    0
280
    1
281
    0
  0
BLOCK_RECORD
  5
AB
330
1
100
AcDbSymbolTableRecord
100
AcDbBlockTableRecord
  2
*D32
 70
    0
280
    1
281
    0
  0
BLOCK_RECORD
  5
AE
330
1
100
AcDbSymbolTableRecord
100
AcDbBlockTableRecord
  2
*D34
 70
    0
280
    1
281
    0
  0
BLOCK_RECORD
  5
B1
330
1
100
AcDbSymbolTableRecord
100
AcDbBlockTableRecord
  2
*D6
 70
    0
280
    1
281
    0
  0
BLOCK_RECORD
  5
B4
330
1
100
AcDbSymbolTableRecord
100
AcDbBlockTableRecord
  2
*D18
 70
    0
280
    1
281
    0
  0
ENDTAB
  0
ENDSEC
  0
SECTION
  2
BLOCKS
  0
BLOCK
  5
20
330
1F
100
AcDbEntity
  8
0
100
AcDbBlockBegin
  2
*Model_Space
 70
    0
 10
0
 20
0
 30
0
  3
*Model_Space
  1

  0
ENDBLK
  5
21
330
1F
100
AcDbEntity
  8
0
100
AcDbBlockEnd
  0
BLOCK
  5
1C
330
1B
100
AcDbEntity
  8
0
100
AcDbBlockBegin
  2
*Paper_Space
 70
    0
 10
0
 20
0
 30
0
  3
*Paper_Space
  1

  0
ENDBLK
  5
1D
330
1F
100
AcDbEntity
  8
0
100
AcDbBlockEnd
  0
BLOCK
  5
52
330
51
100
AcDbEntity
  8
0
100
AcDbBlockBegin
  2
*D29
 70
    1
 10
0
 20
0
  3
*D29
  1

  0
LINE
  5
B7
100
AcDbEntity
  8
measurement
  6
ByBlock
 62
    0
370
   -2
100
AcDbLine
 10
90.625
 20
60
 11
99.25
 21
60
  0
LINE
  5
B8
100
AcDbEntity
  8
measurement
  6
ByBlock
 62
    0
370
   -2
100
AcDbLine
 10
90.625
 20
80
 11
99.25
 21
80
  0
LINE
  5
B9
100
AcDbEntity
  8
measurement
  6
ByBlock
 62
    0
370
   -2
100
AcDbLine
 10
98
 20
60
 11
98
 21
80
  0
MTEXT
  5
BA
100
AcDbEntity
  8
measurement
  6
CONTINUOUS
 62
    0
370
   -2
100
AcDbMText
 10
96.125
 20
70
 30
0
 40
2.5
 41
7.777777777777779
 71
    5
 72
    1
  1
20.00
  7
standard
210
0
220
0
230
1
 50
90
 73
    2
 44
1
  0
SOLID
  5
BB
100
AcDbEntity
  8
measurement
  6
ByBlock
 62
    0
370
   -2
100
AcDbTrace
 10
98
 20
60
 30
0
 11
97.58371534222717
 21
62.5
 31
0
 12
98.41628465777283
 22
62.5
 32
0
 13
98.41628465777283
 23
62.5
 33
0
  0
SOLID
  5
BC
100
AcDbEntity
  8
measurement
  6
ByBlock
 62
    0
370
   -2
100
AcDbTrace
 10
98
 20
80
 30
0
 11
98.41628465777283
 21
77.5
 31
0
 12
97.58371534222717
 22
77.5
 32
0
 13
97.58371534222717
 23
77.5
 33
0
  0
ENDBLK
  5
53
330
51
100
AcDbEntity
  8
0
100
AcDbBlockEnd
  0
BLOCK
  5
55
330
54
100
AcDbEntity
  8
0
100
AcDbBlockBegin
  2
*D15
 70
    1
 10
0
 20
0
  3
*D15
  1

  0
LINE
  5
BD
100
AcDbEntity
  8
measurement
  6
ByBlock
 62
    0
370
   -2
100
AcDbLine
 10
315
 20
29.375
 11
315
 21
21.75
  0
LINE
  5
BE
100
AcDbEntity
  8
measurement
  6
ByBlock
 62
    0
370
   -2
100
AcDbLine
 10
350
 20
29.375
 11
350
 21
21.75
  0
LINE
  5
BF
100
AcDbEntity
  8
measurement
  6
ByBlock
 62
    0
370
   -2
100
AcDbLine
 10
315
 20
23
 11
350
 21
23
  0
MTEXT
  5
C0
100
AcDbEntity
  8
measurement
  6
CONTINUOUS
 62
    0
370
   -2
100
AcDbMText
 10
332.5
 20
24.875
 30
0
 40
2.5
 41
7.777777777778088
 71
    5
 72
    1
  1
35.00
  7
standard
210
0
220
0
230
1
 50
0
 73
    2
 44
1
  0
SOLID
  5
C1
100
AcDbEntity
  8
measurement
  6
ByBlock
 62
    0
370
   -2
100
AcDbTrace
 10
315
 20
23
 30
0
 11
317.5
 21
23.41628465777284
 31
0
 12
317.5
 22
22.58371534222716
 32
0
 13
317.5
 23
22.58371534222716
 33
0
  0
SOLID
  5
C2
100
AcDbEntity
  8
measurement
  6
ByBlock
 62
    0
370
   -2
100
AcDbTrace
 10
350
 20
23
 30
0
 11
347.5
 21
22.58371534222716
 31
0
 12
347.5
 22
23.41628465777284
 32
0
 13
347.5
 23
23.41628465777284
 33
0
  0
ENDBLK
  5
56
330
54
100
AcDbEntity
  8
0
100
AcDbBlockEnd
  0
BLOCK
  5
58
330
57
100
AcDbEntity
  8
0
100
AcDbBlockBegin
  2
*D30
 70
    1
 10
0
 20
0
  3
*D30
  1

  0
LINE
  5
C3
100
AcDbEntity
  8
measurement
  6
ByBlock
 62
    0
370
   -2
100
AcDbLine
 10
70
 20
80.625
 11
70
 21
86.25
  0
LINE
  5
C4
100
AcDbEntity
  8
measurement
  6
ByBlock
 62
    0
370
   -2
100
AcDbLine
 10
90
 20
80.625
 11
90
 21
86.25
  0
LINE
  5
C5
100
AcDbEntity
  8
measurement
  6
ByBlock
 62
    0
370
   -2
100
AcDbLine
 10
70
 20
85
 11
90
 21
85
  0
MTEXT
  5
C6
100
AcDbEntity
  8
measurement
  6
CONTINUOUS
 62
    0
370
   -2
100
AcDbMText
 10
80
 20
86.875
 30
0
 40
2.5
 41
7.777777777777779
 71
    5
 72
    1
  1
20.00
  7
standard
210
0
220
0
230
1
 50
0
 73
    2
 44
1
  0
SOLID
  5
C7
100
AcDbEntity
  8
measurement
  6
ByBlock
 62
    0
370
   -2
100
AcDbTrace
 10
70
 20
85
 30
0
 11
72.5
 21
85.41628465777283
 31
0
 12
72.5
 22
84.58371534222717
 32
0
 13
72.5
 23
84.58371534222717
 33
0
  0
SOLID
  5
C8
100
AcDbEntity
  8
measurement
  6
ByBlock
 62
    0
370
   -2
100
AcDbTrace
 10
90
 20
85
 30
0
 11
87.5
 21
84.58371534222717
 31
0
 12
87.5
 22
85.41628465777283
 32
0
 13
87.5
 23
85.41628465777283
 33
0
  0
ENDBLK
  5
59
330
57
100
AcDbEntity
  8
0
100
AcDbBlockEnd
  0
BLOCK
  5
5B
330
5A
100
AcDbEntity
  8
0
100
AcDbBlockBegin
  2
*D31
 70
    1
 10
0
 20
0
  3
*D31
  1

  0
LINE
  5
C9
100
AcDbEntity
  8
measurement
  6
ByBlock
 62
    0
370
   -2
100
AcDbLine
 10
95
 20
90.625
 11
95
 21
104.25
  0
LINE
  5
CA
100
AcDbEntity
  8
measurement
  6
ByBlock
 62
    0
370
   -2
100
AcDbLine
 10
105
 20
90.625
 11
105
 21
104.25
  0
LINE
  5
CB
100
AcDbEntity
  8
measurement
  6
ByBlock
 62
    0
370
   -2
100
AcDbLine
 10
95
 20
103
 11
105
 21
103
  0
MTEXT
  5
CC
100
AcDbEntity
  8
measurement
  6
CONTINUOUS
 62
    0
370
   -2
100
AcDbMText
 10
100
 20
104.875
 30
0
 40
2.5
 41
7.222222222222223
 71
    5
 72
    1
  1
10.00
  7
standard
210
0
220
0
230
1
 50
0
 73
    2
 44
1
  0
SOLID
  5
CD
100
AcDbEntity
  8
measurement
  6
ByBlock
 62
    0
370
   -2
100
AcDbTrace
 10
95
 20
103
 30
0
 11
97.5
 21
103.4162846577728
 31
0
 12
97.5
 22
102.5837153422272
 32
0
 13
97.5
 23
102.5837153422272
 33
0
  0
SOLID
  5
CE
100
AcDbEntity
  8
measurement
  6
ByBlock
 62
    0
370
   -2
100
AcDbTrace
 10
105
 20
103
 30
0
 11
102.5
 21
102.5837153422272
 31
0
 12
102.5
 22
103.4162846577728
 32
0
 13
102.5
 23
103.4162846577728
 33
0
  0
ENDBLK
  5
5C
330
5A
100
AcDbEntity
  8
0
100
AcDbBlockEnd
  0
BLOCK
  5
5E
330
5D
100
AcDbEntity
  8
0
100
AcDbBlockBegin
  2
*D25
 70
    1
 10
0
 20
0
  3
*D25
  1

  0
LINE
  5
CF
100
AcDbEntity
  8
measurement
  6
ByBlock
 62
    0
370
   -2
100
AcDbLine
 10
350.625
 20
30
 11
361.25
 21
30
  0
LINE
  5
D0
100
AcDbEntity
  8
measurement
  6
ByBlock
 62
    0
370
   -2
100
AcDbLine
 10
350.625
 20
10
 11
361.25
 21
10
  0
LINE
  5
D1
100
AcDbEntity
  8
measurement
  6
ByBlock
 62
    0
370
   -2
100
AcDbLine
 10
360
 20
30
 11
360
 21
10
  0
MTEXT
  5
D2
100
AcDbEntity
  8
measurement
  6
CONTINUOUS
 62
    0
370
   -2
100
AcDbMText
 10
358.125
 20
20
 30
0
 40
2.5
 41
7.777777777777779
 71
    5
 72
    1
  1
20.00
  7
standard
210
0
220
0
230
1
 50
90
 73
    2
 44
1
  0
SOLID
  5
D3
100
AcDbEntity
  8
measurement
  6
ByBlock
 62
    0
370
   -2
100
AcDbTrace
 10
360
 20
30
 30
0
 11
360.4162846577728
 21
27.5
 31
0
 12
359.5837153422272
 22
27.5
 32
0
 13
359.5837153422272
 23
27.5
 33
0
  0
SOLID
  5
D4
100
AcDbEntity
  8
measurement
  6
ByBlock
 62
    0
370
   -2
100
AcDbTrace
 10
360
 20
10
 30
0
 11
359.5837153422272
 21
12.5
 31
0
 12
360.4162846577728
 22
12.5
 32
0
 13
360.4162846577728
 23
12.5
 33
0
  0
ENDBLK
  5
5F
330
5D
100
AcDbEntity
  8
0
100
AcDbBlockEnd
  0
BLOCK
  5
61
330
60
100
AcDbEntity
  8
0
100
AcDbBlockBegin
  2
*D26
 70
    1
 10
0
 20
0
  3
*D26
  1

  0
LINE
  5
D5
100
AcDbEntity
  8
measurement
  6
ByBlock
 62
    0
370
   -2
100
AcDbLine
 10
350.625
 20
10
 11
361.25
 21
10
  0
LINE
  5
D6
100
AcDbEntity
  8
measurement
  6
ByBlock
 62
    0
370
   -2
100
AcDbLine
 10
350.625
 20
-5
 11
361.25
 21
-5
  0
LINE
  5
D7
100
AcDbEntity
  8
measurement
  6
ByBlock
 62
    0
370
   -2
100
AcDbLine
 10
360
 20
10
 11
360
 21
-5
  0
MTEXT
  5
D8
100
AcDbEntity
  8
measurement
  6
CONTINUOUS
 62
    0
370
   -2
100
AcDbMText
 10
358.125
 20
2.5
 30
0
 40
2.5
 41
7.222222222222378
 71
    5
 72
    1
  1
15.00
  7
standard
210
0
220
0
230
1
 50
90
 73
    2
 44
1
  0
SOLID
  5
D9
100
AcDbEntity
  8
measurement
  6
ByBlock
 62
    0
370
   -2
100
AcDbTrace
 10
360
 20
10
 30
0
 11
360.4162846577728
 21
7.5
 31
0
 12
359.5837153422272
 22
7.5
 32
0
 13
359.5837153422272
 23
7.5
 33
0
  0
SOLID
  5
DA
100
AcDbEntity
  8
measurement
  6
ByBlock
 62
    0
370
   -2
100
AcDbTrace
 10
360
 20
-5
 30
0
 11
359.5837153422272
 21
-2.5
 31
0
 12
360.4162846577728
 22
-2.5
 32
0
 13
360.4162846577728
 23
-2.5
 33
0
  0
ENDBLK
  5
62
330
60
100
AcDbEntity
  8
0
100
AcDbBlockEnd
  0
BLOCK
  5
64
330
63
100
AcDbEntity
  8
0
100
AcDbBlockBegin
  2
*D5
 70
    1
 10
0
 20
0
  3
*D5
  1

  0
LINE
  5
DB
100
AcDbEntity
  8
measurement
  6
ByBlock
 62
    0
370
   -2
100
AcDbLine
 10
320
 20
130.625
 11
320
 21
141.25
  0
LINE
  5
DC
100
AcDbEntity
  8
measurement
  6
ByBlock
 62
    0
370
   -2
100
AcDbLine
 10
330
 20
130.625
 11
330
 21
141.25
  0
LINE
  5
DD
100
AcDbEntity
  8
measurement
  6
ByBlock
 62
    0
370
   -2
100
AcDbLine
 10
320
 20
140
 11
330
 21
140
  0
MTEXT
  5
DE
100
AcDbEntity
  8
measurement
  6
CONTINUOUS
 62
    0
370
   -2
100
AcDbMText
 10
325
 20
141.875
 30
0
 40
2.5
 41
7.222222222222223
 71
    5
 72
    1
  1
10.00
  7
standard
210
0
220
0
230
1
 50
0
 73
    2
 44
1
  0
SOLID
  5
DF
100
AcDbEntity
  8
measurement
  6
ByBlock
 62
    0
370
   -2
100
AcDbTrace
 10
320
 20
140
 30
0
 11
322.5
 21
140.4162846577728
 31
0
 12
322.5
 22
139.5837153422272
 32
0
 13
322.5
 23
139.5837153422272
 33
0
  0
SOLID
  5
E0
100
AcDbEntity
  8
measurement
  6
ByBlock
 62
    0
370
   -2
100
AcDbTrace
 10
330
 20
140
 30
0
 11
327.5
 21
139.5837153422272
 31
0
 12
327.5
 22
140.4162846577728
 32
0
 13
327.5
 23
140.4162846577728
 33
0
  0
ENDBLK
  5
65
330
63
100
AcDbEntity
  8
0
100
AcDbBlockEnd
  0
BLOCK
  5
67
330
66
100
AcDbEntity
  8
0
100
AcDbBlockBegin
  2
*D1
 70
    1
 10
0
 20
0
  3
*D1
  1

  0
LINE
  5
E1
100
AcDbEntity
  8
measurement
  6
ByBlock
 62
    0
370
   -2
100
AcDbLine
 10
200
 20
89.375
 11
200
 21
78.75
  0
LINE
  5
E2
100
AcDbEntity
  8
measurement
  6
ByBlock
 62
    0
370
   -2
100
AcDbLine
 10
350
 20
89.375
 11
350
 21
78.75
  0
LINE
  5
E3
100
AcDbEntity
  8
measurement
  6
ByBlock
 62
    0
370
   -2
100
AcDbLine
 10
200
 20
80
 11
350
 21
80
  0
MTEXT
  5
E4
100
AcDbEntity
  8
measurement
  6
CONTINUOUS
 62
    0
370
   -2
100
AcDbMText
 10
275
 20
81.875
 30
0
 40
2.5
 41
9.166666666666824
 71
    5
 72
    1
  1
150.00
  7
standard
210
0
220
0
230
1
 50
0
 73
    2
 44
1
  0
SOLID
  5
E5
100
AcDbEntity
  8
measurement
  6
ByBlock
 62
    0
370
   -2
100
AcDbTrace
 10
200
 20
80
 30
0
 11
202.5
 21
80.41628465777283
 31
0
 12
202.5
 22
79.58371534222717
 32
0
 13
202.5
 23
79.58371534222717
 33
0
  0
SOLID
  5
E6
100
AcDbEntity
  8
measurement
  6
ByBlock
 62
    0
370
   -2
100
AcDbTrace
 10
350
 20
80
 30
0
 11
347.5
 21
79.58371534222717
 31
0
 12
347.5
 22
80.41628465777283
 32
0
 13
347.5
 23
80.41628465777283
 33
0
  0
ENDBLK
  5
68
330
66
100
AcDbEntity
  8
0
100
AcDbBlockEnd
  0
BLOCK
  5
6A
330
69
100
AcDbEntity
  8
0
100
AcDbBlockBegin
  2
*D17
 70
    1
 10
0
 20
0
  3
*D17
  1

  0
LINE
  5
E7
100
AcDbEntity
  8
measurement
  6
ByBlock
 62
    0
370
   -2
100
AcDbLine
 10
200
 20
29.375
 11
200
 21
20.75
  0
LINE
  5
E8
100
AcDbEntity
  8
measurement
  6
ByBlock
 62
    0
370
   -2
100
AcDbLine
 10
235
 20
29.375
 11
235
 21
20.75
  0
LINE
  5
E9
100
AcDbEntity
  8
measurement
  6
ByBlock
 62
    0
370
   -2
100
AcDbLine
 10
200
 20
22
 11
235
 21
22
  0
MTEXT
  5
EA
100
AcDbEntity
  8
measurement
  6
CONTINUOUS
 62
    0
370
   -2
100
AcDbMText
 10
217.5
 20
23.875
 30
0
 40
2.5
 41
7.777777777778088
 71
    5
 72
    1
  1
35.00
  7
standard
210
0
220
0
230
1
 50
0
 73
    2
 44
1
  0
SOLID
  5
EB
100
AcDbEntity
  8
measurement
  6
ByBlock
 62
    0
370
   -2
100
AcDbTrace
 10
200
 20
22
 30
0
 11
202.5
 21
22.41628465777284
 31
0
 12
202.5
 22
21.58371534222716
 32
0
 13
202.5
 23
21.58371534222716
 33
0
  0
SOLID
  5
EC
100
AcDbEntity
  8
measurement
  6
ByBlock
 62
    0
370
   -2
100
AcDbTrace
 10
235
 20
22
 30
0
 11
232.5
 21
21.58371534222716
 31
0
 12
232.5
 22
22.41628465777284
 32
0
 13
232.5
 23
22.41628465777284
 33
0
  0
ENDBLK
  5
6B
330
69
100
AcDbEntity
  8
0
100
AcDbBlockEnd
  0
BLOCK
  5
6D
330
6C
100
AcDbEntity
  8
0
100
AcDbBlockBegin
  2
*D13
 70
    1
 10
0
 20
0
  3
*D13
  1

  0
LINE
  5
ED
100
AcDbEntity
  8
measurement
  6
ByBlock
 62
    0
370
   -2
100
AcDbLine
 10
260
 20
30.625
 11
260
 21
40.25
  0
LINE
  5
EE
100
AcDbEntity
  8
measurement
  6
ByBlock
 62
    0
370
   -2
100
AcDbLine
 10
290
 20
30.625
 11
290
 21
40.25
  0
LINE
  5
EF
100
AcDbEntity
  8
measurement
  6
ByBlock
 62
    0
370
   -2
100
AcDbLine
 10
260
 20
39
 11
290
 21
39
  0
MTEXT
  5
F0
100
AcDbEntity
  8
measurement
  6
CONTINUOUS
 62
    0
370
   -2
100
AcDbMText
 10
275
 20
40.875
 30
0
 40
2.5
 41
7.777777777777933
 71
    5
 72
    1
  1
30.00
  7
standard
210
0
220
0
230
1
 50
0
 73
    2
 44
1
  0
SOLID
  5
F1
100
AcDbEntity
  8
measurement
  6
ByBlock
 62
    0
370
   -2
100
AcDbTrace
 10
260
 20
39
 30
0
 11
262.5
 21
39.41628465777284
 31
0
 12
262.5
 22
38.58371534222716
 32
0
 13
262.5
 23
38.58371534222716
 33
0
  0
SOLID
  5
F2
100
AcDbEntity
  8
measurement
  6
ByBlock
 62
    0
370
   -2
100
AcDbTrace
 10
290
 20
39
 30
0
 11
287.5
 21
38.58371534222716
 31
0
 12
287.5
 22
39.41628465777284
 32
0
 13
287.5
 23
39.41628465777284
 33
0
  0
ENDBLK
  5
6E
330
6C
100
AcDbEntity
  8
0
100
AcDbBlockEnd
  0
BLOCK
  5
70
330
6F
100
AcDbEntity
  8
0
100
AcDbBlockBegin
  2
*D14
 70
    1
 10
0
 20
0
  3
*D14
  1

  0
LINE
  5
F3
100
AcDbEntity
  8
measurement
  6
ByBlock
 62
    0
370
   -2
100
AcDbLine
 10
318.5
 20
1.875000000000001
 11
318.5
 21
-3.250000000000001
  0
LINE
  5
F4
100
AcDbEntity
  8
measurement
  6
ByBlock
 62
    0
370
   -2
100
AcDbLine
 10
321.5
 20
1.875000000000001
 11
321.5
 21
-3.250000000000001
  0
LINE
  5
F5
100
AcDbEntity
  8
measurement
  6
ByBlock
 62
    0
370
   -2
100
AcDbLine
 10
313.5
 20
-2
 11
326.5
 21
-2.000000000000001
  0
MTEXT
  5
F6
100
AcDbEntity
  8
measurement
  6
CONTINUOUS
 62
    0
370
   -2
100
AcDbMText
 10
325.0416666666667
 20
-0.1250000000000009
 30
0
 40
2.5
 41
5.833333333333488
 71
    5
 72
    1
  1
3.00
  7
standard
210
0
220
0
230
1
 50
0
 73
    2
 44
1
  0
SOLID
  5
F7
100
AcDbEntity
  8
measurement
  6
ByBlock
 62
    0
370
   -2
100
AcDbTrace
 10
318.5
 20
-2.000000000000001
 30
0
 11
316
 21
-2.416284657772841
 31
0
 12
316
 22
-1.583715342227161
 32
0
 13
316
 23
-1.583715342227161
 33
0
  0
SOLID
  5
F8
100
AcDbEntity
  8
measurement
  6
ByBlock
 62
    0
370
   -2
100
AcDbTrace
 10
321.5
 20
-2.000000000000001
 30
0
 11
324
 21
-1.583715342227161
 31
0
 12
324
 22
-2.416284657772842
 32
0
 13
324
 23
-2.416284657772842
 33
0
  0
ENDBLK
  5
71
330
6F
100
AcDbEntity
  8
0
100
AcDbBlockEnd
  0
BLOCK
  5
73
330
72
100
AcDbEntity
  8
0
100
AcDbBlockBegin
  2
*D3
 70
    1
 10
0
 20
0
  3
*D3
  1

  0
LINE
  5
F9
100
AcDbEntity
  8
measurement
  6
ByBlock
 62
    0
370
   -2
100
AcDbLine
 10
230
 20
119.375
 11
230
 21
98.75
  0
LINE
  5
FA
100
AcDbEntity
  8
measurement
  6
ByBlock
 62
    0
370
   -2
100
AcDbLine
 10
260
 20
119.375
 11
260
 21
98.75
  0
LINE
  5
FB
100
AcDbEntity
  8
measurement
  6
ByBlock
 62
    0
370
   -2
100
AcDbLine
 10
230
 20
100
 11
260
 21
100
  0
MTEXT
  5
FC
100
AcDbEntity
  8
measurement
  6
CONTINUOUS
 62
    0
370
   -2
100
AcDbMText
 10
245
 20
101.875
 30
0
 40
2.5
 41
7.777777777777933
 71
    5
 72
    1
  1
30.00
  7
standard
210
0
220
0
230
1
 50
0
 73
    2
 44
1
  0
SOLID
  5
FD
100
AcDbEntity
  8
measurement
  6
ByBlock
 62
    0
370
   -2
100
AcDbTrace
 10
230
 20
100
 30
0
 11
232.5
 21
100.4162846577728
 31
0
 12
232.5
 22
99.58371534222717
 32
0
 13
232.5
 23
99.58371534222717
 33
0
  0
SOLID
  5
FE
100
AcDbEntity
  8
measurement
  6
ByBlock
 62
    0
370
   -2
100
AcDbTrace
 10
260
 20
100
 30
0
 11
257.5
 21
99.58371534222717
 31
0
 12
257.5
 22
100.4162846577728
 32
0
 13
257.5
 23
100.4162846577728
 33
0
  0
ENDBLK
  5
74
330
72
100
AcDbEntity
  8
0
100
AcDbBlockEnd
  0
BLOCK
  5
76
330
75
100
AcDbEntity
  8
0
100
AcDbBlockBegin
  2
*D8
 70
    1
 10
0
 20
0
  3
*D8
  1

  0
LINE
  5
FF
100
AcDbEntity
  8
measurement
  6
ByBlock
 62
    0
370
   -2
100
AcDbLine
 10
220
 20
110.625
 11
220
 21
141.25
  0
LINE
  5
100
100
AcDbEntity
  8
measurement
  6
ByBlock
 62
    0
370
   -2
100
AcDbLine
 10
200
 20
110.625
 11
200
 21
141.25
  0
LINE
  5
101
100
AcDbEntity
  8
measurement
  6
ByBlock
 62
    0
370
   -2
100
AcDbLine
 10
220
 20
140
 11
200
 21
140
  0
MTEXT
  5
102
100
AcDbEntity
  8
measurement
  6
CONTINUOUS
 62
    0
370
   -2
100
AcDbMText
 10
210
 20
141.875
 30
0
 40
2.5
 41
7.777777777777779
 71
    5
 72
    1
  1
20.00
  7
standard
210
0
220
0
230
1
 50
0
 73
    2
 44
1
  0
SOLID
  5
103
100
AcDbEntity
  8
measurement
  6
ByBlock
 62
    0
370
   -2
100
AcDbTrace
 10
220
 20
140
 30
0
 11
217.5
 21
139.5837153422272
 31
0
 12
217.5
 22
140.4162846577728
 32
0
 13
217.5
 23
140.4162846577728
 33
0
  0
SOLID
  5
104
100
AcDbEntity
  8
measurement
  6
ByBlock
 62
    0
370
   -2
100
AcDbTrace
 10
200
 20
140
 30
0
 11
202.5
 21
140.4162846577728
 31
0
 12
202.5
 22
139.5837153422272
 32
0
 13
202.5
 23
139.5837153422272
 33
0
  0
ENDBLK
  5
77
330
75
100
AcDbEntity
  8
0
100
AcDbBlockEnd
  0
BLOCK
  5
79
330
78
100
AcDbEntity
  8
0
100
AcDbBlockBegin
  2
*D11
 70
    1
 10
0
 20
0
  3
*D11
  1

  0
LINE
  5
105
100
AcDbEntity
  8
measurement
  6
ByBlock
 62
    0
370
   -2
100
AcDbLine
 10
330.625
 20
120
 11
361.25
 21
120
  0
LINE
  5
106
100
AcDbEntity
  8
measurement
  6
ByBlock
 62
    0
370
   -2
100
AcDbLine
 10
330.625
 20
110
 11
361.25
 21
110
  0
LINE
  5
107
100
AcDbEntity
  8
measurement
  6
ByBlock
 62
    0
370
   -2
100
AcDbLine
 10
360
 20
120
 11
360
 21
110
  0
MTEXT
  5
108
100
AcDbEntity
  8
measurement
  6
CONTINUOUS
 62
    0
370
   -2
100
AcDbMText
 10
358.125
 20
115
 30
0
 40
2.5
 41
7.222222222222223
 71
    5
 72
    1
  1
10.00
  7
standard
210
0
220
0
230
1
 50
90
 73
    2
 44
1
  0
SOLID
  5
109
100
AcDbEntity
  8
measurement
  6
ByBlock
 62
    0
370
   -2
100
AcDbTrace
 10
360
 20
120
 30
0
 11
360.4162846577728
 21
117.5
 31
0
 12
359.5837153422272
 22
117.5
 32
0
 13
359.5837153422272
 23
117.5
 33
0
  0
SOLID
  5
10A
100
AcDbEntity
  8
measurement
  6
ByBlock
 62
    0
370
   -2
100
AcDbTrace
 10
360
 20
110
 30
0
 11
359.5837153422272
 21
112.5
 31
0
 12
360.4162846577728
 22
112.5
 32
0
 13
360.4162846577728
 23
112.5
 33
0
  0
ENDBLK
  5
7A
330
78
100
AcDbEntity
  8
0
100
AcDbBlockEnd
  0
BLOCK
  5
7C
330
7B
100
AcDbEntity
  8
0
100
AcDbBlockBegin
  2
*D19
 70
    1
 10
0
 20
0
  3
*D19
  1

  0
LINE
  5
10B
100
AcDbEntity
  8
measurement
  6
ByBlock
 62
    0
370
   -2
100
AcDbLine
 10
320
 20
50.625
 11
320
 21
55.25
  0
LINE
  5
10C
100
AcDbEntity
  8
measurement
  6
ByBlock
 62
    0
370
   -2
100
AcDbLine
 10
330
 20
50.625
 11
330
 21
55.25
  0
LINE
  5
10D
100
AcDbEntity
  8
measurement
  6
ByBlock
 62
    0
370
   -2
100
AcDbLine
 10
320
 20
54
 11
330
 21
54
  0
MTEXT
  5
10E
100
AcDbEntity
  8
measurement
  6
CONTINUOUS
 62
    0
370
   -2
100
AcDbMText
 10
325
 20
55.875
 30
0
 40
2.5
 41
7.222222222222223
 71
    5
 72
    1
  1
10.00
  7
standard
210
0
220
0
230
1
 50
0
 73
    2
 44
1
  0
SOLID
  5
10F
100
AcDbEntity
  8
measurement
  6
ByBlock
 62
    0
370
   -2
100
AcDbTrace
 10
320
 20
54
 30
0
 11
322.5
 21
54.41628465777284
 31
0
 12
322.5
 22
53.58371534222716
 32
0
 13
322.5
 23
53.58371534222716
 33
0
  0
SOLID
  5
110
100
AcDbEntity
  8
measurement
  6
ByBlock
 62
    0
370
   -2
100
AcDbTrace
 10
330
 20
54
 30
0
 11
327.5
 21
53.58371534222716
 31
0
 12
327.5
 22
54.41628465777284
 32
0
 13
327.5
 23
54.41628465777284
 33
0
  0
ENDBLK
  5
7D
330
7B
100
AcDbEntity
  8
0
100
AcDbBlockEnd
  0
BLOCK
  5
7F
330
7E
100
AcDbEntity
  8
0
100
AcDbBlockBegin
  2
*D4
 70
    1
 10
0
 20
0
  3
*D4
  1

  0
LINE
  5
111
100
AcDbEntity
  8
measurement
  6
ByBlock
 62
    0
370
   -2
100
AcDbLine
 10
288.5
 20
119.375
 11
288.5
 21
114.75
  0
LINE
  5
112
100
AcDbEntity
  8
measurement
  6
ByBlock
 62
    0
370
   -2
100
AcDbLine
 10
291.5
 20
119.375
 11
291.5
 21
114.75
  0
LINE
  5
113
100
AcDbEntity
  8
measurement
  6
ByBlock
 62
    0
370
   -2
100
AcDbLine
 10
283.5
 20
116
 11
296.5
 21
116
  0
MTEXT
  5
114
100
AcDbEntity
  8
measurement
  6
CONTINUOUS
 62
    0
370
   -2
100
AcDbMText
 10
295.0416666666667
 20
117.875
 30
0
 40
2.5
 41
5.833333333333488
 71
    5
 72
    1
  1
3.00
  7
standard
210
0
220
0
230
1
 50
0
 73
    2
 44
1
  0
SOLID
  5
115
100
AcDbEntity
  8
measurement
  6
ByBlock
 62
    0
370
   -2
100
AcDbTrace
 10
288.5
 20
116
 30
0
 11
286
 21
115.5837153422272
 31
0
 12
286
 22
116.4162846577728
 32
0
 13
286
 23
116.4162846577728
 33
0
  0
SOLID
  5
116
100
AcDbEntity
  8
measurement
  6
ByBlock
 62
    0
370
   -2
100
AcDbTrace
 10
291.5
 20
116
 30
0
 11
294
 21
116.4162846577728
 31
0
 12
294
 22
115.5837153422272
 32
0
 13
294
 23
115.5837153422272
 33
0
  0
ENDBLK
  5
80
330
7E
100
AcDbEntity
  8
0
100
AcDbBlockEnd
  0
BLOCK
  5
82
330
81
100
AcDbEntity
  8
0
100
AcDbBlockBegin
  2
*D22
 70
    1
 10
0
 20
0
  3
*D22
  1

  0
LINE
  5
117
100
AcDbEntity
  8
measurement
  6
ByBlock
 62
    0
370
   -2
100
AcDbLine
 10
199.375
 20
30
 11
188.75
 21
30
  0
LINE
  5
118
100
AcDbEntity
  8
measurement
  6
ByBlock
 62
    0
370
   -2
100
AcDbLine
 10
199.375
 20
-5
 11
188.75
 21
-4.999999999999999
  0
LINE
  5
119
100
AcDbEntity
  8
measurement
  6
ByBlock
 62
    0
370
   -2
100
AcDbLine
 10
190
 20
30
 11
190
 21
-4.999999999999999
  0
MTEXT
  5
11A
100
AcDbEntity
  8
measurement
  6
CONTINUOUS
 62
    0
370
   -2
100
AcDbMText
 10
188.125
 20
12.50000000000001
 30
0
 40
2.5
 41
7.777777777778088
 71
    5
 72
    1
  1
35.00
  7
standard
210
0
220
0
230
1
 50
90
 73
    2
 44
1
  0
SOLID
  5
11B
100
AcDbEntity
  8
measurement
  6
ByBlock
 62
    0
370
   -2
100
AcDbTrace
 10
190
 20
30
 30
0
 11
190.4162846577728
 21
27.5
 31
0
 12
189.5837153422272
 22
27.5
 32
0
 13
189.5837153422272
 23
27.5
 33
0
  0
SOLID
  5
11C
100
AcDbEntity
  8
measurement
  6
ByBlock
 62
    0
370
   -2
100
AcDbTrace
 10
190
 20
-4.999999999999999
 30
0
 11
189.5837153422272
 21
-2.499999999999999
 31
0
 12
190.4162846577728
 22
-2.499999999999999
 32
0
 13
190.4162846577728
 23
-2.499999999999999
 33
0
  0
ENDBLK
  5
83
330
81
100
AcDbEntity
  8
0
100
AcDbBlockEnd
  0
BLOCK
  5
85
330
84
100
AcDbEntity
  8
0
100
AcDbBlockBegin
  2
*D12
 70
    1
 10
0
 20
0
  3
*D12
  1

  0
LINE
  5
11D
100
AcDbEntity
  8
measurement
  6
ByBlock
 62
    0
370
   -2
100
AcDbLine
 10
230
 20
50.625
 11
230
 21
55.25
  0
LINE
  5
11E
100
AcDbEntity
  8
measurement
  6
ByBlock
 62
    0
370
   -2
100
AcDbLine
 10
320
 20
50.625
 11
320
 21
55.25
  0
LINE
  5
11F
100
AcDbEntity
  8
measurement
  6
ByBlock
 62
    0
370
   -2
100
AcDbLine
 10
230
 20
54
 11
320
 21
54
  0
MTEXT
  5
120
100
AcDbEntity
  8
measurement
  6
CONTINUOUS
 62
    0
370
   -2
100
AcDbMText
 10
275
 20
55.875
 30
0
 40
2.5
 41
7.777777777778088
 71
    5
 72
    1
  1
90.00
  7
standard
210
0
220
0
230
1
 50
0
 73
    2
 44
1
  0
SOLID
  5
121
100
AcDbEntity
  8
measurement
  6
ByBlock
 62
    0
370
   -2
100
AcDbTrace
 10
230
 20
54
 30
0
 11
232.5
 21
54.41628465777284
 31
0
 12
232.5
 22
53.58371534222716
 32
0
 13
232.5
 23
53.58371534222716
 33
0
  0
SOLID
  5
122
100
AcDbEntity
  8
measurement
  6
ByBlock
 62
    0
370
   -2
100
AcDbTrace
 10
320
 20
54
 30
0
 11
317.5
 21
53.58371534222716
 31
0
 12
317.5
 22
54.41628465777284
 32
0
 13
317.5
 23
54.41628465777284
 33
0
  0
ENDBLK
  5
86
330
84
100
AcDbEntity
  8
0
100
AcDbBlockEnd
  0
BLOCK
  5
88
330
87
100
AcDbEntity
  8
0
100
AcDbBlockBegin
  2
*D20
 70
    1
 10
0
 20
0
  3
*D20
  1

  0
LINE
  5
123
100
AcDbEntity
  8
measurement
  6
ByBlock
 62
    0
370
   -2
100
AcDbLine
 10
230
 20
50.625
 11
230
 21
55.25
  0
LINE
  5
124
100
AcDbEntity
  8
measurement
  6
ByBlock
 62
    0
370
   -2
100
AcDbLine
 10
220
 20
50.625
 11
220
 21
55.25
  0
LINE
  5
125
100
AcDbEntity
  8
measurement
  6
ByBlock
 62
    0
370
   -2
100
AcDbLine
 10
230
 20
54
 11
220
 21
54
  0
MTEXT
  5
126
100
AcDbEntity
  8
measurement
  6
CONTINUOUS
 62
    0
370
   -2
100
AcDbMText
 10
225
 20
55.875
 30
0
 40
2.5
 41
7.222222222222223
 71
    5
 72
    1
  1
10.00
  7
standard
210
0
220
0
230
1
 50
0
 73
    2
 44
1
  0
SOLID
  5
127
100
AcDbEntity
  8
measurement
  6
ByBlock
 62
    0
370
   -2
100
AcDbTrace
 10
230
 20
54
 30
0
 11
227.5
 21
53.58371534222716
 31
0
 12
227.5
 22
54.41628465777284
 32
0
 13
227.5
 23
54.41628465777284
 33
0
  0
SOLID
  5
128
100
AcDbEntity
  8
measurement
  6
ByBlock
 62
    0
370
   -2
100
AcDbTrace
 10
220
 20
54
 30
0
 11
222.5
 21
54.41628465777284
 31
0
 12
222.5
 22
53.58371534222716
 32
0
 13
222.5
 23
53.58371534222716
 33
0
  0
ENDBLK
  5
89
330
87
100
AcDbEntity
  8
0
100
AcDbBlockEnd
  0
BLOCK
  5
8B
330
8A
100
AcDbEntity
  8
0
100
AcDbBlockBegin
  2
*D21
 70
    1
 10
0
 20
0
  3
*D21
  1

  0
LINE
  5
129
100
AcDbEntity
  8
measurement
  6
ByBlock
 62
    0
370
   -2
100
AcDbLine
 10
220
 20
30.625
 11
220
 21
55.25
  0
LINE
  5
12A
100
AcDbEntity
  8
measurement
  6
ByBlock
 62
    0
370
   -2
100
AcDbLine
 10
200
 20
30.625
 11
200
 21
55.25
  0
LINE
  5
12B
100
AcDbEntity
  8
measurement
  6
ByBlock
 62
    0
370
   -2
100
AcDbLine
 10
220
 20
54
 11
200
 21
54
  0
MTEXT
  5
12C
100
AcDbEntity
  8
measurement
  6
CONTINUOUS
 62
    0
370
   -2
100
AcDbMText
 10
210
 20
55.875
 30
0
 40
2.5
 41
7.777777777777779
 71
    5
 72
    1
  1
20.00
  7
standard
210
0
220
0
230
1
 50
0
 73
    2
 44
1
  0
SOLID
  5
12D
100
AcDbEntity
  8
measurement
  6
ByBlock
 62
    0
370
   -2
100
AcDbTrace
 10
220
 20
54
 30
0
 11
217.5
 21
53.58371534222716
 31
0
 12
217.5
 22
54.41628465777284
 32
0
 13
217.5
 23
54.41628465777284
 33
0
  0
SOLID
  5
12E
100
AcDbEntity
  8
measurement
  6
ByBlock
 62
    0
370
   -2
100
AcDbTrace
 10
200
 20
54
 30
0
 11
202.5
 21
54.41628465777284
 31
0
 12
202.5
 22
53.58371534222716
 32
0
 13
202.5
 23
53.58371534222716
 33
0
  0
ENDBLK
  5
8C
330
8A
100
AcDbEntity
  8
0
100
AcDbBlockEnd
  0
BLOCK
  5
8E
330
8D
100
AcDbEntity
  8
0
100
AcDbBlockBegin
  2
*D23
 70
    1
 10
0
 20
0
  3
*D23
  1

  0
LINE
  5
12F
100
AcDbEntity
  8
measurement
  6
ByBlock
 62
    0
370
   -2
100
AcDbLine
 10
330.625
 20
40
 11
361.25
 21
40
  0
LINE
  5
130
100
AcDbEntity
  8
measurement
  6
ByBlock
 62
    0
370
   -2
100
AcDbLine
 10
330.625
 20
50
 11
361.25
 21
50
  0
LINE
  5
131
100
AcDbEntity
  8
measurement
  6
ByBlock
 62
    0
370
   -2
100
AcDbLine
 10
360
 20
40
 11
360
 21
50
  0
MTEXT
  5
132
100
AcDbEntity
  8
measurement
  6
CONTINUOUS
 62
    0
370
   -2
100
AcDbMText
 10
358.125
 20
45
 30
0
 40
2.5
 41
7.222222222222223
 71
    5
 72
    1
  1
10.00
  7
standard
210
0
220
0
230
1
 50
90
 73
    2
 44
1
  0
SOLID
  5
133
100
AcDbEntity
  8
measurement
  6
ByBlock
 62
    0
370
   -2
100
AcDbTrace
 10
360
 20
40
 30
0
 11
359.5837153422272
 21
42.5
 31
0
 12
360.4162846577728
 22
42.5
 32
0
 13
360.4162846577728
 23
42.5
 33
0
  0
SOLID
  5
134
100
AcDbEntity
  8
measurement
  6
ByBlock
 62
    0
370
   -2
100
AcDbTrace
 10
360
 20
50
 30
0
 11
360.4162846577728
 21
47.5
 31
0
 12
359.5837153422272
 22
47.5
 32
0
 13
359.5837153422272
 23
47.5
 33
0
  0
ENDBLK
  5
8F
330
8D
100
AcDbEntity
  8
0
100
AcDbBlockEnd
  0
BLOCK
  5
91
330
90
100
AcDbEntity
  8
0
100
AcDbBlockBegin
  2
*D16
 70
    1
 10
0
 20
0
  3
*D16
  1

  0
LINE
  5
135
100
AcDbEntity
  8
measurement
  6
ByBlock
 62
    0
370
   -2
100
AcDbLine
 10
290
 20
29.375
 11
290
 21
19.75
  0
LINE
  5
136
100
AcDbEntity
  8
measurement
  6
ByBlock
 62
    0
370
   -2
100
AcDbLine
 10
295
 20
29.375
 11
295
 21
19.75
  0
LINE
  5
137
100
AcDbEntity
  8
measurement
  6
ByBlock
 62
    0
370
   -2
100
AcDbLine
 10
285
 20
21
 11
300
 21
21
  0
MTEXT
  5
138
100
AcDbEntity
  8
measurement
  6
CONTINUOUS
 62
    0
370
   -2
100
AcDbMText
 10
298.5416666666667
 20
22.875
 30
0
 40
2.5
 41
5.833333333333488
 71
    5
 72
    1
  1
5.00
  7
standard
210
0
220
0
230
1
 50
0
 73
    2
 44
1
  0
SOLID
  5
139
100
AcDbEntity
  8
measurement
  6
ByBlock
 62
    0
370
   -2
100
AcDbTrace
 10
290
 20
21
 30
0
 11
287.5
 21
20.58371534222716
 31
0
 12
287.5
 22
21.41628465777284
 32
0
 13
287.5
 23
21.41628465777284
 33
0
  0
SOLID
  5
13A
100
AcDbEntity
  8
measurement
  6
ByBlock
 62
    0
370
   -2
100
AcDbTrace
 10
295
 20
21
 30
0
 11
297.5
 21
21.41628465777284
 31
0
 12
297.5
 22
20.58371534222716
 32
0
 13
297.5
 23
20.58371534222716
 33
0
  0
ENDBLK
  5
92
330
90
100
AcDbEntity
  8
0
100
AcDbBlockEnd
  0
BLOCK
  5
94
330
93
100
AcDbEntity
  8
0
100
AcDbBlockBegin
  2
*D24
 70
    1
 10
0
 20
0
  3
*D24
  1

  0
LINE
  5
13B
100
AcDbEntity
  8
measurement
  6
ByBlock
 62
    0
370
   -2
100
AcDbLine
 10
330.625
 20
40
 11
361.25
 21
40
  0
LINE
  5
13C
100
AcDbEntity
  8
measurement
  6
ByBlock
 62
    0
370
   -2
100
AcDbLine
 10
330.625
 20
30
 11
361.25
 21
30
  0
LINE
  5
13D
100
AcDbEntity
  8
measurement
  6
ByBlock
 62
    0
370
   -2
100
AcDbLine
 10
360
 20
40
 11
360
 21
30
  0
MTEXT
  5
13E
100
AcDbEntity
  8
measurement
  6
CONTINUOUS
 62
    0
370
   -2
100
AcDbMText
 10
358.125
 20
35
 30
0
 40
2.5
 41
7.222222222222223
 71
    5
 72
    1
  1
10.00
  7
standard
210
0
220
0
230
1
 50
90
 73
    2
 44
1
  0
SOLID
  5
13F
100
AcDbEntity
  8
measurement
  6
ByBlock
 62
    0
370
   -2
100
AcDbTrace
 10
360
 20
40
 30
0
 11
360.4162846577728
 21
37.5
 31
0
 12
359.5837153422272
 22
37.5
 32
0
 13
359.5837153422272
 23
37.5
 33
0
  0
SOLID
  5
140
100
AcDbEntity
  8
measurement
  6
ByBlock
 62
    0
370
   -2
100
AcDbTrace
 10
360
 20
30
 30
0
 11
359.5837153422272
 21
32.5
 31
0
 12
360.4162846577728
 22
32.5
 32
0
 13
360.4162846577728
 23
32.5
 33
0
  0
ENDBLK
  5
95
330
93
100
AcDbEntity
  8
0
100
AcDbBlockEnd
  0
BLOCK
  5
97
330
96
100
AcDbEntity
  8
0
100
AcDbBlockBegin
  2
*D7
 70
    1
 10
0
 20
0
  3
*D7
  1

  0
LINE
  5
141
100
AcDbEntity
  8
measurement
  6
ByBlock
 62
    0
370
   -2
100
AcDbLine
 10
230
 20
130.625
 11
230
 21
141.25
  0
LINE
  5
142
100
AcDbEntity
  8
measurement
  6
ByBlock
 62
    0
370
   -2
100
AcDbLine
 10
220
 20
130.625
 11
220
 21
141.25
  0
LINE
  5
143
100
AcDbEntity
  8
measurement
  6
ByBlock
 62
    0
370
   -2
100
AcDbLine
 10
230
 20
140
 11
220
 21
140
  0
MTEXT
  5
144
100
AcDbEntity
  8
measurement
  6
CONTINUOUS
 62
    0
370
   -2
100
AcDbMText
 10
225
 20
141.875
 30
0
 40
2.5
 41
7.222222222222223
 71
    5
 72
    1
  1
10.00
  7
standard
210
0
220
0
230
1
 50
0
 73
    2
 44
1
  0
SOLID
  5
145
100
AcDbEntity
  8
measurement
  6
ByBlock
 62
    0
370
   -2
100
AcDbTrace
 10
230
 20
140
 30
0
 11
227.5
 21
139.5837153422272
 31
0
 12
227.5
 22
140.4162846577728
 32
0
 13
227.5
 23
140.4162846577728
 33
0
  0
SOLID
  5
146
100
AcDbEntity
  8
measurement
  6
ByBlock
 62
    0
370
   -2
100
AcDbTrace
 10
220
 20
140
 30
0
 11
222.5
 21
140.4162846577728
 31
0
 12
222.5
 22
139.5837153422272
 32
0
 13
222.5
 23
139.5837153422272
 33
0
  0
ENDBLK
  5
98
330
96
100
AcDbEntity
  8
0
100
AcDbBlockEnd
  0
BLOCK
  5
9A
330
99
100
AcDbEntity
  8
0
100
AcDbBlockBegin
  2
*D33
 70
    1
 10
0
 20
0
  3
*D33
  1

  0
LINE
  5
147
100
AcDbEntity
  8
measurement
  6
ByBlock
 62
    0
370
   -2
100
AcDbLine
 10
89.375
 20
5
 11
3.75
 21
5.000000000000011
  0
LINE
  5
148
100
AcDbEntity
  8
measurement
  6
ByBlock
 62
    0
370
   -2
100
AcDbLine
 10
89.375
 20
175
 11
3.75
 21
175
  0
LINE
  5
149
100
AcDbEntity
  8
measurement
  6
ByBlock
 62
    0
370
   -2
100
AcDbLine
 10
5
 20
5.000000000000011
 11
5
 21
175
  0
MTEXT
  5
14A
100
AcDbEntity
  8
measurement
  6
CONTINUOUS
 62
    0
370
   -2
100
AcDbMText
 10
3.125
 20
90
 30
0
 40
2.5
 41
9.166666666666668
 71
    5
 72
    1
  1
170.00
  7
standard
210
0
220
0
230
1
 50
90
 73
    2
 44
1
  0
SOLID
  5
14B
100
AcDbEntity
  8
measurement
  6
ByBlock
 62
    0
370
   -2
100
AcDbTrace
 10
5
 20
5.000000000000011
 30
0
 11
4.58371534222716
 21
7.500000000000011
 31
0
 12
5.416284657772841
 22
7.500000000000011
 32
0
 13
5.416284657772841
 23
7.500000000000011
 33
0
  0
SOLID
  5
14C
100
AcDbEntity
  8
measurement
  6
ByBlock
 62
    0
370
   -2
100
AcDbTrace
 10
5
 20
175
 30
0
 11
5.416284657772841
 21
172.5
 31
0
 12
4.583715342227159
 22
172.5
 32
0
 13
4.583715342227159
 23
172.5
 33
0
  0
ENDBLK
  5
9B
330
99
100
AcDbEntity
  8
0
100
AcDbBlockEnd
  0
BLOCK
  5
9D
330
9C
100
AcDbEntity
  8
0
100
AcDbBlockBegin
  2
*D28
 70
    1
 10
0
 20
0
  3
*D28
  1

  0
LINE
  5
14D
100
AcDbEntity
  8
measurement
  6
ByBlock
 62
    0
370
   -2
100
AcDbLine
 10
90
 20
4.375
 11
90
 21
-6.25
  0
LINE
  5
14E
100
AcDbEntity
  8
measurement
  6
ByBlock
 62
    0
370
   -2
100
AcDbLine
 10
110
 20
4.375
 11
110
 21
-6.25
  0
LINE
  5
14F
100
AcDbEntity
  8
measurement
  6
ByBlock
 62
    0
370
   -2
100
AcDbLine
 10
90
 20
-5
 11
110
 21
-5
  0
MTEXT
  5
150
100
AcDbEntity
  8
measurement
  6
CONTINUOUS
 62
    0
370
   -2
100
AcDbMText
 10
100
 20
-3.125
 30
0
 40
2.5
 41
7.777777777777779
 71
    5
 72
    1
  1
20.00
  7
standard
210
0
220
0
230
1
 50
0
 73
    2
 44
1
  0
SOLID
  5
151
100
AcDbEntity
  8
measurement
  6
ByBlock
 62
    0
370
   -2
100
AcDbTrace
 10
90
 20
-5
 30
0
 11
92.5
 21
-4.58371534222716
 31
0
 12
92.5
 22
-5.416284657772841
 32
0
 13
92.5
 23
-5.416284657772841
 33
0
  0
SOLID
  5
152
100
AcDbEntity
  8
measurement
  6
ByBlock
 62
    0
370
   -2
100
AcDbTrace
 10
110
 20
-5
 30
0
 11
107.5
 21
-5.416284657772841
 31
0
 12
107.5
 22
-4.583715342227159
 32
0
 13
107.5
 23
-4.583715342227159
 33
0
  0
ENDBLK
  5
9E
330
9C
100
AcDbEntity
  8
0
100
AcDbBlockEnd
  0
BLOCK
  5
A0
330
9F
100
AcDbEntity
  8
0
100
AcDbBlockBegin
  2
*D27
 70
    1
 10
0
 20
0
  3
*D27
  1

  0
LINE
  5
153
100
AcDbEntity
  8
measurement
  6
ByBlock
 62
    0
370
   -2
100
AcDbLine
 10
110.625
 20
20
 11
121.25
 21
20
  0
LINE
  5
154
100
AcDbEntity
  8
measurement
  6
ByBlock
 62
    0
370
   -2
100
AcDbLine
 10
110.625
 20
5
 11
121.25
 21
5
  0
LINE
  5
155
100
AcDbEntity
  8
measurement
  6
ByBlock
 62
    0
370
   -2
100
AcDbLine
 10
120
 20
20
 11
120
 21
5
  0
MTEXT
  5
156
100
AcDbEntity
  8
measurement
  6
CONTINUOUS
 62
    0
370
   -2
100
AcDbMText
 10
118.125
 20
12.5
 30
0
 40
2.5
 41
7.222222222222378
 71
    5
 72
    1
  1
15.00
  7
standard
210
0
220
0
230
1
 50
90
 73
    2
 44
1
  0
SOLID
  5
157
100
AcDbEntity
  8
measurement
  6
ByBlock
 62
    0
370
   -2
100
AcDbTrace
 10
120
 20
20
 30
0
 11
120.4162846577728
 21
17.5
 31
0
 12
119.5837153422272
 22
17.5
 32
0
 13
119.5837153422272
 23
17.5
 33
0
  0
SOLID
  5
158
100
AcDbEntity
  8
measurement
  6
ByBlock
 62
    0
370
   -2
100
AcDbTrace
 10
120
 20
5
 30
0
 11
119.5837153422272
 21
7.5
 31
0
 12
120.4162846577728
 22
7.5
 32
0
 13
120.4162846577728
 23
7.5
 33
0
  0
ENDBLK
  5
A1
330
9F
100
AcDbEntity
  8
0
100
AcDbBlockEnd
  0
BLOCK
  5
A3
330
A2
100
AcDbEntity
  8
0
100
AcDbBlockBegin
  2
*D9
 70
    1
 10
0
 20
0
  3
*D9
  1

  0
LINE
  5
159
100
AcDbEntity
  8
measurement
  6
ByBlock
 62
    0
370
   -2
100
AcDbLine
 10
350.625
 20
110
 11
361.25
 21
110
  0
LINE
  5
15A
100
AcDbEntity
  8
measurement
  6
ByBlock
 62
    0
370
   -2
100
AcDbLine
 10
350.625
 20
90
 11
361.25
 21
90
  0
LINE
  5
15B
100
AcDbEntity
  8
measurement
  6
ByBlock
 62
    0
370
   -2
100
AcDbLine
 10
360
 20
110
 11
360
 21
90
  0
MTEXT
  5
15C
100
AcDbEntity
  8
measurement
  6
CONTINUOUS
 62
    0
370
   -2
100
AcDbMText
 10
358.125
 20
100
 30
0
 40
2.5
 41
7.777777777777779
 71
    5
 72
    1
  1
20.00
  7
standard
210
0
220
0
230
1
 50
90
 73
    2
 44
1
  0
SOLID
  5
15D
100
AcDbEntity
  8
measurement
  6
ByBlock
 62
    0
370
   -2
100
AcDbTrace
 10
360
 20
110
 30
0
 11
360.4162846577728
 21
107.5
 31
0
 12
359.5837153422272
 22
107.5
 32
0
 13
359.5837153422272
 23
107.5
 33
0
  0
SOLID
  5
15E
100
AcDbEntity
  8
measurement
  6
ByBlock
 62
    0
370
   -2
100
AcDbTrace
 10
360
 20
90
 30
0
 11
359.5837153422272
 21
92.5
 31
0
 12
360.4162846577728
 22
92.5
 32
0
 13
360.4162846577728
 23
92.5
 33
0
  0
ENDBLK
  5
A4
330
A2
100
AcDbEntity
  8
0
100
AcDbBlockEnd
  0
BLOCK
  5
A6
330
A5
100
AcDbEntity
  8
0
100
AcDbBlockBegin
  2
*D2
 70
    1
 10
0
 20
0
  3
*D2
  1

  0
LINE
  5
15F
100
AcDbEntity
  8
measurement
  6
ByBlock
 62
    0
370
   -2
100
AcDbLine
 10
230
 20
130.625
 11
230
 21
141.25
  0
LINE
  5
160
100
AcDbEntity
  8
measurement
  6
ByBlock
 62
    0
370
   -2
100
AcDbLine
 10
320
 20
130.625
 11
320
 21
141.25
  0
LINE
  5
161
100
AcDbEntity
  8
measurement
  6
ByBlock
 62
    0
370
   -2
100
AcDbLine
 10
230
 20
140
 11
320
 21
140
  0
MTEXT
  5
162
100
AcDbEntity
  8
measurement
  6
CONTINUOUS
 62
    0
370
   -2
100
AcDbMText
 10
275
 20
141.875
 30
0
 40
2.5
 41
7.777777777778088
 71
    5
 72
    1
  1
90.00
  7
standard
210
0
220
0
230
1
 50
0
 73
    2
 44
1
  0
SOLID
  5
163
100
AcDbEntity
  8
measurement
  6
ByBlock
 62
    0
370
   -2
100
AcDbTrace
 10
230
 20
140
 30
0
 11
232.5
 21
140.4162846577728
 31
0
 12
232.5
 22
139.5837153422272
 32
0
 13
232.5
 23
139.5837153422272
 33
0
  0
SOLID
  5
164
100
AcDbEntity
  8
measurement
  6
ByBlock
 62
    0
370
   -2
100
AcDbTrace
 10
320
 20
140
 30
0
 11
317.5
 21
139.5837153422272
 31
0
 12
317.5
 22
140.4162846577728
 32
0
 13
317.5
 23
140.4162846577728
 33
0
  0
ENDBLK
  5
A7
330
A5
100
AcDbEntity
  8
0
100
AcDbBlockEnd
  0
BLOCK
  5
A9
330
A8
100
AcDbEntity
  8
0
100
AcDbBlockBegin
  2
*D10
 70
    1
 10
0
 20
0
  3
*D10
  1

  0
LINE
  5
165
100
AcDbEntity
  8
measurement
  6
ByBlock
 62
    0
370
   -2
100
AcDbLine
 10
320.625
 20
130
 11
361.25
 21
130
  0
LINE
  5
166
100
AcDbEntity
  8
measurement
  6
ByBlock
 62
    0
370
   -2
100
AcDbLine
 10
320.625
 20
120
 11
361.25
 21
120
  0
LINE
  5
167
100
AcDbEntity
  8
measurement
  6
ByBlock
 62
    0
370
   -2
100
AcDbLine
 10
360
 20
130
 11
360
 21
120
  0
MTEXT
  5
168
100
AcDbEntity
  8
measurement
  6
CONTINUOUS
 62
    0
370
   -2
100
AcDbMText
 10
358.125
 20
125
 30
0
 40
2.5
 41
7.222222222222223
 71
    5
 72
    1
  1
10.00
  7
standard
210
0
220
0
230
1
 50
90
 73
    2
 44
1
  0
SOLID
  5
169
100
AcDbEntity
  8
measurement
  6
ByBlock
 62
    0
370
   -2
100
AcDbTrace
 10
360
 20
130
 30
0
 11
360.4162846577728
 21
127.5
 31
0
 12
359.5837153422272
 22
127.5
 32
0
 13
359.5837153422272
 23
127.5
 33
0
  0
SOLID
  5
16A
100
AcDbEntity
  8
measurement
  6
ByBlock
 62
    0
370
   -2
100
AcDbTrace
 10
360
 20
120
 30
0
 11
359.5837153422272
 21
122.5
 31
0
 12
360.4162846577728
 22
122.5
 32
0
 13
360.4162846577728
 23
122.5
 33
0
  0
ENDBLK
  5
AA
330
A8
100
AcDbEntity
  8
0
100
AcDbBlockEnd
  0
BLOCK
  5
AC
330
AB
100
AcDbEntity
  8
0
100
AcDbBlockBegin
  2
*D32
 70
    1
 10
0
 20
0
  3
*D32
  1

  0
LINE
  5
16B
100
AcDbEntity
  8
measurement
  6
ByBlock
 62
    0
370
   -2
100
AcDbLine
 10
89.375
 20
5
 11
66.75
 21
5.000000000000003
  0
LINE
  5
16C
100
AcDbEntity
  8
measurement
  6
ByBlock
 62
    0
370
   -2
100
AcDbLine
 10
89.375
 20
60
 11
66.75
 21
60
  0
LINE
  5
16D
100
AcDbEntity
  8
measurement
  6
ByBlock
 62
    0
370
   -2
100
AcDbLine
 10
68
 20
5.000000000000003
 11
68
 21
60
  0
MTEXT
  5
16E
100
AcDbEntity
  8
measurement
  6
CONTINUOUS
 62
    0
370
   -2
100
AcDbMText
 10
66.125
 20
32.5
 30
0
 40
2.5
 41
7.777777777778088
 71
    5
 72
    1
  1
55.00
  7
standard
210
0
220
0
230
1
 50
90
 73
    2
 44
1
  0
SOLID
  5
16F
100
AcDbEntity
  8
measurement
  6
ByBlock
 62
    0
370
   -2
100
AcDbTrace
 10
68
 20
5.000000000000003
 30
0
 11
67.58371534222717
 21
7.500000000000003
 31
0
 12
68.41628465777283
 22
7.500000000000003
 32
0
 13
68.41628465777283
 23
7.500000000000003
 33
0
  0
SOLID
  5
170
100
AcDbEntity
  8
measurement
  6
ByBlock
 62
    0
370
   -2
100
AcDbTrace
 10
68
 20
60
 30
0
 11
68.41628465777283
 21
57.5
 31
0
 12
67.58371534222717
 22
57.5
 32
0
 13
67.58371534222717
 23
57.5
 33
0
  0
ENDBLK
  5
AD
330
AB
100
AcDbEntity
  8
0
100
AcDbBlockEnd
  0
BLOCK
  5
AF
330
AE
100
AcDbEntity
  8
0
100
AcDbBlockBegin
  2
*D34
 70
    1
 10
0
 20
0
  3
*D34
  1

  0
LINE
  5
171
100
AcDbEntity
  8
measurement
  6
ByBlock
 62
    0
370
   -2
100
AcDbLine
 10
15
 20
100.625
 11
15.00000000000001
 21
186.25
  0
LINE
  5
172
100
AcDbEntity
  8
measurement
  6
ByBlock
 62
    0
370
   -2
100
AcDbLine
 10
185
 20
100.625
 11
185
 21
186.25
  0
LINE
  5
173
100
AcDbEntity
  8
measurement
  6
ByBlock
 62
    0
370
   -2
100
AcDbLine
 10
15.00000000000001
 20
185
 11
185
 21
185
  0
MTEXT
  5
174
100
AcDbEntity
  8
measurement
  6
CONTINUOUS
 62
    0
370
   -2
100
AcDbMText
 10
100
 20
186.875
 30
0
 40
2.5
 41
9.166666666666668
 71
    5
 72
    1
  1
170.00
  7
standard
210
0
220
0
230
1
 50
0
 73
    2
 44
1
  0
SOLID
  5
175
100
AcDbEntity
  8
measurement
  6
ByBlock
 62
    0
370
   -2
100
AcDbTrace
 10
15.00000000000001
 20
185
 30
0
 11
17.50000000000001
 21
185.4162846577728
 31
0
 12
17.50000000000001
 22
184.5837153422272
 32
0
 13
17.50000000000001
 23
184.5837153422272
 33
0
  0
SOLID
  5
176
100
AcDbEntity
  8
measurement
  6
ByBlock
 62
    0
370
   -2
100
AcDbTrace
 10
185
 20
185
 30
0
 11
182.5
 21
184.5837153422272
 31
0
 12
182.5
 22
185.4162846577728
 32
0
 13
182.5
 23
185.4162846577728
 33
0
  0
ENDBLK
  5
B0
330
AE
100
AcDbEntity
  8
0
100
AcDbBlockEnd
  0
BLOCK
  5
B2
330
B1
100
AcDbEntity
  8
0
100
AcDbBlockBegin
  2
*D6
 70
    1
 10
0
 20
0
  3
*D6
  1

  0
LINE
  5
177
100
AcDbEntity
  8
measurement
  6
ByBlock
 62
    0
370
   -2
100
AcDbLine
 10
330
 20
110.625
 11
330
 21
141.25
  0
LINE
  5
178
100
AcDbEntity
  8
measurement
  6
ByBlock
 62
    0
370
   -2
100
AcDbLine
 10
350
 20
110.625
 11
350
 21
141.25
  0
LINE
  5
179
100
AcDbEntity
  8
measurement
  6
ByBlock
 62
    0
370
   -2
100
AcDbLine
 10
330
 20
140
 11
350
 21
140
  0
MTEXT
  5
17A
100
AcDbEntity
  8
measurement
  6
CONTINUOUS
 62
    0
370
   -2
100
AcDbMText
 10
340
 20
141.875
 30
0
 40
2.5
 41
7.777777777777779
 71
    5
 72
    1
  1
20.00
  7
standard
210
0
220
0
230
1
 50
0
 73
    2
 44
1
  0
SOLID
  5
17B
100
AcDbEntity
  8
measurement
  6
ByBlock
 62
    0
370
   -2
100
AcDbTrace
 10
330
 20
140
 30
0
 11
332.5
 21
140.4162846577728
 31
0
 12
332.5
 22
139.5837153422272
 32
0
 13
332.5
 23
139.5837153422272
 33
0
  0
SOLID
  5
17C
100
AcDbEntity
  8
measurement
  6
ByBlock
 62
    0
370
   -2
100
AcDbTrace
 10
350
 20
140
 30
0
 11
347.5
 21
139.5837153422272
 31
0
 12
347.5
 22
140.4162846577728
 32
0
 13
347.5
 23
140.4162846577728
 33
0
  0
ENDBLK
  5
B3
330
B1
100
AcDbEntity
  8
0
100
AcDbBlockEnd
  0
BLOCK
  5
B5
330
B4
100
AcDbEntity
  8
0
100
AcDbBlockBegin
  2
*D18
 70
    1
 10
0
 20
0
  3
*D18
  1

  0
LINE
  5
17D
100
AcDbEntity
  8
measurement
  6
ByBlock
 62
    0
370
   -2
100
AcDbLine
 10
330
 20
30.625
 11
330
 21
55.25
  0
LINE
  5
17E
100
AcDbEntity
  8
measurement
  6
ByBlock
 62
    0
370
   -2
100
AcDbLine
 10
349
 20
30.625
 11
349
 21
55.25
  0
LINE
  5
17F
100
AcDbEntity
  8
measurement
  6
ByBlock
 62
    0
370
   -2
100
AcDbLine
 10
330
 20
54
 11
349
 21
54
  0
MTEXT
  5
180
100
AcDbEntity
  8
measurement
  6
CONTINUOUS
 62
    0
370
   -2
100
AcDbMText
 10
339.5
 20
55.875
 30
0
 40
2.5
 41
7.222222222222378
 71
    5
 72
    1
  1
19.00
  7
standard
210
0
220
0
230
1
 50
0
 73
    2
 44
1
  0
SOLID
  5
181
100
AcDbEntity
  8
measurement
  6
ByBlock
 62
    0
370
   -2
100
AcDbTrace
 10
330
 20
54
 30
0
 11
332.5
 21
54.41628465777284
 31
0
 12
332.5
 22
53.58371534222716
 32
0
 13
332.5
 23
53.58371534222716
 33
0
  0
SOLID
  5
182
100
AcDbEntity
  8
measurement
  6
ByBlock
 62
    0
370
   -2
100
AcDbTrace
 10
349
 20
54
 30
0
 11
346.5
 21
53.58371534222716
 31
0
 12
346.5
 22
54.41628465777284
 32
0
 13
346.5
 23
54.41628465777284
 33
0
  0
ENDBLK
  5
B6
330
B4
100
AcDbEntity
  8
0
100
AcDbBlockEnd
  0
ENDSEC
  0
SECTION
  2
ENTITIES
  0
LINE
  5
183
100
AcDbEntity
  8
0
  6
ByLayer
 62
  256
370
   -1
100
AcDbLine
 10
200
 20
90
 11
200
 21
110
  0
LINE
  5
184
100
AcDbEntity
  8
0
  6
ByLayer
 62
  256
370
   -1
100
AcDbLine
 10
200
 20
110
 11
220
 21
110
  0
LINE
  5
185
100
AcDbEntity
  8
0
  6
ByLayer
 62
  256
370
   -1
100
AcDbLine
 10
220
 20
110
 11
220
 21
120
  0
LINE
  5
186
100
AcDbEntity
  8
0
  6
ByLayer
 62
  256
370
   -1
100
AcDbLine
 10
220
 20
120
 11
230
 21
130
  0
LINE
  5
187
100
AcDbEntity
  8
0
  6
ByLayer
 62
  256
370
   -1
100
AcDbLine
 10
230
 20
130
 11
320
 21
130
  0
LINE
  5
188
100
AcDbEntity
  8
0
  6
ByLayer
 62
  256
370
   -1
100
AcDbLine
 10
320
 20
130
 11
330
 21
120
  0
LINE
  5
189
100
AcDbEntity
  8
0
  6
ByLayer
 62
  256
370
   -1
100
AcDbLine
 10
330
 20
120
 11
330
 21
110
  0
LINE
  5
18A
100
AcDbEntity
  8
0
  6
ByLayer
 62
  256
370
   -1
100
AcDbLine
 10
330
 20
110
 11
350
 21
110
  0
LINE
  5
18B
100
AcDbEntity
  8
0
  6
ByLayer
 62
  256
370
   -1
100
AcDbLine
 10
350
 20
110
 11
350
 21
90
  0
LINE
  5
18C
100
AcDbEntity
  8
0
  6
ByLayer
 62
  256
370
   -1
100
AcDbLine
 10
350
 20
90
 11
200
 21
90
  0
LINE
  5
18D
100
AcDbEntity
  8
fold
  6
ByLayer
 62
  256
370
   -1
100
AcDbLine
 10
220
 20
110
 11
330
 21
110
  0
DIMENSION
  5
18E
100
AcDbEntity
  8
measurement
  6
ByLayer
 62
  256
370
   -1
100
AcDbDimension
  2
*D1
 10
350
 20
80
 30
0
 11
275
 21
81.875
 31
0
 70
   33
 71
    5
 72
    0
  3
Standard
 53
0
210
0
220
0
230
1
100
AcDbAlignedDimension
 13
200
 23
90
 33
0
 14
350
 24
90
 34
0
  0
DIMENSION
  5
18F
100
AcDbEntity
  8
measurement
  6
ByLayer
 62
  256
370
   -1
100
AcDbDimension
  2
*D2
 10
320
 20
140
 30
0
 11
275
 21
141.875
 31
0
 70
   33
 71
    5
 72
    0
  3
Standard
 53
0
210
0
220
0
230
1
100
AcDbAlignedDimension
 13
230
 23
130
 33
0
 14
320
 24
130
 34
0
  0
DIMENSION
  5
190
100
AcDbEntity
  8
measurement
  6
ByLayer
 62
  256
370
   -1
100
AcDbDimension
  2
*D3
 10
260
 20
100
 30
0
 11
245
 21
101.875
 31
0
 70
   33
 71
    5
 72
    0
  3
Standard
 53
0
210
0
220
0
230
1
100
AcDbAlignedDimension
 13
230
 23
120
 33
0
 14
260
 24
120
 34
0
  0
DIMENSION
  5
191
100
AcDbEntity
  8
measurement
  6
ByLayer
 62
  256
370
   -1
100
AcDbDimension
  2
*D4
 10
291.5
 20
116
 30
0
 11
290
 21
117.875
 31
0
 70
   33
 71
    5
 72
    0
  3
Standard
 53
0
210
0
220
0
230
1
100
AcDbAlignedDimension
 13
288.5
 23
120
 33
0
 14
291.5
 24
120
 34
0
  0
DIMENSION
  5
192
100
AcDbEntity
  8
measurement
  6
ByLayer
 62
  256
370
   -1
100
AcDbDimension
  2
*D5
 10
330
 20
140
 30
0
 11
325
 21
141.875
 31
0
 70
   33
 71
    5
 72
    0
  3
Standard
 53
0
210
0
220
0
230
1
100
AcDbAlignedDimension
 13
320
 23
130
 33
0
 14
330
 24
130
 34
0
  0
DIMENSION
  5
193
100
AcDbEntity
  8
measurement
  6
ByLayer
 62
  256
370
   -1
100
AcDbDimension
  2
*D6
 10
350
 20
140
 30
0
 11
340
 21
141.875
 31
0
 70
   33
 71
    5
 72
    0
  3
Standard
 53
0
210
0
220
0
230
1
100
AcDbAlignedDimension
 13
330
 23
110
 33
0
 14
350
 24
110
 34
0
  0
DIMENSION
  5
194
100
AcDbEntity
  8
measurement
  6
ByLayer
 62
  256
370
   -1
100
AcDbDimension
  2
*D7
 10
220
 20
140
 30
0
 11
225
 21
141.875
 31
0
 70
   33
 71
    5
 72
    0
  3
Standard
 53
0
210
0
220
0
230
1
100
AcDbAlignedDimension
 13
230
 23
130
 33
0
 14
220
 24
130
 34
0
  0
DIMENSION
  5
195
100
AcDbEntity
  8
measurement
  6
ByLayer
 62
  256
370
   -1
100
AcDbDimension
  2
*D8
 10
200
 20
140
 30
0
 11
210
 21
141.875
 31
0
 70
   33
 71
    5
 72
    0
  3
Standard
 53
0
210
0
220
0
230
1
100
AcDbAlignedDimension
 13
220
 23
110
 33
0
 14
200
 24
110
 34
0
  0
DIMENSION
  5
196
100
AcDbEntity
  8
measurement
  6
ByLayer
 62
  256
370
   -1
100
AcDbDimension
  2
*D9
 10
360
 20
90
 30
0
 11
358.125
 21
100
 31
0
 70
   33
 71
    5
 72
    0
  3
Standard
 53
0
210
0
220
0
230
1
100
AcDbAlignedDimension
 13
350
 23
110
 33
0
 14
350
 24
90
 34
0
  0
DIMENSION
  5
197
100
AcDbEntity
  8
measurement
  6
ByLayer
 62
  256
370
   -1
100
AcDbDimension
  2
*D10
 10
360
 20
120
 30
0
 11
358.125
 21
125
 31
0
 70
   33
 71
    5
 72
    0
  3
Standard
 53
0
210
0
220
0
230
1
100
AcDbAlignedDimension
 13
320
 23
130
 33
0
 14
320
 24
120
 34
0
  0
DIMENSION
  5
198
100
AcDbEntity
  8
measurement
  6
ByLayer
 62
  256
370
   -1
100
AcDbDimension
  2
*D11
 10
360
 20
110
 30
0
 11
358.125
 21
115
 31
0
 70
   33
 71
    5
 72
    0
  3
Standard
 53
0
210
0
220
0
230
1
100
AcDbAlignedDimension
 13
330
 23
120
 33
0
 14
330
 24
110
 34
0
  0
LINE
  5
199
100
AcDbEntity
  8
0
  6
ByLayer
 62
  256
370
   -1
100
AcDbLine
 10
200
 20
-5
 11
200
 21
30
  0
LINE
  5
19A
100
AcDbEntity
  8
0
  6
ByLayer
 62
  256
370
   -1
100
AcDbLine
 10
200
 20
30
 11
220
 21
30
  0
LINE
  5
19B
100
AcDbEntity
  8
0
  6
ByLayer
 62
  256
370
   -1
100
AcDbLine
 10
220
 20
30
 11
220
 21
40
  0
LINE
  5
19C
100
AcDbEntity
  8
0
  6
ByLayer
 62
  256
370
   -1
100
AcDbLine
 10
220
 20
40
 11
230
 21
50
  0
LINE
  5
19D
100
AcDbEntity
  8
0
  6
ByLayer
 62
  256
370
   -1
100
AcDbLine
 10
230
 20
50
 11
320
 21
50
  0
LINE
  5
19E
100
AcDbEntity
  8
0
  6
ByLayer
 62
  256
370
   -1
100
AcDbLine
 10
320
 20
50
 11
330
 21
40
  0
LINE
  5
19F
100
AcDbEntity
  8
0
  6
ByLayer
 62
  256
370
   -1
100
AcDbLine
 10
330
 20
40
 11
330
 21
30
  0
LINE
  5
1A0
100
AcDbEntity
  8
0
  6
ByLayer
 62
  256
370
   -1
100
AcDbLine
 10
330
 20
30
 11
350
 21
30
  0
LINE
  5
1A1
100
AcDbEntity
  8
0
  6
ByLayer
 62
  256
370
   -1
100
AcDbLine
 10
350
 20
30
 11
350
 21
-5
  0
LINE
  5
1A2
100
AcDbEntity
  8
0
  6
ByLayer
 62
  256
370
   -1
100
AcDbLine
 10
275
 20
30
 11
275
 21
-5
  0
CIRCLE
  5
1A3
100
AcDbEntity
  8
0
  6
ByLayer
 62
  256
370
   -1
100
AcDbCircle
 10
237.5
 20
30
 40
2.5
  0
LINE
  5
1A4
100
AcDbEntity
  8
0
  6
ByLayer
 62
  256
370
   -1
100
AcDbLine
 10
220
 20
30
 11
235
 21
30
  0
CIRCLE
  5
1A5
100
AcDbEntity
  8
0
  6
ByLayer
 62
  256
370
   -1
100
AcDbCircle
 10
257.5
 20
30
 40
2.5
  0
LINE
  5
1A6
100
AcDbEntity
  8
0
  6
CONTINUOUS
 62
  256
370
   50
100
AcDbLine
 10
260
 20
30
 11
275
 21
30
  0
CIRCLE
  5
1A7
100
AcDbEntity
  8
0
  6
ByLayer
 62
  256
370
   -1
100
AcDbCircle
 10
312.5
 20
30
 40
2.5
  0
LINE
  5
1A8
100
AcDbEntity
  8
0
  6
ByLayer
 62
  256
370
   -1
100
AcDbLine
 10
330
 20
30
 11
315
 21
30
  0
CIRCLE
  5
1A9
100
AcDbEntity
  8
0
  6
ByLayer
 62
  256
370
   -1
100
AcDbCircle
 10
292.5
 20
30
 40
2.5
  0
LINE
  5
1AA
100
AcDbEntity
  8
0
  6
CONTINUOUS
 62
  256
370
   50
100
AcDbLine
 10
290
 20
30
 11
275
 21
30
  0
LINE
  5
1AB
100
AcDbEntity
  8
fold
  6
ByLayer
 62
  256
370
   -1
100
AcDbLine
 10
200
 20
10
 11
237.5
 21
9
  0
LINE
  5
1AC
100
AcDbEntity
  8
fold
  6
ByLayer
 62
  256
370
   -1
100
AcDbLine
 10
237.5
 20
9
 11
274.9999999999999
 21
10
  0
LINE
  5
1AD
100
AcDbEntity
  8
fold
  6
ByLayer
 62
  256
370
   -1
100
AcDbLine
 10
274.9999999999999
 20
10
 11
312.5
 21
9
  0
LINE
  5
1AE
100
AcDbEntity
  8
fold
  6
ByLayer
 62
  256
370
   -1
100
AcDbLine
 10
312.5
 20
9
 11
350
 21
10
  0
LINE
  5
1AF
100
AcDbEntity
  8
0
  6
CONTINUOUS
 62
  256
370
   50
100
AcDbLine
 10
200
 20
-5
 11
236.5
 21
-6
  0
LINE
  5
1B0
100
AcDbEntity
  8
0
  6
CONTINUOUS
 62
  256
370
   50
100
AcDbLine
 10
236.5
 20
-6
 11
237.5
 21
9
  0
LINE
  5
1B1
100
AcDbEntity
  8
0
  6
CONTINUOUS
 62
  256
370
   50
100
AcDbLine
 10
237.5
 20
9
 11
238.5
 21
-6
  0
LINE
  5
1B2
100
AcDbEntity
  8
0
  6
ByLayer
 62
  256
370
   -1
100
AcDbLine
 10
238.5
 20
-6
 11
275
 21
-5
  0
LINE
  5
1B3
100
AcDbEntity
  8
0
  6
CONTINUOUS
 62
  256
370
   50
100
AcDbLine
 10
275
 20
-5
 11
311.5
 21
-6
  0
LINE
  5
1B4
100
AcDbEntity
  8
0
  6
ByLayer
 62
  256
370
   -1
100
AcDbLine
 10
311.5
 20
-6
 11
312.5
 21
9
  0
LINE
  5
1B5
100
AcDbEntity
  8
0
  6
ByLayer
 62
  256
370
   -1
100
AcDbLine
 10
312.5
 20
9
 11
313.5
 21
-6
  0
LINE
  5
1B6
100
AcDbEntity
  8
0
  6
ByLayer
 62
  256
370
   -1
100
AcDbLine
 10
313.5
 20
-6
 11
350
 21
-5
  0
DIMENSION
  5
1B7
100
AcDbEntity
  8
measurement
  6
ByLayer
 62
  256
370
   -1
100
AcDbDimension
  2
*D12
 10
320
 20
54
 30
0
 11
275
 21
55.875
 31
0
 70
   33
 71
    5
 72
    0
  3
Standard
 53
0
210
0
220
0
230
1
100
AcDbAlignedDimension
 13
230
 23
50
 33
0
 14
320
 24
50
 34
0
  0
DIMENSION
  5
1B8
100
AcDbEntity
  8
measurement
  6
ByLayer
 62
  256
370
   -1
100
AcDbDimension
  2
*D13
 10
290
 20
39
 30
0
 11
275
 21
40.875
 31
0
 70
   33
 71
    5
 72
    0
  3
Standard
 53
0
210
0
220
0
230
1
100
AcDbAlignedDimension
 13
260
 23
30
 33
0
 14
290
 24
30
 34
0
  0
DIMENSION
  5
1B9
100
AcDbEntity
  8
measurement
  6
ByLayer
 62
  256
370
   -1
100
AcDbDimension
  2
*D14
 10
321.5
 20
-2.000000000000001
 30
0
 11
320
 21
-0.1250000000000009
 31
0
 70
   33
 71
    5
 72
    0
  3
Standard
 53
0
210
0
220
0
230
1
100
AcDbAlignedDimension
 13
318.5
 23
2.500000000000001
 33
0
 14
321.5
 24
2.500000000000001
 34
0
  0
DIMENSION
  5
1BA
100
AcDbEntity
  8
measurement
  6
ByLayer
 62
  256
370
   -1
100
AcDbDimension
  2
*D15
 10
350
 20
23
 30
0
 11
332.5
 21
24.875
 31
0
 70
   33
 71
    5
 72
    0
  3
Standard
 53
0
210
0
220
0
230
1
100
AcDbAlignedDimension
 13
315
 23
30
 33
0
 14
350
 24
30
 34
0
  0
DIMENSION
  5
1BB
100
AcDbEntity
  8
measurement
  6
ByLayer
 62
  256
370
   -1
100
AcDbDimension
  2
*D16
 10
295
 20
21
 30
0
 11
292.5
 21
22.875
 31
0
 70
   33
 71
    5
 72
    0
  3
Standard
 53
0
210
0
220
0
230
1
100
AcDbAlignedDimension
 13
290
 23
30
 33
0
 14
295
 24
30
 34
0
  0
DIMENSION
  5
1BC
100
AcDbEntity
  8
measurement
  6
ByLayer
 62
  256
370
   -1
100
AcDbDimension
  2
*D17
 10
235
 20
22
 30
0
 11
217.5
 21
23.875
 31
0
 70
   33
 71
    5
 72
    0
  3
Standard
 53
0
210
0
220
0
230
1
100
AcDbAlignedDimension
 13
200
 23
30
 33
0
 14
235
 24
30
 34
0
  0
DIMENSION
  5
1BD
100
AcDbEntity
  8
measurement
  6
ByLayer
 62
  256
370
   -1
100
AcDbDimension
  2
*D18
 10
349
 20
54
 30
0
 11
339.5
 21
55.875
 31
0
 70
   33
 71
    5
 72
    0
  3
Standard
 53
0
210
0
220
0
230
1
100
AcDbAlignedDimension
 13
330
 23
30
 33
0
 14
349
 24
30
 34
0
  0
DIMENSION
  5
1BE
100
AcDbEntity
  8
measurement
  6
ByLayer
 62
  256
370
   -1
100
AcDbDimension
  2
*D19
 10
330
 20
54
 30
0
 11
325
 21
55.875
 31
0
 70
   33
 71
    5
 72
    0
  3
Standard
 53
0
210
0
220
0
230
1
100
AcDbAlignedDimension
 13
320
 23
50
 33
0
 14
330
 24
50
 34
0
  0
DIMENSION
  5
1BF
100
AcDbEntity
  8
measurement
  6
ByLayer
 62
  256
370
   -1
100
AcDbDimension
  2
*D20
 10
220
 20
54
 30
0
 11
225
 21
55.875
 31
0
 70
   33
 71
    5
 72
    0
  3
Standard
 53
0
210
0
220
0
230
1
100
AcDbAlignedDimension
 13
230
 23
50
 33
0
 14
220
 24
50
 34
0
  0
DIMENSION
  5
1C0
100
AcDbEntity
  8
measurement
  6
ByLayer
 62
  256
370
   -1
100
AcDbDimension
  2
*D21
 10
200
 20
54
 30
0
 11
210
 21
55.875
 31
0
 70
   33
 71
    5
 72
    0
  3
Standard
 53
0
210
0
220
0
230
1
100
AcDbAlignedDimension
 13
220
 23
30
 33
0
 14
200
 24
30
 34
0
  0
DIMENSION
  5
1C1
100
AcDbEntity
  8
measurement
  6
ByLayer
 62
  256
370
   -1
100
AcDbDimension
  2
*D22
 10
190
 20
-4.999999999999998
 30
0
 11
188.125
 21
12.50000000000001
 31
0
 70
   33
 71
    5
 72
    0
  3
Standard
 53
0
210
0
220
0
230
1
100
AcDbAlignedDimension
 13
200
 23
30
 33
0
 14
200
 24
-5
 34
0
  0
DIMENSION
  5
1C2
100
AcDbEntity
  8
measurement
  6
ByLayer
 62
  256
370
   -1
100
AcDbDimension
  2
*D23
 10
360
 20
50
 30
0
 11
358.125
 21
45
 31
0
 70
   33
 71
    5
 72
    0
  3
Standard
 53
0
210
0
220
0
230
1
100
AcDbAlignedDimension
 13
330
 23
40
 33
0
 14
330
 24
50
 34
0
  0
DIMENSION
  5
1C3
100
AcDbEntity
  8
measurement
  6
ByLayer
 62
  256
370
   -1
100
AcDbDimension
  2
*D24
 10
360
 20
30
 30
0
 11
358.125
 21
35
 31
0
 70
   33
 71
    5
 72
    0
  3
Standard
 53
0
210
0
220
0
230
1
100
AcDbAlignedDimension
 13
330
 23
40
 33
0
 14
330
 24
30
 34
0
  0
DIMENSION
  5
1C4
100
AcDbEntity
  8
measurement
  6
ByLayer
 62
  256
370
   -1
100
AcDbDimension
  2
*D25
 10
360
 20
10
 30
0
 11
358.125
 21
20
 31
0
 70
   33
 71
    5
 72
    0
  3
Standard
 53
0
210
0
220
0
230
1
100
AcDbAlignedDimension
 13
350
 23
30
 33
0
 14
350
 24
10
 34
0
  0
DIMENSION
  5
1C5
100
AcDbEntity
  8
measurement
  6
ByLayer
 62
  256
370
   -1
100
AcDbDimension
  2
*D26
 10
360
 20
-5
 30
0
 11
358.125
 21
2.5
 31
0
 70
   33
 71
    5
 72
    0
  3
Standard
 53
0
210
0
220
0
230
1
100
AcDbAlignedDimension
 13
350
 23
10
 33
0
 14
350
 24
-5
 34
0
  0
LINE
  5
1C6
100
AcDbEntity
  8
0
  6
ByLayer
 62
  256
370
   -1
100
AcDbLine
 10
90
 20
5
 11
110
 21
5
  0
LINE
  5
1C7
100
AcDbEntity
  8
0
  6
CONTINUOUS
 62
  256
370
   50
100
AcDbLine
 10
110
 20
5
 11
110
 21
60
  0
LINE
  5
1C8
100
AcDbEntity
  8
0
  6
ByLayer
 62
  256
370
   -1
100
AcDbLine
 10
110
 20
60
 11
130
 21
80
  0
LINE
  5
1C9
100
AcDbEntity
  8
0
  6
ByLayer
 62
  256
370
   -1
100
AcDbLine
 10
130
 20
80
 11
185
 21
80
  0
LINE
  5
1CA
100
AcDbEntity
  8
0
  6
ByLayer
 62
  256
370
   -1
100
AcDbLine
 10
185
 20
80
 11
185
 21
100
  0
LINE
  5
1CB
100
AcDbEntity
  8
0
  6
ByLayer
 62
  256
370
   -1
100
AcDbLine
 10
185
 20
100
 11
130
 21
100
  0
LINE
  5
1CC
100
AcDbEntity
  8
0
  6
ByLayer
 62
  256
370
   -1
100
AcDbLine
 10
130
 20
100
 11
110
 21
120
  0
LINE
  5
1CD
100
AcDbEntity
  8
0
  6
ByLayer
 62
  256
370
   -1
100
AcDbLine
 10
110
 20
120
 11
110
 21
175
  0
LINE
  5
1CE
100
AcDbEntity
  8
0
  6
ByLayer
 62
  256
370
   -1
100
AcDbLine
 10
110
 20
175
 11
90
 21
175
  0
LINE
  5
1CF
100
AcDbEntity
  8
0
  6
ByLayer
 62
  256
370
   -1
100
AcDbLine
 10
90
 20
175
 11
90
 21
120
  0
LINE
  5
1D0
100
AcDbEntity
  8
0
  6
ByLayer
 62
  256
370
   -1
100
AcDbLine
 10
90
 20
120
 11
70
 21
100
  0
LINE
  5
1D1
100
AcDbEntity
  8
0
  6
ByLayer
 62
  256
370
   -1
100
AcDbLine
 10
70
 20
100
 11
15
 21
100
  0
LINE
  5
1D2
100
AcDbEntity
  8
0
  6
ByLayer
 62
  256
370
   -1
100
AcDbLine
 10
15
 20
100
 11
15
 21
80
  0
LINE
  5
1D3
100
AcDbEntity
  8
0
  6
ByLayer
 62
  256
370
   -1
100
AcDbLine
 10
15
 20
80
 11
70
 21
80
  0
LINE
  5
1D4
100
AcDbEntity
  8
0
  6
ByLayer
 62
  256
370
   -1
100
AcDbLine
 10
70
 20
80
 11
90
 21
60
  0
LINE
  5
1D5
100
AcDbEntity
  8
0
  6
ByLayer
 62
  256
370
   -1
100
AcDbLine
 10
90
 20
60
 11
90
 21
5
  0
LINE
  5
1D6
100
AcDbEntity
  8
fold
  6
ByLayer
 62
  256
370
   -1
100
AcDbLine
 10
30
 20
100
 11
30
 21
80
  0
LINE
  5
1D7
100
AcDbEntity
  8
fold
  6
ByLayer
 62
  256
370
   -1
100
AcDbLine
 10
90
 20
160
 11
110
 21
160
  0
LINE
  5
1D8
100
AcDbEntity
  8
fold
  6
ByLayer
 62
  256
370
   -1
100
AcDbLine
 10
170
 20
100
 11
170
 21
80
  0
LINE
  5
1D9
100
AcDbEntity
  8
fold
  6
ByLayer
 62
  256
370
   -1
100
AcDbLine
 10
90
 20
20
 11
110
 21
20
  0
CIRCLE
  5
1DA
100
AcDbEntity
  8
0
  6
ByLayer
 62
  256
370
   -1
100
AcDbCircle
 10
100
 20
90
 40
5.25
  0
DIMENSION
  5
1DB
100
AcDbEntity
  8
measurement
  6
ByLayer
 62
  256
370
   -1
100
AcDbDimension
  2
*D27
 10
120
 20
4.999999999999999
 30
0
 11
118.125
 21
12.5
 31
0
 70
   33
 71
    5
 72
    0
  3
Standard
 53
0
210
0
220
0
230
1
100
AcDbAlignedDimension
 13
110
 23
20
 33
0
 14
110
 24
5
 34
0
  0
DIMENSION
  5
1DC
100
AcDbEntity
  8
measurement
  6
ByLayer
 62
  256
370
   -1
100
AcDbDimension
  2
*D28
 10
110
 20
-5
 30
0
 11
100
 21
-3.125
 31
0
 70
   33
 71
    5
 72
    0
  3
Standard
 53
0
210
0
220
0
230
1
100
AcDbAlignedDimension
 13
90
 23
5
 33
0
 14
110
 24
5
 34
0
  0
DIMENSION
  5
1DD
100
AcDbEntity
  8
measurement
  6
ByLayer
 62
  256
370
   -1
100
AcDbDimension
  2
*D29
 10
98
 20
80
 30
0
 11
96.125
 21
70
 31
0
 70
   33
 71
    5
 72
    0
  3
Standard
 53
0
210
0
220
0
230
1
100
AcDbAlignedDimension
 13
90
 23
60
 33
0
 14
90
 24
80
 34
0
  0
DIMENSION
  5
1DE
100
AcDbEntity
  8
measurement
  6
ByLayer
 62
  256
370
   -1
100
AcDbDimension
  2
*D30
 10
90
 20
85
 30
0
 11
80
 21
86.875
 31
0
 70
   33
 71
    5
 72
    0
  3
Standard
 53
0
210
0
220
0
230
1
100
AcDbAlignedDimension
 13
70
 23
80
 33
0
 14
90
 24
80
 34
0
  0
DIMENSION
  5
1DF
100
AcDbEntity
  8
measurement
  6
ByLayer
 62
  256
370
   -1
100
AcDbDimension
  2
*D31
 10
105
 20
103
 30
0
 11
100
 21
104.875
 31
0
 70
   33
 71
    5
 72
    0
  3
Standard
 53
0
210
0
220
0
230
1
100
AcDbAlignedDimension
 13
95
 23
90
 33
0
 14
105
 24
90
 34
0
  0
DIMENSION
  5
1E0
100
AcDbEntity
  8
measurement
  6
ByLayer
 62
  256
370
   -1
100
AcDbDimension
  2
*D32
 10
68
 20
60
 30
0
 11
66.125
 21
32.5
 31
0
 70
   33
 71
    5
 72
    0
  3
Standard
 53
0
210
0
220
0
230
1
100
AcDbAlignedDimension
 13
90
 23
5
 33
0
 14
90
 24
60
 34
0
  0
DIMENSION
  5
1E1
100
AcDbEntity
  8
measurement
  6
ByLayer
 62
  256
370
   -1
100
AcDbDimension
  2
*D33
 10
5
 20
175
 30
0
 11
3.125
 21
90
 31
0
 70
   33
 71
    5
 72
    0
  3
Standard
 53
0
210
0
220
0
230
1
100
AcDbAlignedDimension
 13
90
 23
5
 33
0
 14
90
 24
175
 34
0
  0
DIMENSION
  5
1E2
100
AcDbEntity
  8
measurement
  6
ByLayer
 62
  256
370
   -1
100
AcDbDimension
  2
*D34
 10
185
 20
185
 30
0
 11
100
 21
186.875
 31
0
 70
   33
 71
    5
 72
    0
  3
Standard
 53
0
210
0
220
0
230
1
100
AcDbAlignedDimension
 13
15
 23
100
 33
0
 14
185
 24
100
 34
0
  0
LINE
  5
1E3
100
AcDbEntity
  8
centerline
  6
ByLayer
 62
  256
370
   -1
100
AcDbLine
 10
-5
 20
90
 11
185
 21
90
  0
CIRCLE
  5
1E4
100
AcDbEntity
  8
screw
  6
ByLayer
 62
  256
370
   -1
100
AcDbCircle
 10
230
 20
120
 40
1.5
  0
CIRCLE
  5
1E5
100
AcDbEntity
  8
screw
  6
ByLayer
 62
  256
370
   -1
100
AcDbCircle
 10
260
 20
120
 40
1.5
  0
CIRCLE
  5
1E6
100
AcDbEntity
  8
screw
  6
ByLayer
 62
  256
370
   -1
100
AcDbCircle
 10
290
 20
120
 40
1.5
  0
CIRCLE
  5
1E7
100
AcDbEntity
  8
screw
  6
ByLayer
 62
  256
370
   -1
100
AcDbCircle
 10
320
 20
120
 40
1.5
  0
CIRCLE
  5
1E8
100
AcDbEntity
  8
screw
  6
ByLayer
 62
  256
370
   -1
100
AcDbCircle
 10
207.5
 20
2.5
 40
1.5
  0
CIRCLE
  5
1E9
100
AcDbEntity
  8
screw
  6
ByLayer
 62
  256
370
   -1
100
AcDbCircle
 10
230
 20
2.5
 40
1.5
  0
CIRCLE
  5
1EA
100
AcDbEntity
  8
screw
  6
ByLayer
 62
  256
370
   -1
100
AcDbCircle
 10
245
 20
2.5
 40
1.5
  0
CIRCLE
  5
1EB
100
AcDbEntity
  8
screw
  6
ByLayer
 62
  256
370
   -1
100
AcDbCircle
 10
267.5
 20
2.5
 40
1.5
  0
CIRCLE
  5
1EC
100
AcDbEntity
  8
screw
  6
ByLayer
 62
  256
370
   -1
100
AcDbCircle
 10
282.5
 20
2.5
 40
1.5
  0
CIRCLE
  5
1ED
100
AcDbEntity
  8
screw
  6
ByLayer
 62
  256
370
   -1
100
AcDbCircle
 10
305
 20
2.5
 40
1.5
  0
CIRCLE
  5
1EE
100
AcDbEntity
  8
screw
  6
ByLayer
 62
  256
370
   -1
100
AcDbCircle
 10
320
 20
2.5
 40
1.5
  0
CIRCLE
  5
1EF
100
AcDbEntity
  8
screw
  6
ByLayer
 62
  256
370
   -1
100
AcDbCircle
 10
342.5
 20
2.5
 40
1.5
  0
CIRCLE
  5
1F0
100
AcDbEntity
  8
screw
  6
ByLayer
 62
  256
370
   -1
100
AcDbCircle
 10
100
 20
12.5
 40
2.5
  0
CIRCLE
  5
1F1
100
AcDbEntity
  8
screw
  6
ByLayer
 62
  256
370
   -1
100
AcDbCircle
 10
177.5
 20
90
 40
2.5
  0
CIRCLE
  5
1F2
100
AcDbEntity
  8
screw
  6
ByLayer
 62
  256
370
   -1
100
AcDbCircle
 10
100
 20
167.5
 40
2.5
  0
CIRCLE
  5
1F3
100
AcDbEntity
  8
screw
  6
ByLayer
 62
  256
370
   -1
100
AcDbCircle
 10
22.5
 20
90
 40
2.5
  0
ENDSEC
  0
SECTION
  2
OBJECTS
  0
DICTIONARY
  5
C
330
0
100
AcDbDictionary
281
    1
  3
ACAD_GROUP
350
D
  0
DICTIONARY
  5
D
330
C
100
AcDbDictionary
281
    1
  0
PLOTSETTINGS
  5
1F4
100
AcDbPlotSettings
  6
1x1
 40
2.96
 41
12.7
 42
2.96
 43
2.96
  0
ENDSEC
  0
EOF
